<svg xmlns="http://www.w3.org/2000/svg" xmlns:xlink="http://www.w3.org/1999/xlink" viewBox="-160 5140 248.717 60.217">
  <defs>
    <style>
      .cls-1 {
        fill: #c9b171;
      }

      .cls-11, .cls-12, .cls-13, .cls-14, .cls-15, .cls-16, .cls-17, .cls-18, .cls-19, .cls-2, .cls-20, .cls-21, .cls-22, .cls-23, .cls-24, .cls-25, .cls-26, .cls-27, .cls-28, .cls-29, .cls-3, .cls-30, .cls-31, .cls-32, .cls-4, .cls-6 {
        fill-rule: evenodd;
      }

      .cls-2 {
        fill: url(#linear-gradient);
      }

      .cls-3 {
        fill: url(#linear-gradient-2);
      }

      .cls-4 {
        fill: #2a2523;
      }

      .cls-5 {
        opacity: 0.37;
        fill: url(#linear-gradient-3);
      }

      .cls-6, .cls-8 {
        fill: #fff;
      }

      .cls-7 {
        fill: #cdb273;
      }

      .cls-9 {
        fill: #ce3e2f;
      }

      .cls-10 {
        fill: url(#linear-gradient-4);
      }

      .cls-11 {
        fill: url(#linear-gradient-5);
      }

      .cls-12 {
        fill: url(#linear-gradient-6);
      }

      .cls-13 {
        fill: url(#linear-gradient-7);
      }

      .cls-14 {
        fill: url(#linear-gradient-8);
      }

      .cls-15 {
        fill: url(#linear-gradient-9);
      }

      .cls-16 {
        fill: url(#linear-gradient-10);
      }

      .cls-17 {
        fill: url(#linear-gradient-11);
      }

      .cls-18 {
        fill: url(#linear-gradient-12);
      }

      .cls-19 {
        fill: url(#linear-gradient-13);
      }

      .cls-20 {
        fill: url(#linear-gradient-14);
      }

      .cls-21 {
        fill: url(#linear-gradient-15);
      }

      .cls-22 {
        fill: url(#linear-gradient-16);
      }

      .cls-23 {
        fill: url(#linear-gradient-17);
      }

      .cls-24 {
        fill: url(#linear-gradient-18);
      }

      .cls-25 {
        fill: url(#linear-gradient-19);
      }

      .cls-26 {
        fill: url(#linear-gradient-20);
      }

      .cls-27 {
        fill: url(#linear-gradient-21);
      }

      .cls-28 {
        fill: url(#linear-gradient-22);
      }

      .cls-29 {
        fill: url(#linear-gradient-23);
      }

      .cls-30 {
        fill: url(#linear-gradient-24);
      }

      .cls-31 {
        fill: url(#linear-gradient-25);
      }

      .cls-32 {
        fill: url(#linear-gradient-26);
      }
    </style>
    <linearGradient id="linear-gradient" x1="12.254" y1="-13.409" x2="12.254" y2="-14.407" gradientUnits="objectBoundingBox">
      <stop offset="0" stop-color="#cdb273"/>
      <stop offset="0.184" stop-color="#d1bb87"/>
      <stop offset="0.626" stop-color="#ddd3bf"/>
      <stop offset="0.865" stop-color="#efebe2"/>
      <stop offset="0.939" stop-color="#f7f4ef"/>
      <stop offset="1" stop-color="#fff"/>
    </linearGradient>
    <linearGradient id="linear-gradient-2" x1="0.5" y1="1.008" x2="0.5" y2="0.01" gradientUnits="objectBoundingBox">
      <stop offset="0" stop-color="#baa268"/>
      <stop offset="0.196" stop-color="#c5b181"/>
      <stop offset="0.626" stop-color="#ddd3bf"/>
      <stop offset="0.865" stop-color="#efebe2"/>
      <stop offset="0.939" stop-color="#f7f4ef"/>
      <stop offset="1" stop-color="#e6dcc1"/>
    </linearGradient>
    <linearGradient id="linear-gradient-3" x1="0.5" y1="1.011" x2="0.5" y2="-0.296" gradientUnits="objectBoundingBox">
      <stop offset="0" stop-color="#ba9a5d"/>
      <stop offset="0.13" stop-color="#cca966"/>
      <stop offset="0.89" stop-color="#ba9a5d"/>
      <stop offset="0.94" stop-color="#e5d3a7"/>
      <stop offset="0.98" stop-color="#eeece3"/>
      <stop offset="1" stop-color="#faf7f3"/>
    </linearGradient>
    <linearGradient id="linear-gradient-4" x1="0.504" y1="0" x2="0.504" y2="0.998" xlink:href="#linear-gradient-2"/>
    <linearGradient id="linear-gradient-5" x1="0.005" y1="0.501" x2="1.002" y2="0.501" gradientUnits="objectBoundingBox">
      <stop offset="0" stop-color="#402e25"/>
      <stop offset="0.13" stop-color="#754931"/>
      <stop offset="0.89" stop-color="#cdb273"/>
      <stop offset="0.94" stop-color="#e5d3a7"/>
      <stop offset="0.98" stop-color="#eeece3"/>
      <stop offset="1" stop-color="#faf7f3"/>
    </linearGradient>
    <linearGradient id="linear-gradient-6" x1="0.013" y1="0.458" x2="0.997" y2="0.458" xlink:href="#linear-gradient-5"/>
    <linearGradient id="linear-gradient-7" x1="-0.005" y1="0.472" x2="0.991" y2="0.472" xlink:href="#linear-gradient-5"/>
    <linearGradient id="linear-gradient-8" x1="0.01" y1="0.588" x2="1.067" y2="0.588" xlink:href="#linear-gradient-5"/>
    <linearGradient id="linear-gradient-9" x1="0.005" y1="0.498" x2="1.003" y2="0.498" xlink:href="#linear-gradient-5"/>
    <linearGradient id="linear-gradient-10" x1="0.002" y1="0.498" x2="1.006" y2="0.498" xlink:href="#linear-gradient-5"/>
    <linearGradient id="linear-gradient-11" x1="-0.001" y1="0.497" x2="0.999" y2="0.497" xlink:href="#linear-gradient-5"/>
    <linearGradient id="linear-gradient-12" x1="0.007" y1="0.509" x2="1.002" y2="0.509" xlink:href="#linear-gradient-5"/>
    <linearGradient id="linear-gradient-13" x1="0.004" y1="0.497" x2="1.005" y2="0.497" xlink:href="#linear-gradient-5"/>
    <linearGradient id="linear-gradient-14" x1="0.001" y1="0.511" x2="1.01" y2="0.511" xlink:href="#linear-gradient-5"/>
    <linearGradient id="linear-gradient-15" x1="-0.004" y1="0.496" x2="1" y2="0.496" xlink:href="#linear-gradient-5"/>
    <linearGradient id="linear-gradient-16" x1="0.007" y1="0.496" x2="1.004" y2="0.496" xlink:href="#linear-gradient-5"/>
    <linearGradient id="linear-gradient-17" x1="0.003" y1="0.496" x2="1.009" y2="0.496" xlink:href="#linear-gradient-5"/>
    <linearGradient id="linear-gradient-18" x1="-0.002" y1="0.495" x2="0.996" y2="0.495" xlink:href="#linear-gradient-5"/>
    <linearGradient id="linear-gradient-19" x1="0.012" y1="0.517" x2="1.002" y2="0.517" xlink:href="#linear-gradient-5"/>
    <linearGradient id="linear-gradient-20" x1="0.007" y1="0.494" x2="1.009" y2="0.494" xlink:href="#linear-gradient-5"/>
    <linearGradient id="linear-gradient-21" x1="0" y1="0.507" x2="1.018" y2="0.507" xlink:href="#linear-gradient-5"/>
    <linearGradient id="linear-gradient-22" x1="0.023" y1="0.492" x2="0.998" y2="0.492" xlink:href="#linear-gradient-5"/>
    <linearGradient id="linear-gradient-23" x1="0.017" y1="0.49" x2="1.008" y2="0.49" xlink:href="#linear-gradient-5"/>
    <linearGradient id="linear-gradient-24" x1="0.007" y1="0.538" x2="1.025" y2="0.538" xlink:href="#linear-gradient-5"/>
    <linearGradient id="linear-gradient-25" x1="-0.01" y1="0.482" x2="0.986" y2="0.482" xlink:href="#linear-gradient-5"/>
    <linearGradient id="linear-gradient-26" x1="0.005" y1="0.509" x2="1.002" y2="0.509" xlink:href="#linear-gradient-5"/>
  </defs>
  <g id="Group_5140" data-name="Group 5140" transform="translate(-160 5140)">
    <path id="Path_52397" data-name="Path 52397" class="cls-1" d="M25.58,38.584a12.553,12.553,0,0,0-3.022.108.525.525,0,0,0-.432.756,8.831,8.831,0,0,1,.792,3.67c0,5.9-5.145,10.325-11.585,10.325H9.858C8.2,53.515,6.98,54.99,6.476,56.465c-.108.432.144.54.36.5a35.9,35.9,0,0,1,6.08-.612c6.476,0,12.844,2.087,12.844,8.419,0,3.274-2.77,6.692-5.9,8.131-.792.288-1.619.54-2.051-.072L15.9,69.957c-.432-.54-.18-1.115.612-1.583.863-.5,2.518-1.907,2.518-3.382,0-2.518-3.562-3.13-6.008-3.13a81.645,81.645,0,0,0-9.822.971,1.763,1.763,0,0,1-1.979-.684A7.278,7.278,0,0,1,0,57.508a7.559,7.559,0,0,1,3.382-5.72c.36-.252.54-.54.108-.935A9.8,9.8,0,0,1,.108,43.118C.108,37.325,5.469,32.9,11.3,32.9a13.026,13.026,0,0,1,7.124,2.087.917.917,0,0,0,1.115,0,9.525,9.525,0,0,1,5.9-2.015c.791,0,1.043.36,1.043,1.043v3.742C26.479,38.4,26.371,38.62,25.58,38.584Zm-13.959.288a4.639,4.639,0,0,0-4.929,4.533A4.377,4.377,0,0,0,11.3,47.831c3.2,0,4.929-2.015,4.929-4.425A4.464,4.464,0,0,0,11.621,38.872Z" transform="translate(0 -21.063)"/>
    <path id="Path_52398" data-name="Path 52398" d="M187.13,60.962c-4.245,0-8.778-1.367-10.865-5.541-.252-.5-.324-1.043.252-1.367l3.454-1.907c.684-.36.971-.324,1.4.252a7.26,7.26,0,0,0,5.972,3.094c1.655,0,3.634-.935,3.634-2.59,0-1.4-1.043-2.087-2.878-2.77-1.151-.432-2.842-.863-4.353-1.367-3.993-1.367-6.836-3.49-6.836-7.555,0-5.469,4.677-8.311,9.894-8.311a14.422,14.422,0,0,1,9.462,3.31c.432.432.252.971-.072,1.475l-1.979,2.878a1.022,1.022,0,0,1-.684.324,7.442,7.442,0,0,1-1.907-.935,12.166,12.166,0,0,0-5.109-1.4c-1.8,0-3.2.863-3.2,2.41,0,1.115.935,1.907,2.878,2.59,4.785,1.547,11.369,3.058,11.369,9.174C197.564,57.976,192.959,60.962,187.13,60.962Z" transform="translate(-112.729 -21.063)"/>
    <path id="Path_52399" data-name="Path 52399" d="M268.346,40.279H263.6c-.684,0-1.043-.324-1.043-.935V23.118c0-2.7-1.475-4.749-4.677-4.749a4.6,4.6,0,0,0-4.749,4.857V39.272a.858.858,0,0,1-.971.971h-4.785c-.684,0-.971-.324-.971-.935.072-10.074.072-18.42,0-37.236,0-.684.324-.971.935-.971h4.785a.906.906,0,0,1,.971.971V13.692c0,.54.36.72,1.043.324a10.4,10.4,0,0,1,5.289-1.475c6.836,0,9.894,4.425,9.894,10.577V39.272A.885.885,0,0,1,268.346,40.279Z" transform="translate(-157.752 -0.704)"/>
    <path id="Path_52400" data-name="Path 52400" d="M326.893,10.7A3.939,3.939,0,0,1,322.9,6.814,3.863,3.863,0,0,1,326.822,3a3.9,3.9,0,0,1,3.993,3.814A3.947,3.947,0,0,1,326.893,10.7Zm-3.418,4.5a.863.863,0,0,1,.935-.971H329.2a.906.906,0,0,1,.971.971V40.524c0,.756-.324.971-.935.971h-4.785a.863.863,0,0,1-.971-.935Z" transform="translate(-206.729 -1.921)"/>
    <path id="Path_52401" data-name="Path 52401" d="M380.718,51.289c0,5.54-3.634,10.074-10.218,10.074a9.1,9.1,0,0,1-4.929-1.331c-.755-.5-1.043-.288-1.043.18V70.968a.888.888,0,0,1-.971.971h-4.713c-.684,0-1.043-.324-1.043-.935V34.6a.9.9,0,0,1,.971-.935h4.605a.871.871,0,0,1,.935.863v.5c0,.252.18.612.684.252a9.97,9.97,0,0,1,5.972-1.979c6.62,0,9.786,4.533,9.786,10.577v7.411Zm-6.692-7.375a4.427,4.427,0,0,0-4.713-4.749,4.6,4.6,0,0,0-4.749,4.677v6.98a4.583,4.583,0,0,0,4.677,4.785c3.382,0,4.785-2.087,4.785-4.785Z" transform="translate(-229.073 -21.32)"/>
    <path id="Path_52402" data-name="Path 52402" d="M456.654,51.289c0,5.54-3.634,10.074-10.218,10.074a9.2,9.2,0,0,1-4.929-1.331c-.72-.5-1.043-.288-1.043.18V70.968a.888.888,0,0,1-.971.971h-4.749c-.684,0-1.043-.324-1.043-.935V34.6a.9.9,0,0,1,.971-.935h4.605a.852.852,0,0,1,.935.863v.5c0,.252.18.612.684.252a9.971,9.971,0,0,1,5.972-1.979c6.62,0,9.786,4.533,9.786,10.577Zm-6.692-7.375a4.427,4.427,0,0,0-4.713-4.749,4.6,4.6,0,0,0-4.749,4.677v6.98a4.583,4.583,0,0,0,4.677,4.785c3.382,0,4.785-2.087,4.785-4.785Z" transform="translate(-277.667 -21.32)"/>
    <path id="Path_52403" data-name="Path 52403" d="M512.993,10.7A3.917,3.917,0,0,1,509,6.814,3.84,3.84,0,0,1,512.922,3a3.9,3.9,0,0,1,3.994,3.814A3.971,3.971,0,0,1,512.993,10.7Zm-3.454,4.5a.863.863,0,0,1,.935-.971h4.785a.906.906,0,0,1,.971.971V40.524c0,.756-.324.971-.935.971h-4.785a.863.863,0,0,1-.971-.935Z" transform="translate(-325.876 -1.921)"/>
    <path id="Path_52404" data-name="Path 52404" d="M565.982,60.831H561.2a.863.863,0,0,1-.971-.935V43.741c0-2.77-1.4-4.749-4.785-4.749a4.476,4.476,0,0,0-4.677,4.677V59.823c0,.684-.432.971-1.043.971h-4.749a.863.863,0,0,1-.971-.935V34.531a.858.858,0,0,1,.971-.971h4.785c.612,0,.863.252.863.935a3.8,3.8,0,0,0,.072.935c.072.432.36.36.684,0a10.1,10.1,0,0,1,6.26-2.231c6.44,0,9.282,4.317,9.282,10.433V59.859A.863.863,0,0,1,565.982,60.831Z" transform="translate(-348.284 -21.256)"/>
    <path id="Path_52405" data-name="Path 52405" d="M643.28,38.648a12.553,12.553,0,0,0-3.022.108.525.525,0,0,0-.432.756,8.831,8.831,0,0,1,.791,3.67c0,5.9-5.181,10.325-11.621,10.325h-1.475c-1.655.072-2.878,1.547-3.382,3.022-.108.432.144.54.4.5a35.9,35.9,0,0,1,6.08-.612c6.44,0,12.844,2.087,12.844,8.419,0,3.274-2.77,6.692-5.9,8.131-.792.288-1.583.54-2.015-.072l-1.907-2.878c-.432-.54-.18-1.115.612-1.583.863-.5,2.518-1.907,2.518-3.382,0-2.518-3.562-3.13-6.044-3.13a83.1,83.1,0,0,0-9.822.971c-1.187.18-1.619-.18-1.979-.684a7.036,7.036,0,0,1-1.223-4.605,7.456,7.456,0,0,1,3.382-5.72c.36-.252.54-.54.108-.935a9.8,9.8,0,0,1-3.382-7.735C617.808,37.425,623.169,33,629,33a13.027,13.027,0,0,1,7.124,2.087.917.917,0,0,0,1.115,0,9.6,9.6,0,0,1,5.9-2.015c.791,0,1.043.36,1.043,1.043v3.742C644.215,38.469,644.107,38.684,643.28,38.648Zm-13.923.288a4.639,4.639,0,0,0-4.929,4.533,4.377,4.377,0,0,0,4.605,4.425c3.2,0,4.929-2.015,4.929-4.425A4.486,4.486,0,0,0,629.357,38.936Z" transform="translate(-395.468 -21.128)"/>
    <path id="Path_52406" data-name="Path 52406" class="cls-2" d="M110.99,41.362a16.09,16.09,0,1,0-19.5,11.729A16.146,16.146,0,0,0,110.99,41.362Z" transform="translate(-50.764 -13.695)"/>
    <path id="Path_52407" data-name="Path 52407" class="cls-3" d="M95.83,53.86A15.83,15.83,0,1,0,80,38.03,15.877,15.877,0,0,0,95.83,53.86Z" transform="translate(-51.218 -14.213)"/>
    <g id="Group_5104" data-name="Group 5104" transform="translate(30.976 10.29)">
      <path id="Path_52408" data-name="Path 52408" class="cls-4" d="M99.735,55.871A13.635,13.635,0,1,0,86.1,42.235,13.65,13.65,0,0,0,99.735,55.871Z" transform="translate(-86.1 -28.6)"/>
      <path id="Path_52409" data-name="Path 52409" class="cls-4" d="M99.863,56.027A13.563,13.563,0,1,0,86.3,42.463,13.6,13.6,0,0,0,99.863,56.027Z" transform="translate(-86.228 -28.792)"/>
      <path id="Path_52410" data-name="Path 52410" class="cls-4" d="M99.991,55.955A13.528,13.528,0,1,0,86.5,42.427,13.527,13.527,0,0,0,99.991,55.955Z" transform="translate(-86.356 -28.792)"/>
      <path id="Path_52411" data-name="Path 52411" class="cls-4" d="M100.02,56.111A13.456,13.456,0,1,0,86.6,42.656,13.45,13.45,0,0,0,100.02,56.111Z" transform="translate(-86.42 -28.984)"/>
      <path id="Path_52412" data-name="Path 52412" class="cls-4" d="M100.148,56.2A13.4,13.4,0,1,0,86.8,42.784,13.4,13.4,0,0,0,100.148,56.2Z" transform="translate(-86.548 -29.112)"/>
      <path id="Path_52413" data-name="Path 52413" class="cls-4" d="M100.276,56.2A13.348,13.348,0,1,0,87,42.848,13.351,13.351,0,0,0,100.276,56.2Z" transform="translate(-86.676 -29.176)"/>
      <path id="Path_52414" data-name="Path 52414" class="cls-4" d="M100.4,56.351A13.276,13.276,0,1,0,87.2,43.076,13.274,13.274,0,0,0,100.4,56.351Z" transform="translate(-86.804 -29.368)"/>
      <path id="Path_52415" data-name="Path 52415" class="cls-4" d="M100.531,56.379A13.24,13.24,0,1,0,87.4,43.14,13.205,13.205,0,0,0,100.531,56.379Z" transform="translate(-86.932 -29.432)"/>
      <path id="Path_52416" data-name="Path 52416" class="cls-4" d="M100.56,56.535A13.168,13.168,0,1,0,87.5,43.368,13.128,13.128,0,0,0,100.56,56.535Z" transform="translate(-86.996 -29.624)"/>
      <path id="Path_52417" data-name="Path 52417" class="cls-4" d="M100.624,56.527A13.114,13.114,0,1,0,87.6,43.4,13.082,13.082,0,0,0,100.624,56.527Z" transform="translate(-87.06 -29.688)"/>
      <path id="Path_52418" data-name="Path 52418" class="cls-4" d="M100.752,56.62A13.06,13.06,0,1,0,87.8,43.56,13.006,13.006,0,0,0,100.752,56.62Z" transform="translate(-87.188 -29.816)"/>
      <path id="Path_52419" data-name="Path 52419" class="cls-4" d="M100.88,56.775A12.988,12.988,0,1,0,88,43.752,12.959,12.959,0,0,0,100.88,56.775Z" transform="translate(-87.316 -30.008)"/>
      <path id="Path_52420" data-name="Path 52420" class="cls-4" d="M101.008,56.7A12.953,12.953,0,1,0,88.2,43.752,12.914,12.914,0,0,0,101.008,56.7Z" transform="translate(-87.444 -30.009)"/>
      <path id="Path_52421" data-name="Path 52421" class="cls-4" d="M101.136,56.86A12.881,12.881,0,1,0,88.4,43.98,12.837,12.837,0,0,0,101.136,56.86Z" transform="translate(-87.573 -30.201)"/>
      <path id="Path_52422" data-name="Path 52422" class="cls-4" d="M101.164,56.952A12.827,12.827,0,1,0,88.5,44.108,12.768,12.768,0,0,0,101.164,56.952Z" transform="translate(-87.637 -30.329)"/>
      <path id="Path_52423" data-name="Path 52423" class="cls-4" d="M101.292,57.044A12.773,12.773,0,1,0,88.7,44.272,12.691,12.691,0,0,0,101.292,57.044Z" transform="translate(-87.765 -30.457)"/>
      <path id="Path_52424" data-name="Path 52424" class="cls-4" d="M101.42,57.1A12.7,12.7,0,1,0,88.9,44.4,12.638,12.638,0,0,0,101.42,57.1Z" transform="translate(-87.893 -30.585)"/>
      <path id="Path_52425" data-name="Path 52425" class="cls-4" d="M101.548,57.128A12.666,12.666,0,1,0,89.1,44.464,12.569,12.569,0,0,0,101.548,57.128Z" transform="translate(-88.021 -30.649)"/>
      <path id="Path_52426" data-name="Path 52426" class="cls-4" d="M101.712,57.284A12.593,12.593,0,1,0,89.3,44.692,12.492,12.492,0,0,0,101.712,57.284Z" transform="translate(-88.149 -30.841)"/>
      <path id="Path_52427" data-name="Path 52427" class="cls-4" d="M101.84,57.34A12.521,12.521,0,1,0,89.5,44.82,12.469,12.469,0,0,0,101.84,57.34Z" transform="translate(-88.277 -30.969)"/>
      <path id="Path_52428" data-name="Path 52428" class="cls-4" d="M101.968,57.368A12.486,12.486,0,1,0,89.7,44.884,12.4,12.4,0,0,0,101.968,57.368Z" transform="translate(-88.405 -31.033)"/>
      <path id="Path_52429" data-name="Path 52429" class="cls-4" d="M102.132,57.524A12.413,12.413,0,1,0,89.9,45.112,12.354,12.354,0,0,0,102.132,57.524Z" transform="translate(-88.533 -31.225)"/>
      <path id="Path_52430" data-name="Path 52430" class="cls-4" d="M102.26,57.516A12.36,12.36,0,1,0,90.1,45.14,12.285,12.285,0,0,0,102.26,57.516Z" transform="translate(-88.661 -31.289)"/>
      <path id="Path_52431" data-name="Path 52431" class="cls-4" d="M102.488,57.608A12.306,12.306,0,1,0,90.4,45.3,12.231,12.231,0,0,0,102.488,57.608Z" transform="translate(-88.853 -31.417)"/>
      <path id="Path_52432" data-name="Path 52432" class="cls-4" d="M102.552,57.765A12.234,12.234,0,1,0,90.5,45.532,12.185,12.185,0,0,0,102.552,57.765Z" transform="translate(-88.917 -31.609)"/>
      <path id="Path_52433" data-name="Path 52433" class="cls-4" d="M102.68,57.693A12.2,12.2,0,1,0,90.7,45.5,12.116,12.116,0,0,0,102.68,57.693Z" transform="translate(-89.045 -31.609)"/>
      <path id="Path_52434" data-name="Path 52434" class="cls-4" d="M102.908,57.849A12.126,12.126,0,1,0,91,45.724,12.016,12.016,0,0,0,102.908,57.849Z" transform="translate(-89.237 -31.801)"/>
      <path id="Path_52435" data-name="Path 52435" class="cls-4" d="M102.973,58A12.054,12.054,0,1,0,91.1,45.952,11.993,11.993,0,0,0,102.973,58Z" transform="translate(-89.301 -31.993)"/>
      <path id="Path_52436" data-name="Path 52436" class="cls-4" d="M103.2,58a12,12,0,1,0-11.8-11.98A11.924,11.924,0,0,0,103.2,58Z" transform="translate(-89.493 -32.057)"/>
      <path id="Path_52437" data-name="Path 52437" class="cls-4" d="M103.265,58.089A11.946,11.946,0,1,0,91.5,46.144,11.878,11.878,0,0,0,103.265,58.089Z" transform="translate(-89.557 -32.185)"/>
      <path id="Path_52438" data-name="Path 52438" class="cls-4" d="M103.393,58.245A11.874,11.874,0,1,0,91.7,46.373,11.8,11.8,0,0,0,103.393,58.245Z" transform="translate(-89.685 -32.377)"/>
      <path id="Path_52439" data-name="Path 52439" class="cls-4" d="M103.621,58.173A11.839,11.839,0,1,0,92,46.373,11.755,11.755,0,0,0,103.621,58.173Z" transform="translate(-89.877 -32.377)"/>
      <path id="Path_52440" data-name="Path 52440" class="cls-4" d="M103.685,58.329A11.766,11.766,0,1,0,92.1,46.565,11.709,11.709,0,0,0,103.685,58.329Z" transform="translate(-89.941 -32.569)"/>
    </g>
    <path id="Path_52441" data-name="Path 52441" class="cls-5" d="M124.283,42.3C112.266,48.92,105.79,59.713,103.2,65.038A16.08,16.08,0,0,0,124.283,42.3Z" transform="translate(-66.071 -27.082)"/>
    <path id="Path_52442" data-name="Path 52442" class="cls-6" d="M101.912,56.96A12.43,12.43,0,1,0,89.5,44.512,12.475,12.475,0,0,0,101.912,56.96Z" transform="translate(-57.3 -20.551)"/>
    <g id="Group_5105" data-name="Group 5105" transform="translate(32.02 11.441)">
      <path id="Path_52443" data-name="Path 52443" class="cls-7" d="M101.556,56.912a12.556,12.556,0,1,1,12.556-12.556,12.568,12.568,0,0,1-12.556,12.556Zm0-24.86a12.3,12.3,0,1,0,12.3,12.3,12.322,12.322,0,0,0-12.3-12.3Z" transform="translate(-89 -31.8)"/>
    </g>
    <path id="Path_52444" data-name="Path 52444" class="cls-4" d="M103.7,57.71A11.4,11.4,0,1,0,92.3,46.3,11.431,11.431,0,0,0,103.7,57.71Z" transform="translate(-59.093 -22.344)"/>
    <g id="Group_5106" data-name="Group 5106" transform="translate(38.59 13.54)">
      <path id="Path_52445" data-name="Path 52445" class="cls-8" d="M108.426,41.983a.8.8,0,0,1,.108.36c0,.072,0,.144-.072.18,0,.036-.036.036-.072.072a.229.229,0,0,1-.216,0,.632.632,0,0,1-.18-.144,1.523,1.523,0,0,1-.18-.252l.144-.108c.072.108.108.18.18.216a.132.132,0,0,0,.108.036c.036-.036.036-.072.036-.144a.272.272,0,0,0-.036-.144.954.954,0,0,0-.18-.216c-.072-.036-.144-.108-.288-.18a.941.941,0,0,1-.432-.432.678.678,0,0,1-.072-.432c.036-.072.072-.144.108-.144a.163.163,0,0,1,.18,0,.193.193,0,0,1,.144.108.459.459,0,0,1,.144.216l-.144.144c-.036-.072-.072-.144-.108-.144a.067.067,0,0,0-.108,0c-.036.036-.036.036-.036.108,0,.036.036.108.036.144a.529.529,0,0,0,.18.216.187.187,0,0,0,.144.072c.072.036.108.072.144.072.072.072.144.108.18.18l.072.072A.362.362,0,0,1,108.426,41.983Z" transform="translate(-107.261 -39.549)"/>
      <path id="Path_52446" data-name="Path 52446" class="cls-8" d="M109.024,40.168l-.18.072-.144-.288.54-.252.144.288-.18.072L110,41.643l-.18.072Z" transform="translate(-108.182 -38.957)"/>
      <path id="Path_52447" data-name="Path 52447" class="cls-8" d="M111.22,40.847l.18.468-.18.072-.72-1.979.216-.108,1.115,1.8-.18.072-.252-.4Zm-.4-1.079.288.792.144-.072Z" transform="translate(-109.335 -38.701)"/>
      <path id="Path_52448" data-name="Path 52448" class="cls-8" d="M112.016,38.28l.827,1.151-.612-1.259.18-.072.9,1.907-.18.072L112.3,39l.576,1.223-.18.072-.9-1.871Z" transform="translate(-110.167 -37.932)"/>
      <path id="Path_52449" data-name="Path 52449" class="cls-8" d="M115.023,38.953a.712.712,0,0,1,.072.36.243.243,0,0,1-.144.216l-.252.144-.9-1.871.252-.144a.222.222,0,0,1,.252.036.447.447,0,0,1,.216.288Zm-.288.324.108-.036c.036,0,.036-.036.036-.072a.272.272,0,0,0-.036-.144l-.468-.971c-.036-.036-.036-.072-.072-.108a.067.067,0,0,0-.108,0l-.108.036Z" transform="translate(-111.447 -37.634)"/>
      <path id="Path_52450" data-name="Path 52450" class="cls-8" d="M113.3,47.531l-.9-1.871.252-.108a.229.229,0,0,1,.216,0,.48.48,0,0,1,.216.18.786.786,0,0,1,.108.18.592.592,0,0,1,.072.324.132.132,0,0,1-.036.108c.072,0,.108.036.18.108.036.036.072.108.144.18,0,.036.036.072.072.144a.58.58,0,0,1,.108.324v.216c-.036.072-.036.108-.108.144Zm-.36-1.187.072-.036a.143.143,0,0,0,.036-.18c0-.036-.036-.072-.036-.108-.036-.072-.072-.144-.108-.144a.067.067,0,0,0-.108,0l-.072.036Zm.4.827.072-.036c.072-.036.072-.108.036-.216,0-.036-.036-.072-.036-.108a2.133,2.133,0,0,0-.144-.216c-.036-.036-.072-.036-.144-.036l-.072.036Z" transform="translate(-110.551 -42.686)"/>
      <path id="Path_52451" data-name="Path 52451" class="cls-8" d="M114.656,45.659l-.756-.971.18-.108.468.612-.216-.72.18-.072.324,1.223.4.792-.18.072Z" transform="translate(-111.511 -41.966)"/>
    </g>
    <g id="Group_5107" data-name="Group 5107" transform="translate(46.411 13.276)">
      <path id="Path_52452" data-name="Path 52452" class="cls-8" d="M130.544,38.2c-.036-.036-.108-.036-.144-.072.108-.4.216-.827.36-1.223a4.223,4.223,0,0,1,.4.18c0,.072-.036.108-.072.18-.108-.036-.18-.072-.288-.108l-.108.324a.607.607,0,0,0,.18.072c-.036.072-.036.108-.072.18a.608.608,0,0,0-.18-.072A1.229,1.229,0,0,1,130.544,38.2Z" transform="translate(-129.896 -36.9)"/>
      <path id="Path_52453" data-name="Path 52453" class="cls-8" d="M131.744,38.759c-.036-.036-.108-.036-.144-.072.144-.4.252-.791.4-1.187.036.036.108.036.144.072C132,37.968,131.852,38.363,131.744,38.759Z" transform="translate(-130.665 -37.284)"/>
      <path id="Path_52454" data-name="Path 52454" class="cls-8" d="M132.648,37.808l-.108.863c.108-.252.18-.54.288-.792.036.036.108.036.144.072-.144.4-.324.792-.468,1.151-.036-.036-.108-.036-.144-.072a7.027,7.027,0,0,0,.072-.827c-.108.252-.18.5-.288.756-.036-.036-.072-.036-.144-.072l.432-1.187C132.54,37.772,132.576,37.808,132.648,37.808Z" transform="translate(-130.921 -37.412)"/>
      <path id="Path_52455" data-name="Path 52455" class="cls-8" d="M133.744,39.723c-.036-.036-.108-.036-.144-.072.144-.4.324-.792.468-1.151a.273.273,0,0,1,.144.072A10.987,10.987,0,0,1,133.744,39.723Z" transform="translate(-131.945 -37.924)"/>
      <path id="Path_52456" data-name="Path 52456" class="cls-8" d="M134.9,39.879a.359.359,0,0,1-.144.18c-.036.036-.072.036-.144.036-.036,0-.036,0-.072-.036q-.108-.054-.108-.108c0-.036-.036-.072-.036-.144a.324.324,0,0,1,.036-.18c.036,0,.108.036.144.036a.391.391,0,0,0-.036.18.035.035,0,0,0,.036.036.132.132,0,0,0,.108-.036.126.126,0,0,0,.036-.072.161.161,0,0,0,0-.18,1.414,1.414,0,0,0-.072-.216.391.391,0,0,1-.036-.18.324.324,0,0,1,.036-.18.368.368,0,0,1,.18-.216h.144c.072.036.108.036.108.108,0,.036.036.072.036.108a.216.216,0,0,1-.036.144c-.036,0-.108-.036-.144-.036,0-.036.036-.108,0-.144,0-.036-.036-.036-.036-.072-.036,0-.072,0-.072.036-.036,0-.036.036-.072.072a.163.163,0,0,0,0,.18.132.132,0,0,0,.036.108.132.132,0,0,1,.036.108c0,.072.036.108,0,.144v.072C134.94,39.807,134.9,39.843,134.9,39.879Z" transform="translate(-132.457 -38.116)"/>
      <path id="Path_52457" data-name="Path 52457" class="cls-8" d="M135.96,40.12c-.072.144-.144.324-.216.468-.036,0-.108-.036-.144-.036.18-.4.36-.756.5-1.151.036.036.108.036.144.072-.072.144-.144.324-.216.468.072.036.108.036.18.072.072-.144.144-.324.216-.468.036.036.108.036.144.072-.18.36-.36.756-.54,1.115-.036-.036-.108-.036-.144-.072.072-.144.144-.324.216-.468C136.068,40.192,136.032,40.156,135.96,40.12Z" transform="translate(-133.226 -38.501)"/>
      <path id="Path_52458" data-name="Path 52458" class="cls-8" d="M137,41.215c.18-.36.4-.756.54-1.115.144.072.288.108.432.18-.036.072-.072.108-.072.18-.072-.036-.18-.072-.252-.108a1.28,1.28,0,0,0-.144.324c.072.036.108.072.18.072-.036.072-.072.108-.072.18a.608.608,0,0,0-.18-.072,2.134,2.134,0,0,1-.144.288c.072.036.18.072.252.108-.036.072-.072.108-.108.18A4.8,4.8,0,0,0,137,41.215Z" transform="translate(-134.122 -38.949)"/>
      <path id="Path_52459" data-name="Path 52459" class="cls-8" d="M138.776,41.579a.239.239,0,0,1-.18.144.161.161,0,0,1-.18,0l-.216-.108a10.845,10.845,0,0,0,.576-1.115l.216.108c.072.036.108.072.108.144a.238.238,0,0,1-.036.216A2.415,2.415,0,0,1,138.776,41.579Zm-.36-.036a.126.126,0,0,1,.072.036h.072c.036,0,.036-.036.072-.072.108-.18.216-.4.324-.576V40.86c0-.036-.036-.036-.036-.072a.126.126,0,0,1-.072-.036C138.7,41.04,138.56,41.292,138.416,41.543Z" transform="translate(-134.89 -39.205)"/>
      <path id="Path_52460" data-name="Path 52460" class="cls-8" d="M132.292,41.816c.036.036.108.036.144.072-.216.36-.4.756-.612,1.115-.036,0-.072-.036-.108-.036.072-.216.108-.468.18-.684a4.679,4.679,0,0,0-.288.612c-.036,0-.072-.036-.108-.036.108-.432.18-.827.252-1.259.036.036.108.036.144.072-.036.216-.108.432-.144.648.108-.216.18-.4.288-.612.036.036.108.036.144.072a4.346,4.346,0,0,1-.18.648C132.076,42.248,132.184,42.032,132.292,41.816Z" transform="translate(-130.601 -39.909)"/>
      <path id="Path_52461" data-name="Path 52461" class="cls-8" d="M133.108,43.623c-.036-.036-.072-.036-.108-.072.144-.4.324-.756.468-1.151.036.036.108.036.144.072C133.432,42.868,133.252,43.263,133.108,43.623Z" transform="translate(-131.561 -40.421)"/>
      <path id="Path_52462" data-name="Path 52462" class="cls-8" d="M134.3,42.952c-.036-.036-.108-.036-.144-.072.036-.072.036-.108.072-.18.144.072.288.108.432.18-.036.072-.072.108-.072.18-.036-.036-.108-.036-.144-.072l-.432.971c-.036,0-.072-.036-.108-.036C134.008,43.6,134.152,43.276,134.3,42.952Z" transform="translate(-132.137 -40.613)"/>
      <path id="Path_52463" data-name="Path 52463" class="cls-8" d="M134.96,43.984a2.967,2.967,0,0,1-.252.468c-.036,0-.072-.036-.108-.036.18-.4.36-.756.54-1.115.036.036.108.036.144.072a2.976,2.976,0,0,1-.252.468c.072.036.108.036.144.072.072-.144.18-.324.252-.468.036.036.072.036.144.072-.18.36-.4.756-.612,1.115-.036-.036-.072-.036-.108-.072a2.972,2.972,0,0,1,.252-.468C135.068,44.056,135,44.02,134.96,43.984Z" transform="translate(-132.585 -40.997)"/>
      <path id="Path_52464" data-name="Path 52464" class="cls-8" d="M129,46.087c.144-.4.252-.792.4-1.187.108.036.216.108.324.144,0,.072-.036.108-.072.18l-.216-.108-.108.324c.036.036.108.036.144.072-.036.072-.036.108-.072.18-.036-.036-.108-.036-.144-.072l-.108.324a.511.511,0,0,0,.216.072c-.036.072-.036.108-.072.18A.409.409,0,0,1,129,46.087Z" transform="translate(-129 -42.022)"/>
      <path id="Path_52465" data-name="Path 52465" class="cls-8" d="M130.476,45.436c-.036.288-.108.576-.144.863a7.007,7.007,0,0,0,.288-.792c.036,0,.072.036.108.072a11,11,0,0,1-.468,1.151c-.036,0-.072-.036-.108-.036.036-.288.108-.54.144-.827-.108.252-.18.5-.288.756-.036,0-.072-.036-.108-.036l.432-1.187A.272.272,0,0,1,130.476,45.436Z" transform="translate(-129.576 -42.342)"/>
      <path id="Path_52466" data-name="Path 52466" class="cls-8" d="M131.372,47.223c-.036,0-.072-.072-.072-.144a.456.456,0,0,1,.036-.216c.072-.216.18-.432.252-.648a.359.359,0,0,1,.144-.18.27.27,0,0,1,.18-.036c.036,0,.072.072.108.144a.238.238,0,0,1-.036.216c-.036.036-.036.108-.072.144-.036,0-.072-.036-.108-.036.036-.036.036-.108.072-.144v-.072c0-.036,0-.036-.036-.036h-.072c-.036,0-.036.036-.036.072-.072.216-.18.432-.252.648v.072c0,.036,0,.036.036.036h.072c.036,0,.036-.036.036-.072l.108-.216c-.036,0-.036,0-.072-.036.036-.072.036-.108.072-.18.072.036.108.036.18.072-.072.144-.108.252-.18.4a.359.359,0,0,1-.144.18C131.48,47.223,131.444,47.259,131.372,47.223Z" transform="translate(-130.473 -42.726)"/>
      <path id="Path_52467" data-name="Path 52467" class="cls-8" d="M132.308,47.587c-.036,0-.072-.036-.108-.036.18-.4.324-.756.5-1.151.036,0,.072.036.108.036C132.632,46.832,132.452,47.227,132.308,47.587Z" transform="translate(-131.049 -42.982)"/>
      <path id="Path_52468" data-name="Path 52468" class="cls-8" d="M133.348,46.672c-.072.288-.144.54-.216.827a7.609,7.609,0,0,1,.4-.756c.036,0,.072.036.108.036-.18.36-.4.756-.576,1.115-.036,0-.072-.036-.108-.036a6.258,6.258,0,0,0,.18-.792c-.108.252-.216.468-.324.72-.036,0-.072-.036-.108-.036.18-.4.36-.756.54-1.151C133.24,46.636,133.276,46.672,133.348,46.672Z" transform="translate(-131.369 -43.11)"/>
      <path id="Path_52469" data-name="Path 52469" class="cls-8" d="M133.8,48.315c.18-.36.36-.756.576-1.115a3.731,3.731,0,0,0,.36.144c-.036.072-.072.108-.108.18l-.216-.108a2.119,2.119,0,0,0-.144.288c.036.036.108.036.144.072a.275.275,0,0,0-.072.18c-.036-.036-.108-.036-.144-.072a1.276,1.276,0,0,0-.144.324c.072.036.144.036.216.072-.036.072-.072.108-.072.18A2.373,2.373,0,0,1,133.8,48.315Z" transform="translate(-132.073 -43.494)"/>
    </g>
    <g id="Group_5108" data-name="Group 5108" transform="translate(48.965 15.614)">
      <path id="Path_52470" data-name="Path 52470" class="cls-9" d="M137.323,50.184a.3.3,0,0,1,.072.252.364.364,0,0,1-.144.252c-.108.072-.18.18-.288.252-.288-.324-.576-.684-.863-1.007.072-.108.18-.18.252-.288a.58.58,0,0,1,.252-.144.218.218,0,0,1,.216.108A3.85,3.85,0,0,1,137.323,50.184Zm-.288.432.108-.108a.18.18,0,0,0,0-.216c-.144-.18-.324-.36-.468-.54-.036-.036-.036-.036-.072-.036a.132.132,0,0,0-.108.036l-.108.108A7.037,7.037,0,0,0,137.035,50.615Z" transform="translate(-136.1 -47.305)"/>
      <path id="Path_52471" data-name="Path 52471" class="cls-9" d="M138.935,48.819c-.324-.36-.648-.72-.935-1.079.144-.18.324-.36.468-.54.036.072.108.108.144.18l-.324.324a1.8,1.8,0,0,1,.252.288l.252-.252c.036.072.108.108.144.18l-.252.252a2.057,2.057,0,0,0,.252.288l.324-.324a.631.631,0,0,1,.144.18A2.988,2.988,0,0,1,138.935,48.819Z" transform="translate(-137.316 -45.833)"/>
      <path id="Path_52472" data-name="Path 52472" class="cls-9" d="M140.927,46.715a1.459,1.459,0,0,1,.18.324c-.072.072-.144.108-.18.18-.288-.432-.54-.9-.827-1.367.072-.072.144-.18.216-.252.432.324.827.684,1.259,1.007-.072.072-.144.108-.18.18a1.8,1.8,0,0,1-.288-.252Zm-.468-.756c.108.18.252.36.36.54.036-.036.108-.072.144-.144A2.716,2.716,0,0,1,140.46,45.96Z" transform="translate(-138.661 -44.809)"/>
      <path id="Path_52473" data-name="Path 52473" class="cls-9" d="M143,44.227a.438.438,0,0,1,0,.576,2.055,2.055,0,0,0-.288.252c-.36-.432-.72-.827-1.115-1.259.072-.108.18-.18.252-.288a.327.327,0,0,1,.252-.108.372.372,0,0,1,.288.144C142.607,43.76,142.823,44.012,143,44.227Zm-.288.468.108-.108a.18.18,0,0,0,0-.216c-.216-.216-.4-.468-.612-.684a.18.18,0,0,0-.216,0l-.108.108C142.212,44.12,142.464,44.407,142.715,44.7Z" transform="translate(-139.621 -43.4)"/>
      <path id="Path_52474" data-name="Path 52474" class="cls-9" d="M140.226,53.248a.327.327,0,0,1,.108.252c0,.072-.036.108-.072.18-.036.036-.072.072-.108.072-.072.072-.18.072-.252.108a.27.27,0,0,1-.18-.036c-.072-.036-.108-.072-.18-.108.072-.036.108-.108.18-.144.072.036.108.072.18.072a.132.132,0,0,0,.108-.036c.036-.036.072-.072.072-.108s0-.072-.036-.072a.275.275,0,0,0-.18-.072h-.288a.534.534,0,0,1-.252-.036c-.072-.036-.108-.072-.18-.108a.345.345,0,0,1-.072-.324.359.359,0,0,1,.144-.18.311.311,0,0,1,.216-.108h.18a.187.187,0,0,1,.144.072c-.036.072-.108.108-.144.18a.273.273,0,0,0-.144-.072.132.132,0,0,0-.108.036c-.036.036-.072.072-.036.108a.132.132,0,0,0,.036.108.3.3,0,0,0,.216.072h.288a.456.456,0,0,1,.216.036c.036,0,.036,0,.072.036A.077.077,0,0,1,140.226,53.248Z" transform="translate(-137.996 -49.29)"/>
      <path id="Path_52475" data-name="Path 52475" class="cls-9" d="M142.175,52.427c-.18.144-.36.252-.54.4-.324-.36-.648-.72-.935-1.079.072-.072.144-.108.18-.144.288.324.54.612.827.935a3.118,3.118,0,0,1,.36-.252C142.067,52.32,142.1,52.356,142.175,52.427Z" transform="translate(-139.045 -48.65)"/>
      <path id="Path_52476" data-name="Path 52476" class="cls-9" d="M142.683,49.608a.409.409,0,0,1,.288-.108.327.327,0,0,1,.252.108c.18.216.4.432.576.648a.28.28,0,0,1,.072.288.364.364,0,0,1-.144.252.388.388,0,0,1-.288.072.364.364,0,0,1-.252-.144c-.18-.216-.36-.4-.54-.612a.28.28,0,0,1-.072-.288A.4.4,0,0,1,142.683,49.608Zm.36.216c-.036-.036-.036-.036-.108-.036a.153.153,0,0,0-.108.252l.54.648c.036.036.036.036.108.036a.132.132,0,0,0,.108-.036c.036-.036.036-.072.072-.108a.132.132,0,0,0-.036-.108C143.4,50.256,143.222,50.04,143.043,49.824Z" transform="translate(-140.236 -47.305)"/>
      <path id="Path_52477" data-name="Path 52477" class="cls-9" d="M144.656,46.88c.072-.072.144-.108.18-.18.324.5.648,1.007.935,1.475a.784.784,0,0,0-.18.144c-.252-.216-.5-.432-.72-.612.18.252.324.5.5.792a.359.359,0,0,0-.18.144c-.432-.36-.863-.72-1.3-1.043.072-.072.144-.108.18-.18.216.18.468.4.684.576-.18-.252-.324-.5-.5-.756a.434.434,0,0,0,.18-.18c.216.216.468.4.719.612A5.91,5.91,0,0,0,144.656,46.88Z" transform="translate(-141.094 -45.513)"/>
    </g>
    <g id="Group_5109" data-name="Group 5109" transform="translate(35.474 15.542)">
      <path id="Path_52478" data-name="Path 52478" class="cls-8" d="M102.363,44.711a.723.723,0,0,1-.288.144.409.409,0,0,1-.288-.108,2.057,2.057,0,0,0-.288-.252l1.187-1.3c.072.108.18.18.252.288a.438.438,0,0,1,0,.576C102.759,44.279,102.579,44.5,102.363,44.711Zm-.468-.252.108.108a.132.132,0,0,0,.108.036c.036,0,.072-.036.108-.036.216-.216.4-.432.612-.648a.18.18,0,0,0,0-.216l-.108-.108A6.308,6.308,0,0,0,101.9,44.459Z" transform="translate(-100.457 -43.2)"/>
      <path id="Path_52479" data-name="Path 52479" class="cls-8" d="M103.6,46.423c.4-.4.756-.791,1.151-1.223a6.258,6.258,0,0,0,.468.54l-.18.18a1.409,1.409,0,0,1-.288-.36l-.324.324a1.564,1.564,0,0,1,.216.252.632.632,0,0,0-.144.18,1.566,1.566,0,0,1-.216-.252,2.328,2.328,0,0,0-.288.324l.324.324c-.036.072-.108.108-.18.18A3.359,3.359,0,0,1,103.6,46.423Z" transform="translate(-101.801 -44.48)"/>
      <path id="Path_52480" data-name="Path 52480" class="cls-8" d="M105.868,48.663c-.108.072-.18.144-.288.216l-.18-.18c.432-.324.827-.612,1.223-.9.072.108.144.18.216.288-.288.432-.54.863-.791,1.259l-.18-.18c.072-.108.108-.18.18-.288C105.976,48.771,105.9,48.735,105.868,48.663Zm.612-.5c-.144.108-.324.252-.468.36a.5.5,0,0,1,.108.144A2.554,2.554,0,0,0,106.479,48.16Z" transform="translate(-102.954 -46.145)"/>
      <path id="Path_52481" data-name="Path 52481" class="cls-8" d="M108.356,50.931c-.036.072-.144.072-.216.072a.364.364,0,0,1-.252-.144c-.108-.072-.18-.18-.288-.252.324-.324.612-.648.935-1.007l.216.324a.479.479,0,0,1,.108.288.3.3,0,0,1-.072.252A5.525,5.525,0,0,1,108.356,50.931Zm-.432-.288.108.108c.036.036.072.036.108.072.036,0,.072,0,.072-.036a5.73,5.73,0,0,1,.468-.468.18.18,0,0,0,0-.216c-.036-.036-.072-.072-.072-.108A3.92,3.92,0,0,0,107.924,50.643Z" transform="translate(-104.362 -47.297)"/>
      <path id="Path_52482" data-name="Path 52482" class="cls-8" d="M99.356,48.679a.783.783,0,0,1-.288.18h-.216c-.036,0-.072-.036-.108-.072a.753.753,0,0,1-.144-.216v-.216a.753.753,0,0,1,.144-.216.786.786,0,0,1,.18.144.311.311,0,0,0-.108.216c0,.036.036.072.036.108a.109.109,0,0,0,.144,0c.036,0,.072-.036.108-.072a.3.3,0,0,0,.072-.216v-.288a.7.7,0,0,1,.036-.288.753.753,0,0,1,.144-.216.368.368,0,0,1,.36-.144.382.382,0,0,1,.324.324v.18c0,.072-.036.108-.108.18l-.216-.108c.036-.072.072-.108.072-.144a.127.127,0,0,0-.144-.144c-.036,0-.072.036-.108.072a.327.327,0,0,0-.108.252v.5c0,.036,0,.072-.036.072C99.392,48.607,99.356,48.643,99.356,48.679Z" transform="translate(-98.6 -45.872)"/>
      <path id="Path_52483" data-name="Path 52483" class="cls-8" d="M100.64,50.319c-.18-.144-.36-.252-.54-.4.4-.4.756-.792,1.151-1.223l.18.18c-.324.324-.648.684-.971,1.007.108.072.216.18.324.252C100.748,50.175,100.712,50.247,100.64,50.319Z" transform="translate(-99.56 -46.721)"/>
      <path id="Path_52484" data-name="Path 52484" class="cls-8" d="M103.487,50.608a.9.9,0,0,1,.144.252.52.52,0,0,1-.072.252c-.18.18-.36.4-.54.576a.327.327,0,0,1-.252.108,1.051,1.051,0,0,1-.324-.072.272.272,0,0,1-.144-.252.327.327,0,0,1,.108-.252c.18-.216.4-.432.576-.612a.327.327,0,0,1,.252-.108A.389.389,0,0,1,103.487,50.608Zm-.144.36a.111.111,0,0,0,.036-.072.153.153,0,0,0-.252-.108c-.18.216-.4.4-.576.612a.132.132,0,0,0-.036.108.077.077,0,0,0,.072.072.18.18,0,0,0,.216,0C102.984,51.363,103.163,51.148,103.343,50.968Z" transform="translate(-100.969 -47.874)"/>
      <path id="Path_52485" data-name="Path 52485" class="cls-8" d="M105.911,52.32l.18.18c-.324.216-.684.468-1.043.756a.753.753,0,0,1-.216-.144,5.858,5.858,0,0,1,.4-.612,6.917,6.917,0,0,0-.612.468.752.752,0,0,1-.216-.144c.252-.4.5-.792.756-1.223.072.072.144.108.18.18-.144.216-.288.432-.4.612.216-.144.4-.324.576-.468.072.072.144.108.18.18-.108.216-.252.4-.36.576A1.933,1.933,0,0,0,105.911,52.32Z" transform="translate(-102.313 -48.578)"/>
    </g>
    <path id="Path_52486" data-name="Path 52486" class="cls-8" d="M112.952,59.6a3.708,3.708,0,1,1,7.411,0,3.9,3.9,0,0,1-.827,2.41l.18.18a4.118,4.118,0,0,0,.9-2.59,3.96,3.96,0,1,0-7.915,0,4.392,4.392,0,0,0,.827,2.518l.18-.18A3.868,3.868,0,0,1,112.952,59.6Z" transform="translate(-72.154 -35.533)"/>
    <g id="Group_5110" data-name="Group 5110" transform="translate(33.927 23.529)">
      <path id="Path_52487" data-name="Path 52487" class="cls-8" d="M94.66,66.875a10.111,10.111,0,0,1,.036,1.043c-.108.036-.18.036-.288.072L94.3,65.4c.108,0,.18.036.288.036,0,.36.036.72.036,1.043h.36c0-.324-.036-.648-.036-1.007.108,0,.18.036.288.036.036.756.072,1.475.108,2.231-.108.036-.18.036-.288.072A9.088,9.088,0,0,1,95.02,66.8,1.583,1.583,0,0,1,94.66,66.875Z" transform="translate(-94.3 -65.4)"/>
      <path id="Path_52488" data-name="Path 52488" class="cls-8" d="M97.924,67.583a2.052,2.052,0,0,0-.036.468c-.108.036-.216.036-.288.072.072-.756.144-1.475.252-2.123.144.036.288.036.4.072.144.648.252,1.259.4,1.835-.108.036-.216.036-.324.072l-.108-.432A.894.894,0,0,0,97.924,67.583Zm.108-1.115c-.036.252-.036.54-.072.791h.216A7.442,7.442,0,0,0,98.032,66.468Z" transform="translate(-96.413 -65.784)"/>
      <path id="Path_52489" data-name="Path 52489" class="cls-8" d="M101.463,67.847c-.252.072-.54.108-.791.18-.036-.576-.036-1.151-.072-1.727a.792.792,0,0,0,.288.036c.036.468.036.935.072,1.367a2.43,2.43,0,0,1,.5-.072Z" transform="translate(-98.333 -65.976)"/>
      <path id="Path_52490" data-name="Path 52490" class="cls-8" d="M103.46,68.031c-.108.036-.18.036-.288.072-.036-.468-.036-.935-.072-1.4l.863.108v.18a2.723,2.723,0,0,0-.54-.036v.36h.4v.18c-.144,0-.252.036-.4.036A2.549,2.549,0,0,0,103.46,68.031Z" transform="translate(-99.934 -66.232)"/>
    </g>
    <g id="Group_5111" data-name="Group 5111" transform="translate(50.776 19.536)">
      <path id="Path_52491" data-name="Path 52491" class="cls-9" d="M142.309,59.607a.5.5,0,0,1,0,.324.632.632,0,0,1-.144.18c-.036.036-.072.036-.144.072a.394.394,0,0,1-.288,0,.788.788,0,0,1-.18-.108.631.631,0,0,1-.144-.18c.072-.036.18-.072.252-.108a.783.783,0,0,0,.144.18c.036.036.072.036.144,0s.108-.072.108-.108v-.108a.253.253,0,0,0-.18-.144,1.672,1.672,0,0,0-.324-.108c-.108-.036-.216-.072-.252-.144a.359.359,0,0,1-.144-.18.412.412,0,0,1,.036-.36.369.369,0,0,1,.216-.18.7.7,0,0,1,.252-.036c.072,0,.108.036.18.072.036.036.108.108.108.144a1.565,1.565,0,0,1-.252.144.5.5,0,0,0-.108-.144h-.108l-.108.108v.144a.425.425,0,0,0,.18.18c.036,0,.072.036.144.072a.359.359,0,0,0,.144.036l.216.108.072.072C142.237,59.5,142.273,59.535,142.309,59.607Z" transform="translate(-141.134 -57.053)"/>
      <path id="Path_52492" data-name="Path 52492" class="cls-9" d="M144.731,59.111l-.756.216c-.18-.54-.4-1.079-.576-1.619a1.755,1.755,0,0,0,.252-.108c.18.468.324.935.5,1.4.144-.036.324-.108.468-.144A.389.389,0,0,1,144.731,59.111Z" transform="translate(-142.585 -56.413)"/>
      <path id="Path_52493" data-name="Path 52493" class="cls-9" d="M146.31,56.352a.5.5,0,0,1,.324,0,.483.483,0,0,1,.216.252c.108.324.216.684.36,1.007a.613.613,0,0,1,0,.36.484.484,0,0,1-.252.216.649.649,0,0,1-.36-.036.484.484,0,0,1-.216-.252c-.108-.324-.216-.612-.324-.935a.435.435,0,0,1,.036-.36A.269.269,0,0,1,146.31,56.352Zm.288.36c0-.036-.036-.072-.072-.108h-.108c-.036,0-.072.036-.108.072s-.036.072,0,.144c.108.324.216.648.36.971,0,.036.036.072.072.108a.067.067,0,0,0,.108,0c.036,0,.072-.036.108-.072,0-.036.036-.072,0-.108C146.813,57.359,146.706,57.036,146.6,56.712Z" transform="translate(-144.271 -55.596)"/>
      <path id="Path_52494" data-name="Path 52494" class="cls-9" d="M149.179,54.408c.108-.036.18-.072.288-.108.144.72.288,1.439.432,2.123-.072.036-.18.036-.252.072-.18-.36-.36-.684-.54-1.043.072.36.144.756.216,1.115-.072.036-.18.036-.252.072-.324-.612-.648-1.187-.971-1.763.072-.036.18-.072.252-.108.18.324.324.648.5.971-.072-.36-.144-.72-.252-1.079.108-.036.18-.072.288-.108.18.324.324.684.5,1.007A5.923,5.923,0,0,0,149.179,54.408Z" transform="translate(-145.594 -54.3)"/>
    </g>
    <g id="Group_5112" data-name="Group 5112" transform="translate(50.116 26.767)">
      <path id="Path_52495" data-name="Path 52495" class="cls-9" d="M139.588,76.163a.723.723,0,0,0-.288-.144l.756-1.619.863.324c-.036.072-.072.18-.108.252l-.54-.216c-.072.144-.144.288-.216.468.144.072.252.108.4.18-.036.072-.072.18-.108.252a1.929,1.929,0,0,0-.4-.18A4.1,4.1,0,0,0,139.588,76.163Z" transform="translate(-139.3 -74.4)"/>
      <path id="Path_52496" data-name="Path 52496" class="cls-9" d="M142.5,77.415a.481.481,0,0,1-.252-.288.61.61,0,0,1,0-.36c.216-.468.432-.9.648-1.367.108.036.18.072.288.108l-.648,1.4v.144q0,.054.108.108a.109.109,0,0,0,.144,0c.036,0,.072-.036.108-.072.216-.468.432-.971.684-1.439l.324.108c-.216.5-.468,1.007-.684,1.475a.4.4,0,0,1-.288.252A.718.718,0,0,1,142.5,77.415Z" transform="translate(-141.173 -75.04)"/>
      <path id="Path_52497" data-name="Path 52497" class="cls-9" d="M145.355,78.775l-.755-.432c.288-.648.612-1.3.9-1.943a2.476,2.476,0,0,1,.288.108c-.252.576-.54,1.115-.791,1.691.18.072.324.18.5.252A1.28,1.28,0,0,0,145.355,78.775Z" transform="translate(-142.693 -75.68)"/>
      <path id="Path_52498" data-name="Path 52498" class="cls-9" d="M147.656,79.818l-.755-.432c.324-.684.648-1.4.971-2.087a2.483,2.483,0,0,1,.288.108l-.863,1.835c.18.072.324.18.468.252A1.143,1.143,0,0,1,147.656,79.818Z" transform="translate(-144.166 -76.257)"/>
    </g>
    <g id="Group_5113" data-name="Group 5113" transform="translate(51.412 23.673)">
      <path id="Path_52499" data-name="Path 52499" class="cls-9" d="M143.224,67.679v.791a1,1,0,0,1-.324-.036V66.672a1,1,0,0,0,.324-.036v.791h.4v-.791a1,1,0,0,0,.324-.036v1.943a1,1,0,0,1-.324-.036v-.791A1.349,1.349,0,0,0,143.224,67.679Z" transform="translate(-142.9 -66.312)"/>
      <path id="Path_52500" data-name="Path 52500" class="cls-9" d="M146.6,67.983c-.036.144-.036.324-.072.468a1,1,0,0,1-.324-.036c.108-.648.252-1.3.36-1.979.144,0,.288-.036.432-.036.108.684.252,1.4.36,2.123a1,1,0,0,1-.324-.036c-.036-.18-.036-.324-.072-.468A1.35,1.35,0,0,0,146.6,67.983Zm.18-1.115c-.036.288-.072.54-.108.791h.252A5.158,5.158,0,0,1,146.776,66.868Z" transform="translate(-145.013 -66.184)"/>
      <path id="Path_52501" data-name="Path 52501" class="cls-9" d="M150.663,68.367c-.288-.036-.576-.036-.863-.072V66.136a1,1,0,0,0,.324-.036v1.871a2.722,2.722,0,0,1,.54.036Z" transform="translate(-147.318 -65.992)"/>
      <path id="Path_52502" data-name="Path 52502" class="cls-9" d="M152.724,68.21a1,1,0,0,1-.324-.036v-2.3c.288-.036.612-.036.9-.072v.36c-.18,0-.4.036-.576.036v.648h.432v.36h-.432Z" transform="translate(-148.982 -65.8)"/>
    </g>
    <g id="Group_5114" data-name="Group 5114" transform="translate(34.538 26.875)">
      <path id="Path_52503" data-name="Path 52503" class="cls-8" d="M97.583,79.846c-.072.072-.18.144-.252.216-.468-.791-.9-1.583-1.331-2.339l.863-.324c.072.108.108.216.18.324a3.633,3.633,0,0,0-.54.252c.108.216.252.4.36.612.108-.072.252-.144.36-.216a1.459,1.459,0,0,1,.18.324c-.108.072-.252.144-.36.216A8.754,8.754,0,0,0,97.583,79.846Z" transform="translate(-96 -76.429)"/>
      <path id="Path_52504" data-name="Path 52504" class="cls-8" d="M100.119,78.423a.331.331,0,0,1-.36.072.458.458,0,0,1-.324-.252c-.324-.54-.612-1.079-.935-1.619a2.481,2.481,0,0,0,.288-.108c.288.5.612,1.043.9,1.547l.108.108a.216.216,0,0,0,.144-.036c.036-.036.072-.072.072-.108a.216.216,0,0,0-.036-.144c-.288-.5-.576-.971-.863-1.475l.324-.108c.288.468.54.935.827,1.4a.5.5,0,0,1,.072.4A.524.524,0,0,1,100.119,78.423Z" transform="translate(-97.601 -75.724)"/>
      <path id="Path_52505" data-name="Path 52505" class="cls-8" d="M103.227,77.067c-.216.18-.468.36-.684.54-.324-.612-.684-1.187-1.043-1.8a2.474,2.474,0,0,0,.288-.108c.288.468.54.971.827,1.439a5.266,5.266,0,0,1,.468-.324A2.064,2.064,0,0,1,103.227,77.067Z" transform="translate(-99.521 -75.34)"/>
      <path id="Path_52506" data-name="Path 52506" class="cls-8" d="M105.583,75.815c-.216.18-.468.36-.684.54-.288-.5-.612-1.043-.9-1.547.108-.036.18-.072.288-.108.252.4.468.827.72,1.223a5.26,5.26,0,0,1,.468-.324A.586.586,0,0,0,105.583,75.815Z" transform="translate(-101.122 -74.7)"/>
    </g>
    <g id="Group_5116" data-name="Group 5116" transform="translate(32.883 12.412)">
      <g id="Group_5115" data-name="Group 5115">
        <path id="Path_52507" data-name="Path 52507" class="cls-8" d="M103.093,57.921a11.711,11.711,0,1,1,11.693-11.729,11.723,11.723,0,0,1-11.693,11.729Zm0-23.169a11.441,11.441,0,1,0,11.441,11.441,11.47,11.47,0,0,0-11.441-11.441Z" transform="translate(-91.4 -34.5)"/>
      </g>
    </g>
    <g id="Group_5117" data-name="Group 5117" transform="translate(37.776 14.751)">
      <path id="Path_52508" data-name="Path 52508" class="cls-8" d="M107.878,45.173,105,41.144l.18-.144,2.914,4.029Z" transform="translate(-105 -41)"/>
    </g>
    <g id="Group_5118" data-name="Group 5118" transform="translate(34.61 18.24)">
      <path id="Path_52509" data-name="Path 52509" class="cls-8" d="M100.625,53.542,96.2,50.916l.144-.216,4.425,2.626Z" transform="translate(-96.2 -50.7)"/>
    </g>
    <g id="Group_5119" data-name="Group 5119" transform="translate(33.171 22.702)">
      <path id="Path_52510" data-name="Path 52510" class="cls-8" d="M97.309,63.856l-5.109-.5.036-.252,5.109.5Z" transform="translate(-92.2 -63.1)"/>
    </g>
    <g id="Group_5120" data-name="Group 5120" transform="translate(33.603 25.796)">
      <path id="Path_52511" data-name="Path 52511" class="cls-8" d="M93.508,73.5l-.108-.252L98.221,71.7l.072.216Z" transform="translate(-93.4 -71.7)"/>
    </g>
    <g id="Group_5121" data-name="Group 5121" transform="translate(48.21 14.715)">
      <path id="Path_52512" data-name="Path 52512" class="cls-8" d="M134.216,45.109,134,44.965l2.986-4.065.252.144Z" transform="translate(-134 -40.9)"/>
    </g>
    <g id="Group_5122" data-name="Group 5122" transform="translate(49.9 18.205)">
      <path id="Path_52513" data-name="Path 52513" class="cls-8" d="M138.844,53.478l-.144-.216,4.533-2.662.144.216Z" transform="translate(-138.7 -50.6)"/>
    </g>
    <g id="Group_5123" data-name="Group 5123" transform="translate(50.728 22.702)">
      <path id="Path_52514" data-name="Path 52514" class="cls-8" d="M141,63.856V63.6l5.217-.5.036.252Z" transform="translate(-141 -63.1)"/>
    </g>
    <g id="Group_5124" data-name="Group 5124" transform="translate(50.44 25.76)">
      <path id="Path_52515" data-name="Path 52515" class="cls-8" d="M145.237,73.471,140.2,71.852l.108-.252,5,1.619Z" transform="translate(-140.2 -71.6)"/>
    </g>
    <path id="Path_52516" data-name="Path 52516" class="cls-8" d="M106.2,55.824a6.8,6.8,0,0,0,1.4,4.1l.18-.18a6.445,6.445,0,0,1-1.331-3.922,6.228,6.228,0,0,1,4.137-5.936V49.6A6.525,6.525,0,0,0,106.2,55.824Z" transform="translate(-67.992 -31.755)"/>
    <path id="Path_52517" data-name="Path 52517" class="cls-8" d="M129.2,49.7v.288a6.237,6.237,0,0,1,4.065,5.9,6.594,6.594,0,0,1-1.4,4.029l.18.18A6.644,6.644,0,0,0,129.2,49.7Z" transform="translate(-82.717 -31.819)"/>
    <path id="Path_52518" data-name="Path 52518" d="M115.928,8.479v-.5c-.072,0-.108-.144-.108-.288s.036-.252.108-.288V7.076a.386.386,0,0,0,.036-.4c-.108-.288-.324-.216-.144-.5s-.072-.432-.216-1.079a21.728,21.728,0,0,1,.288-2.842c.072-1.115-.5-1.655-1.079-1.655h0c-.576,0-1.187.54-1.079,1.655.108,1.583.432,2.231.288,2.842-.108.612-.36.792-.216,1.079s-.036.216-.144.5a.342.342,0,0,0,0,.324v.4h0c.072,0,.108.108.108.288,0,.144-.036.288-.108.288h0v.5a15.426,15.426,0,0,0-3.454.612l-.108.252,3.094,13.887h3.346l3.022-14.067A13.705,13.705,0,0,0,115.928,8.479Zm-.108,11.98h-.072l-.792-1.223-.9,1.223h-.036l-1.655-7.951.072-.144a6.835,6.835,0,0,1,1.727-.324l.648,3.13.756-3.13a6.228,6.228,0,0,1,1.907.4Z" transform="translate(-70.489 -0.384)"/>
    <g id="Group_5125" data-name="Group 5125" transform="translate(43.065 13.842)">
      <path id="Path_52519" data-name="Path 52519" class="cls-9" d="M121.1,40.946a.846.846,0,0,1-.216.612.615.615,0,0,1-.935,0,.791.791,0,0,1-.216-.612l-.036-1.619a.846.846,0,0,1,.216-.612.58.58,0,0,1,.468-.216.633.633,0,0,1,.468.216.846.846,0,0,1,.216.612v.216H120.6v-.216c0-.18-.072-.252-.18-.252-.144,0-.216.072-.216.252l.036,1.619c0,.144.072.252.216.252s.18-.072.18-.252v-.468h-.216v-.5h.684Z" transform="translate(-119.7 -38.491)"/>
      <path id="Path_52520" data-name="Path 52520" class="cls-9" d="M125.467,40.966a.708.708,0,0,1-.216.576.5.5,0,0,1-.468.18.633.633,0,0,1-.468-.216.846.846,0,0,1-.216-.612l.036-1.619a.908.908,0,0,1,.216-.612.5.5,0,0,1,.468-.18.633.633,0,0,1,.468.216.7.7,0,0,1,.18.612ZM125,40.93l.036-1.619c0-.18-.072-.252-.18-.252-.144,0-.216.072-.216.252l-.036,1.583c0,.144.072.252.18.252Q125,41.2,125,40.93Z" transform="translate(-122.517 -38.475)"/>
    </g>
    <path id="Path_52521" data-name="Path 52521" class="cls-10" d="M116.264,7.843V7.375c-.072,0-.108-.144-.108-.288s.036-.288.108-.288V6.476a.477.477,0,0,0,.036-.4c-.108-.288-.324-.216-.144-.5.144-.288-.072-.468-.216-1.079a21.734,21.734,0,0,1,.288-2.842C116.3.54,115.725,0,115.149,0h0c-.576,0-1.187.54-1.079,1.655.108,1.583.432,2.231.288,2.842-.108.612-.36.791-.216,1.079s-.036.216-.144.5a.342.342,0,0,0,0,.324v.4h0c.072,0,.108.144.108.288s-.036.288-.108.288h0v.5a15.426,15.426,0,0,0-3.454.612l-.144.252,3.094,13.887h3.346l3.022-14.067A13.3,13.3,0,0,0,116.264,7.843Zm-.108,12.016h-.072l-.792-1.223-.9,1.223h-.036L112.7,11.908l.072-.144a6.835,6.835,0,0,1,1.727-.324l.648,3.13.756-3.13a6.228,6.228,0,0,1,1.907.4Z" transform="translate(-70.681)"/>
    <g id="Group_5129" data-name="Group 5129" transform="translate(35.833 21.263)">
      <g id="Group_5126" data-name="Group 5126" transform="translate(0 2.446)">
        <path id="Path_52522" data-name="Path 52522" class="cls-8" d="M116.869,74.175,108.2,66.26,99.78,74.031l-.18-.216,8.6-7.915.108.072,8.742,8.023Z" transform="translate(-99.6 -65.9)"/>
      </g>
      <g id="Group_5128" data-name="Group 5128" transform="translate(6.764)">
        <path id="Path_52523" data-name="Path 52523" class="cls-11" d="M120.235,65.635a1.8,1.8,0,0,0,1.835-1.727V63.8a1.84,1.84,0,0,1-1.835,1.655A1.812,1.812,0,0,1,118.4,63.8v.108A1.776,1.776,0,0,0,120.235,65.635Z" transform="translate(-118.4 -62.109)"/>
        <path id="Path_52524" data-name="Path 52524" class="cls-12" d="M122.35,62.763c.252-.108.5-.108.576.036.072.108-.108.324-.36.432s-.5.108-.576-.036C121.954,63.051,122.1,62.871,122.35,62.763Z" transform="translate(-120.695 -61.396)"/>
        <path id="Path_52525" data-name="Path 52525" class="cls-13" d="M122,61.4c.144-.072.324-.072.36,0s-.072.18-.216.288c-.144.072-.324.072-.36,0C121.748,61.584,121.82,61.476,122,61.4Z" transform="translate(-120.561 -60.541)"/>
        <path id="Path_52526" data-name="Path 52526" class="cls-14" d="M121.691,60.352c.072-.036.18-.036.18,0,.036.036-.036.108-.108.144s-.18.036-.18,0C121.547,60.46,121.619,60.388,121.691,60.352Z" transform="translate(-120.432 -59.884)"/>
        <g id="Group_5127" data-name="Group 5127" transform="translate(0 0.036)">
          <path id="Path_52527" data-name="Path 52527" class="cls-15" d="M120.235,62.654a1.8,1.8,0,0,0,1.835-1.727,1.776,1.776,0,0,0-1.835-1.727,1.8,1.8,0,0,0-1.835,1.727A1.776,1.776,0,0,0,120.235,62.654Z" transform="translate(-118.4 -59.2)"/>
          <path id="Path_52528" data-name="Path 52528" class="cls-16" d="M120.427,62.71a1.69,1.69,0,0,0,1.727-1.655,1.728,1.728,0,1,0-1.727,1.655Z" transform="translate(-118.592 -59.328)"/>
          <path id="Path_52529" data-name="Path 52529" class="cls-17" d="M120.619,62.794a1.551,1.551,0,1,0,0-3.094,1.549,1.549,0,1,0,0,3.094Z" transform="translate(-118.784 -59.52)"/>
          <path id="Path_52530" data-name="Path 52530" class="cls-18" d="M120.747,62.75a1.5,1.5,0,0,0,1.547-1.475,1.549,1.549,0,0,0-3.094,0A1.545,1.545,0,0,0,120.747,62.75Z" transform="translate(-118.912 -59.584)"/>
          <path id="Path_52531" data-name="Path 52531" class="cls-19" d="M120.939,62.934a1.369,1.369,0,1,0-1.439-1.367A1.406,1.406,0,0,0,120.939,62.934Z" transform="translate(-119.104 -59.84)"/>
          <path id="Path_52532" data-name="Path 52532" class="cls-20" d="M121.131,62.89a1.3,1.3,0,0,0,1.331-1.3,1.332,1.332,0,1,0-1.331,1.3Z" transform="translate(-119.296 -59.904)"/>
          <path id="Path_52533" data-name="Path 52533" class="cls-21" d="M121.323,63.075a1.189,1.189,0,1,0,0-2.375,1.188,1.188,0,1,0,0,2.375Z" transform="translate(-119.488 -60.16)"/>
          <path id="Path_52534" data-name="Path 52534" class="cls-22" d="M121.451,63.159a1.123,1.123,0,0,0,1.151-1.079A1.1,1.1,0,0,0,121.451,61a1.147,1.147,0,0,0-1.151,1.079A1.122,1.122,0,0,0,121.451,63.159Z" transform="translate(-119.616 -60.352)"/>
          <path id="Path_52535" data-name="Path 52535" class="cls-23" d="M121.643,63.215a1.014,1.014,0,0,0,1.043-1.007,1.037,1.037,0,0,0-1.043-1.007,1.014,1.014,0,0,0-1.043,1.007A1.037,1.037,0,0,0,121.643,63.215Z" transform="translate(-119.809 -60.48)"/>
          <path id="Path_52536" data-name="Path 52536" class="cls-24" d="M121.835,63.3a.9.9,0,1,0,0-1.8.9.9,0,1,0,0,1.8Z" transform="translate(-120.001 -60.673)"/>
          <path id="Path_52537" data-name="Path 52537" class="cls-25" d="M121.963,63.255a.828.828,0,1,0-.863-.827A.845.845,0,0,0,121.963,63.255Z" transform="translate(-120.129 -60.737)"/>
          <path id="Path_52538" data-name="Path 52538" class="cls-26" d="M122.156,63.439a.73.73,0,0,0,.756-.72.753.753,0,0,0-.756-.72.73.73,0,0,0-.756.72A.753.753,0,0,0,122.156,63.439Z" transform="translate(-120.321 -60.993)"/>
          <path id="Path_52539" data-name="Path 52539" class="cls-27" d="M122.348,63.459a.638.638,0,0,0,.648-.612.648.648,0,0,0-1.3,0A.638.638,0,0,0,122.348,63.459Z" transform="translate(-120.513 -61.121)"/>
          <path id="Path_52540" data-name="Path 52540" class="cls-28" d="M122.476,63.579a.541.541,0,1,0-.576-.54A.615.615,0,0,0,122.476,63.579Z" transform="translate(-120.641 -61.313)"/>
          <path id="Path_52541" data-name="Path 52541" class="cls-29" d="M122.668,63.663a.433.433,0,1,0,0-.863.471.471,0,0,0-.468.432A.446.446,0,0,0,122.668,63.663Z" transform="translate(-120.833 -61.505)"/>
          <path id="Path_52542" data-name="Path 52542" class="cls-30" d="M122.86,63.62a.34.34,0,0,0,.36-.36.387.387,0,0,0-.36-.36.34.34,0,0,0-.36.36A.361.361,0,0,0,122.86,63.62Z" transform="translate(-121.025 -61.569)"/>
          <path id="Path_52543" data-name="Path 52543" class="cls-31" d="M123.052,63.8a.278.278,0,0,0,.288-.252.257.257,0,0,0-.288-.252.252.252,0,0,0,0,.5Z" transform="translate(-121.217 -61.825)"/>
        </g>
        <path id="Path_52544" data-name="Path 52544" class="cls-32" d="M120.235,59.1a1.8,1.8,0,0,1,1.835,1.727v.108a1.845,1.845,0,0,0-3.67,0v-.108A1.8,1.8,0,0,1,120.235,59.1Z" transform="translate(-118.4 -59.1)"/>
      </g>
    </g>
    <g id="Group_5130" data-name="Group 5130" transform="translate(33.891 19.728)">
      <path id="Path_52545" data-name="Path 52545" class="cls-8" d="M95.171,56.621a.524.524,0,0,1-.216.324.327.327,0,0,1-.252.108h-.18a.58.58,0,0,1-.252-.144.52.52,0,0,1-.072-.252,1,1,0,0,1,.036-.324.847.847,0,0,1,.288.072.384.384,0,0,0,0,.288c.036.072.072.072.108.108a.2.2,0,0,0,.18-.072.187.187,0,0,0,.072-.144c.036-.072,0-.18,0-.288-.036-.072-.072-.18-.144-.36a1.938,1.938,0,0,1-.108-.36,1,1,0,0,1,.036-.324.616.616,0,0,1,.324-.4.282.282,0,0,1,.288.036.368.368,0,0,1,.216.18.511.511,0,0,1,.072.216.612.612,0,0,1-.036.252c-.108,0-.18-.036-.288-.036V55.29q0-.054-.108-.108c-.036-.036-.108,0-.144.036a.187.187,0,0,0-.072.144.733.733,0,0,0,.072.54.608.608,0,0,1,.072.18.847.847,0,0,1,.072.288v.108C95.207,56.477,95.207,56.549,95.171,56.621Z" transform="translate(-94.2 -54.834)"/>
      <path id="Path_52546" data-name="Path 52546" class="cls-8" d="M97.592,57.859c-.252-.036-.5-.108-.791-.144.216-.648.432-1.331.648-2.015a.9.9,0,0,1,.252.144c-.18.54-.36,1.079-.54,1.655.144.036.324.072.5.108A.916.916,0,0,1,97.592,57.859Z" transform="translate(-95.865 -55.389)"/>
      <path id="Path_52547" data-name="Path 52547" class="cls-8" d="M100.457,57.2a.567.567,0,0,1,.252.252.35.35,0,0,1,.036.324c-.108.288-.18.576-.288.863a.484.484,0,0,1-.216.252.412.412,0,0,1-.36.036.4.4,0,0,1-.288-.18.35.35,0,0,1-.036-.324l.324-.971a.38.38,0,0,1,.216-.252A.327.327,0,0,1,100.457,57.2Zm0,.432v-.108c-.036-.036-.036-.072-.108-.072-.036-.036-.072-.036-.144,0a.077.077,0,0,0-.072.072c-.108.324-.216.612-.324.935v.108c.036.036.072.072.108.072h.144c.036-.036.072-.036.072-.072A9.614,9.614,0,0,0,100.457,57.636Z" transform="translate(-97.615 -56.317)"/>
      <path id="Path_52548" data-name="Path 52548" class="cls-8" d="M104.2,58.5c.108.036.18.072.288.108-.216.36-.468.72-.684,1.151-.072-.036-.18-.036-.288-.072.036-.252.036-.5.072-.791-.144.216-.252.468-.4.72-.072,0-.18-.036-.288-.036.036-.5.108-1.043.18-1.583a1.077,1.077,0,0,1,.288.144c-.036.288-.072.54-.108.827.144-.252.252-.468.4-.684a2.121,2.121,0,0,1,.288.144,5.367,5.367,0,0,0-.072.756A2.387,2.387,0,0,1,104.2,58.5Z" transform="translate(-99.77 -56.861)"/>
    </g>
    <g id="Group_5131" data-name="Group 5131" transform="translate(32.451 12.952)">
      <path id="Path_52549" data-name="Path 52549" class="cls-8" d="M97.843,43.8l.144,1.187-1.187.144Z" transform="translate(-94.426 -40.994)"/>
      <path id="Path_52550" data-name="Path 52550" class="cls-8" d="M108.711,36l-.36,1.151-1.151-.4Z" transform="translate(-101.084 -36)"/>
      <path id="Path_52551" data-name="Path 52551" class="cls-8" d="M91.824,55l.684.971-1.007.684Z" transform="translate(-91.032 -48.164)"/>
      <path id="Path_52552" data-name="Path 52552" class="cls-8" d="M90.2,67.6l1.007.684-.684,1.007Z" transform="translate(-90.2 -56.231)"/>
      <path id="Path_52553" data-name="Path 52553" class="cls-8" d="M93.3,81l1.187.144-.144,1.187Z" transform="translate(-92.185 -64.81)"/>
    </g>
    <g id="Group_5132" data-name="Group 5132" transform="translate(49.037 12.88)">
      <path id="Path_52554" data-name="Path 52554" class="cls-8" d="M147.844,43.7l-.144,1.187,1.187.144Z" transform="translate(-143.599 -40.858)"/>
      <path id="Path_52555" data-name="Path 52555" class="cls-8" d="M136.3,35.8l.4,1.151,1.151-.36Z" transform="translate(-136.3 -35.8)"/>
      <path id="Path_52556" data-name="Path 52556" class="cls-8" d="M154.148,54.9l-.648.971.971.684Z" transform="translate(-147.312 -48.028)"/>
      <path id="Path_52557" data-name="Path 52557" class="cls-8" d="M155.807,67.5l-1.007.648.684,1.007Z" transform="translate(-148.144 -56.095)"/>
      <path id="Path_52558" data-name="Path 52558" class="cls-8" d="M152.387,80.9l-1.187.144.144,1.187Z" transform="translate(-145.839 -64.674)"/>
    </g>
    <g id="Group_5136" data-name="Group 5136" transform="translate(43.833 30.904)">
      <g id="Group_5134" data-name="Group 5134" transform="translate(0.168 0.252)">
        <g id="Group_5133" data-name="Group 5133">
          <path id="Path_52559" data-name="Path 52559" class="cls-8" d="M123.092,88.615c-.432,0-.791-.252-.791-.576a.108.108,0,1,1,.216,0c0,.18.216.324.468.36v-.935h-.18a.108.108,0,0,1,0-.216h.18v-.54a.108.108,0,1,1,.216,0v.54h.18a.108.108,0,0,1,0,.216h-.18V88.4c.252-.036.468-.18.468-.36a.108.108,0,1,1,.216,0c0,.324-.324.576-.792.576Z" transform="translate(-122.3 -86.6)"/>
        </g>
      </g>
      <path id="Path_52560" data-name="Path 52560" class="cls-8" d="M124.052,85.9a.252.252,0,1,0,.252.252A.246.246,0,0,0,124.052,85.9Zm0,.4a.144.144,0,1,1,.144-.144A.155.155,0,0,1,124.052,86.3Z" transform="translate(-123.093 -85.9)"/>
      <g id="Group_5135" data-name="Group 5135" transform="translate(0 1.403)">
        <path id="Path_52561" data-name="Path 52561" class="cls-8" d="M123.657,90.16a.132.132,0,0,1-.108-.036l-.072-.108-.108.072c-.036.036-.108,0-.144-.036s0-.108.036-.144l.18-.108h.072a.077.077,0,0,1,.072.072l.108.18c.036.036,0,.108-.036.144.036-.036.036-.036,0-.036Zm-1.727,0h-.036a.089.089,0,0,1-.036-.144l.108-.18h0A.035.035,0,0,1,122,89.8h.072l.18.108c.036.036.072.108.036.144s-.108.072-.144.036l-.108-.072-.072.108c.036.036,0,.036-.036.036Z" transform="translate(-121.834 -89.8)"/>
      </g>
    </g>
    <g id="Group_5137" data-name="Group 5137" transform="translate(38.748 20.435)">
      <path id="Path_52562" data-name="Path 52562" class="cls-8" d="M109.059,68.176h.36l.036.252-1.583.072-.072-.324,1.475-.576.072.252-.324.144Zm-.827.072.612-.036-.036-.18Z" transform="translate(-107.764 -63.714)"/>
      <path id="Path_52563" data-name="Path 52563" class="cls-8" d="M108.6,65.576h.648v.216l-1.547-.036V65.5h.684v-.288h-.648V65l1.547.036v.252h-.648Z" transform="translate(-107.7 -62.05)"/>
      <path id="Path_52564" data-name="Path 52564" class="cls-8" d="M109.411,63.207l-1.511-.36.144-.648.216.072-.108.432.4.108.072-.324.216.036-.072.324.4.108.108-.432.216.072Z" transform="translate(-107.828 -60.257)"/>
      <path id="Path_52565" data-name="Path 52565" class="cls-8" d="M110.015,60.456l.288.216-.108.216-1.3-.9.144-.288,1.511.432-.108.216-.36-.108Zm-.72-.468.5.36.072-.144Z" transform="translate(-108.468 -58.657)"/>
      <path id="Path_52566" data-name="Path 52566" class="cls-8" d="M111.667,57.376a.58.58,0,0,1,.144.252.433.433,0,0,1-.072.288l-.216.288-1.223-.971.216-.288a.364.364,0,0,1,.252-.144.433.433,0,0,1,.288.072Zm-.18.5.108-.108a.132.132,0,0,0,.036-.108.126.126,0,0,0-.036-.072l-.648-.5a.132.132,0,0,0-.108-.036c-.036,0-.072.036-.108.036l-.108.108Z" transform="translate(-109.365 -56.8)"/>
    </g>
    <g id="Group_5138" data-name="Group 5138" transform="translate(47.526 20.255)">
      <path id="Path_52567" data-name="Path 52567" class="cls-9" d="M132.568,57.127l-.288.216-.18-.18,1.331-.863.216.252-.971,1.259-.18-.18.216-.288Zm.72-.5-.5.36.108.144Z" transform="translate(-132.1 -56.3)"/>
      <path id="Path_52568" data-name="Path 52568" class="cls-9" d="M134.749,59.737a.433.433,0,0,1-.288.072.275.275,0,0,1-.18-.072c-.036-.036-.072-.072-.072-.108a.238.238,0,0,1-.036-.216c0-.072.036-.108.072-.18a.359.359,0,0,1,.18-.144l.108.18-.144.144v.108c.036.036.072.072.108.072a.132.132,0,0,0,.108-.036.389.389,0,0,0,.144-.18,1.618,1.618,0,0,1,.072-.288,1.755,1.755,0,0,1,.108-.252c.036-.072.108-.108.144-.144a.436.436,0,0,1,.36-.036.632.632,0,0,1,.18.144.512.512,0,0,1,.072.216c0,.072,0,.108-.036.144s-.072.108-.144.144l-.144-.18.108-.108V58.91c-.036-.036-.036-.072-.108-.072a.132.132,0,0,0-.108.036.359.359,0,0,0-.144.18c0,.036-.036.072-.036.144s-.036.108-.036.144a.511.511,0,0,1-.072.216c0,.036-.036.036-.036.072C134.821,59.7,134.785,59.737,134.749,59.737Z" transform="translate(-133.418 -57.794)"/>
      <path id="Path_52569" data-name="Path 52569" class="cls-9" d="M136.323,61.024l-.072-.252.216-.072.252.684-.216.072-.072-.252-1.259.432-.072-.216Z" transform="translate(-134.021 -59.117)"/>
      <path id="Path_52570" data-name="Path 52570" class="cls-9" d="M135.5,63.816l1.547-.216.108.648-.252.036-.072-.432-.432.072.036.324-.216.036-.036-.324-.432.072.072.432-.252.036Z" transform="translate(-134.277 -60.974)"/>
      <path id="Path_52571" data-name="Path 52571" class="cls-9" d="M137.311,66.668a.354.354,0,0,1-.108.288.52.52,0,0,1-.252.072l-.216-.036a.3.3,0,0,1-.252-.144l-.684.144V66.74l.612-.108v-.18l-.576-.036V66.2l1.547.108Zm-.4.108c.072,0,.144-.036.144-.108v-.144l-.5-.036v.144a.127.127,0,0,0,.144.144Z" transform="translate(-134.469 -62.638)"/>
      <path id="Path_52572" data-name="Path 52572" class="cls-9" d="M136.555,69.32l-1.079-.036,1.007.324-.108.216-1.475-.468.072-.252h1.043l-.971-.288.072-.216,1.475.468Z" transform="translate(-133.893 -64.175)"/>
    </g>
    <g id="Group_5139" data-name="Group 5139" transform="translate(30.639 45.907)">
      <path id="Path_52573" data-name="Path 52573" d="M88.557,138.929a4.255,4.255,0,0,1-3.274-1.3c-.144-.144-.18-.252,0-.468l.648-.684c.18-.144.288-.072.468.072a3.261,3.261,0,0,0,2.123.863c1.259,0,1.979-.576,1.979-1.547,0-1.043-1.043-1.4-2.123-1.8-1.331-.468-2.914-1.151-2.914-3.022a2.961,2.961,0,0,1,3.2-2.95,4.878,4.878,0,0,1,2.914.827c.216.144.144.288.036.468l-.432.72c-.108.18-.288.144-.468.072a4.164,4.164,0,0,0-1.943-.612c-.9,0-1.655.36-1.655,1.511,0,.863,1.043,1.259,1.907,1.547,1.511.576,3.13,1.115,3.13,3.166C92.191,137.778,90.644,138.929,88.557,138.929Z" transform="translate(-85.161 -127.92)"/>
      <path id="Path_52574" data-name="Path 52574" d="M111.146,132.2a1.579,1.579,0,0,0-1.727,1.511v3.778c0,.863.216,1.763,1.727,1.763h.288a1.679,1.679,0,0,0,1.835-1.871V135.8c0-.036,0-.18-.216-.18h-1.8a.191.191,0,0,1-.216-.216v-.971a.232.232,0,0,1,.216-.216h3.562a3.451,3.451,0,0,0,2.015-.612c.072-.036.108-.072.18-.072a.2.2,0,0,1,.18.108l.4.648a.391.391,0,0,1,.036.18.311.311,0,0,1-.108.216,4.022,4.022,0,0,1-2.375.863c-.216.036-.324.072-.324.324v1.475a3.109,3.109,0,0,1-3.418,3.31h-.252c-2.375,0-3.346-1.331-3.346-3.166V133.75a3.016,3.016,0,0,1,3.31-2.95h2.482a.238.238,0,0,1,.252.216v.971a.191.191,0,0,1-.216.216h-2.482Z" transform="translate(-99.655 -129.649)"/>
      <path id="Path_52575" data-name="Path 52575" d="M138.646,134.76h-1.475c-.144,0-.18.072-.18.18v3.886a.227.227,0,0,1-.252.252h-1.151c-.18,0-.288-.072-.288-.252v-10.11c0-.144.108-.216.288-.216h3.058a3.022,3.022,0,0,1,3.238,3.166A3.085,3.085,0,0,1,138.646,134.76Zm0-4.749h-1.439c-.144,0-.216.072-.216.18v2.914c0,.144.036.216.18.216h1.439a1.55,1.55,0,0,0,1.583-1.655A1.516,1.516,0,0,0,138.646,130.011Z" transform="translate(-117.262 -128.176)"/>
      <path id="Path_52576" data-name="Path 52576" d="M159.67,146.2h-3.454a.191.191,0,0,1-.216-.216v-.863a.191.191,0,0,1,.216-.216h3.454c.144,0,.216.072.216.18v.9C159.85,146.123,159.814,146.2,159.67,146.2Z" transform="translate(-130.514 -138.676)"/>
      <path id="Path_52577" data-name="Path 52577" d="M171,136.043v-4.857a2.97,2.97,0,0,1,3.2-2.986,3.512,3.512,0,0,1,3.022,1.4c.108.144.108.252-.072.4l-.756.648a.263.263,0,0,1-.4-.108,2.147,2.147,0,0,0-1.727-.863,1.474,1.474,0,0,0-1.583,1.511v4.857a1.478,1.478,0,0,0,1.619,1.475,2.392,2.392,0,0,0,1.691-.827c.108-.108.216-.288.4-.144l.863.612a.27.27,0,0,1,.072.36,3.565,3.565,0,0,1-3.058,1.511C172.367,138.993,171,137.878,171,136.043Z" transform="translate(-140.118 -127.984)"/>
      <path id="Path_52578" data-name="Path 52578" d="M197.172,138.5h-1.187a.191.191,0,0,1-.216-.216v-4.533a1.37,1.37,0,0,0-1.475-1.511,1.426,1.426,0,0,0-1.475,1.511v4.533a.191.191,0,0,1-.216.216h-1.187a.191.191,0,0,1-.216-.216V127.816a.191.191,0,0,1,.216-.216H192.6a.191.191,0,0,1,.216.216v3.418c0,.144.144.216.288.108a2.76,2.76,0,0,1,1.583-.5,2.591,2.591,0,0,1,2.734,2.878v4.533C197.388,138.465,197.316,138.5,197.172,138.5Z" transform="translate(-153.05 -127.6)"/>
      <path id="Path_52579" data-name="Path 52579" d="M217.628,144.2h-1.115a.17.17,0,0,1-.18-.18v-.252c0-.144-.108-.18-.216-.072a2.871,2.871,0,0,1-1.691.576,2.387,2.387,0,0,1-2.626-2.626,2.527,2.527,0,0,1,2.806-2.626,3.012,3.012,0,0,1,1.4.36c.144.108.252.072.252-.108v-.252c0-.684-.4-1.187-1.4-1.187a5.214,5.214,0,0,0-1.8.4c-.144.072-.252,0-.324-.144l-.324-.756a.227.227,0,0,1,.108-.288,6.3,6.3,0,0,1,2.518-.54c2.051,0,2.806,1.079,2.806,2.806v4.677C217.808,144.163,217.772,144.2,217.628,144.2Zm-2.914-3.957a1.331,1.331,0,0,0-1.439,1.4,1.285,1.285,0,0,0,1.4,1.4,1.4,1.4,0,0,0,.036-2.806Z" transform="translate(-166.239 -133.298)"/>
      <path id="Path_52580" data-name="Path 52580" d="M236.7,138.111c-.036.216-.144.216-.288.216a2.776,2.776,0,0,0-.54-.072c-1.223,0-1.619.791-1.619,1.871v3.922a.191.191,0,0,1-.216.216h-1.187c-.144,0-.252-.072-.252-.216v-7.124a.191.191,0,0,1,.216-.216h1.043a.191.191,0,0,1,.216.216v.684c0,.108.108.18.18.036A2.436,2.436,0,0,1,236.2,136.6a1.4,1.4,0,0,1,.54.072c.216.036.216.144.18.324Z" transform="translate(-179.556 -133.362)"/>
      <path id="Path_52581" data-name="Path 52581" d="M248.813,140.721a4.74,4.74,0,0,1-1.475.18,1.865,1.865,0,0,1-2.123-2.123v-3.993c0-.108-.036-.18-.216-.18h-.648c-.144,0-.252-.072-.252-.216v-.9a.191.191,0,0,1,.216-.216H245a.207.207,0,0,0,.216-.216v-1.367a.232.232,0,0,1,.216-.252l1.115-.252c.216-.036.288.072.288.18v1.727a.189.189,0,0,0,.216.216h1.439a.191.191,0,0,1,.216.216v.935a.191.191,0,0,1-.216.216h-1.475c-.144,0-.216.036-.216.18v3.67c0,.612.18.971.791.971a8.693,8.693,0,0,0,.9-.108c.324-.072.4.036.432.216l.144.827C249.1,140.613,248.993,140.649,248.813,140.721Z" transform="translate(-186.918 -129.892)"/>
      <path id="Path_52582" data-name="Path 52582" d="M265.028,140.845h-3.85a.3.3,0,0,0-.324.324v.288a1.467,1.467,0,0,0,1.475,1.511,1.854,1.854,0,0,0,1.511-.827c.108-.144.216-.18.36-.072l.755.468c.18.108.252.216.18.36a3.036,3.036,0,0,1-2.806,1.475,2.822,2.822,0,0,1-3.13-2.842v-1.943a2.92,2.92,0,0,1,3.094-2.986,2.881,2.881,0,0,1,3.094,2.986v.827A.363.363,0,0,1,265.028,140.845ZM262.33,138a1.36,1.36,0,0,0-1.4,1.475c0,.108,0,.18.216.18h2.446c.144,0,.18-.072.18-.252A1.351,1.351,0,0,0,262.33,138Z" transform="translate(-196.586 -133.362)"/>
      <path id="Path_52583" data-name="Path 52583" d="M283.9,138.111c-.036.216-.144.216-.288.216a2.776,2.776,0,0,0-.54-.072c-1.223,0-1.619.791-1.619,1.871v3.922a.191.191,0,0,1-.216.216h-1.187c-.144,0-.252-.072-.252-.216v-7.124a.191.191,0,0,1,.216-.216h1.043a.191.191,0,0,1,.216.216v.684c0,.108.108.18.18.036A2.436,2.436,0,0,1,283.4,136.6a1.4,1.4,0,0,1,.54.072c.216.036.216.144.18.324Z" transform="translate(-209.774 -133.362)"/>
      <path id="Path_52584" data-name="Path 52584" d="M293.907,130.043a.972.972,0,1,1-.036-1.943.972.972,0,1,1,.036,1.943Zm.576,8.778H293.3a.191.191,0,0,1-.216-.216v-7.123a.191.191,0,0,1,.216-.216h1.187a.191.191,0,0,1,.216.216v7.123C294.7,138.641,294.735,138.821,294.483,138.821Z" transform="translate(-218.161 -127.92)"/>
      <path id="Path_52585" data-name="Path 52585" d="M308.108,144.263h-1.187a.191.191,0,0,1-.216-.216v-4.533A1.37,1.37,0,0,0,305.23,138a1.4,1.4,0,0,0-1.475,1.475v4.533a.191.191,0,0,1-.216.216h-1.187c-.144,0-.252-.072-.252-.216v-7.124a.191.191,0,0,1,.216-.216H303.5c.144,0,.18.036.18.216v.36c0,.18.108.144.216.036a2.846,2.846,0,0,1,1.871-.684c1.763,0,2.554,1.151,2.554,2.878v4.569A.189.189,0,0,1,308.108,144.263Z" transform="translate(-224.051 -133.362)"/>
      <path id="Path_52586" data-name="Path 52586" d="M328.972,137.883a2.39,2.39,0,0,0-.756.036c-.072.036-.252.036-.18.18a2.129,2.129,0,0,1,.252,1.043,2.949,2.949,0,0,1-3.166,2.806h-.4a1.309,1.309,0,0,0-1.043,1.007c0,.072,0,.144.108.108a9.27,9.27,0,0,1,1.763-.216c1.691,0,3.49.612,3.49,2.375a2.521,2.521,0,0,1-1.655,2.195c-.18.072-.36.108-.432-.036l-.432-.72c-.072-.144-.036-.252.144-.36.288-.18.792-.648.792-1.043,0-.756-.792-1.043-1.835-1.043a25.367,25.367,0,0,0-2.662.252c-.288.036-.4-.036-.468-.18a2.141,2.141,0,0,1-.36-1.223,1.953,1.953,0,0,1,1.079-1.547c.108-.036.108-.144,0-.252a2.611,2.611,0,0,1-1.115-2.195,2.948,2.948,0,0,1,3.022-2.77,3.593,3.593,0,0,1,2.015.612c.072.072.144.036.216,0a2.781,2.781,0,0,1,1.619-.576c.216,0,.252.108.252.288v.971C329.224,137.847,329.188,137.919,328.972,137.883Zm-3.742-.036a1.411,1.411,0,0,0-1.511,1.4,1.458,1.458,0,0,0,2.914,0A1.36,1.36,0,0,0,325.23,137.847Z" transform="translate(-236.856 -133.17)"/>
    </g>
  </g>
</svg>
