<svg xmlns="http://www.w3.org/2000/svg" xmlns:xlink="http://www.w3.org/1999/xlink" viewBox="2330 733 255.775 61.926">
  <defs>
    <style>
      .cls-1 {
        fill: #c9b171;
      }

      .cls-2, .cls-7 {
        fill: #fff;
      }

      .cls-11, .cls-12, .cls-13, .cls-14, .cls-15, .cls-16, .cls-17, .cls-18, .cls-19, .cls-20, .cls-21, .cls-22, .cls-23, .cls-24, .cls-25, .cls-26, .cls-27, .cls-28, .cls-29, .cls-3, .cls-30, .cls-31, .cls-32, .cls-4, .cls-5, .cls-7 {
        fill-rule: evenodd;
      }

      .cls-3 {
        fill: url(#linear-gradient);
      }

      .cls-4 {
        fill: url(#linear-gradient-2);
      }

      .cls-5 {
        fill: #2a2523;
      }

      .cls-6 {
        opacity: 0.37;
        fill: url(#linear-gradient-3);
      }

      .cls-8 {
        fill: #cdb273;
      }

      .cls-9 {
        fill: #ce3e2f;
      }

      .cls-10 {
        fill: url(#linear-gradient-4);
      }

      .cls-11 {
        fill: url(#linear-gradient-5);
      }

      .cls-12 {
        fill: url(#linear-gradient-6);
      }

      .cls-13 {
        fill: url(#linear-gradient-7);
      }

      .cls-14 {
        fill: url(#linear-gradient-8);
      }

      .cls-15 {
        fill: url(#linear-gradient-9);
      }

      .cls-16 {
        fill: url(#linear-gradient-10);
      }

      .cls-17 {
        fill: url(#linear-gradient-11);
      }

      .cls-18 {
        fill: url(#linear-gradient-12);
      }

      .cls-19 {
        fill: url(#linear-gradient-13);
      }

      .cls-20 {
        fill: url(#linear-gradient-14);
      }

      .cls-21 {
        fill: url(#linear-gradient-15);
      }

      .cls-22 {
        fill: url(#linear-gradient-16);
      }

      .cls-23 {
        fill: url(#linear-gradient-17);
      }

      .cls-24 {
        fill: url(#linear-gradient-18);
      }

      .cls-25 {
        fill: url(#linear-gradient-19);
      }

      .cls-26 {
        fill: url(#linear-gradient-20);
      }

      .cls-27 {
        fill: url(#linear-gradient-21);
      }

      .cls-28 {
        fill: url(#linear-gradient-22);
      }

      .cls-29 {
        fill: url(#linear-gradient-23);
      }

      .cls-30 {
        fill: url(#linear-gradient-24);
      }

      .cls-31 {
        fill: url(#linear-gradient-25);
      }

      .cls-32 {
        fill: url(#linear-gradient-26);
      }
    </style>
    <linearGradient id="linear-gradient" x1="12.254" y1="-13.409" x2="12.254" y2="-14.407" gradientUnits="objectBoundingBox">
      <stop offset="0" stop-color="#cdb273"/>
      <stop offset="0.184" stop-color="#d1bb87"/>
      <stop offset="0.626" stop-color="#ddd3bf"/>
      <stop offset="0.865" stop-color="#efebe2"/>
      <stop offset="0.939" stop-color="#f7f4ef"/>
      <stop offset="1" stop-color="#fff"/>
    </linearGradient>
    <linearGradient id="linear-gradient-2" x1="0.5" y1="1.008" x2="0.5" y2="0.01" gradientUnits="objectBoundingBox">
      <stop offset="0" stop-color="#baa268"/>
      <stop offset="0.196" stop-color="#c5b181"/>
      <stop offset="0.626" stop-color="#ddd3bf"/>
      <stop offset="0.865" stop-color="#efebe2"/>
      <stop offset="0.939" stop-color="#f7f4ef"/>
      <stop offset="1" stop-color="#e6dcc1"/>
    </linearGradient>
    <linearGradient id="linear-gradient-3" x1="0.5" y1="1.011" x2="0.5" y2="-0.296" gradientUnits="objectBoundingBox">
      <stop offset="0" stop-color="#ba9a5d"/>
      <stop offset="0.13" stop-color="#cca966"/>
      <stop offset="0.89" stop-color="#ba9a5d"/>
      <stop offset="0.94" stop-color="#e5d3a7"/>
      <stop offset="0.98" stop-color="#eeece3"/>
      <stop offset="1" stop-color="#faf7f3"/>
    </linearGradient>
    <linearGradient id="linear-gradient-4" x1="0.504" y1="0" x2="0.504" y2="0.998" xlink:href="#linear-gradient-2"/>
    <linearGradient id="linear-gradient-5" x1="0.005" y1="0.501" x2="1.002" y2="0.501" gradientUnits="objectBoundingBox">
      <stop offset="0" stop-color="#402e25"/>
      <stop offset="0.13" stop-color="#754931"/>
      <stop offset="0.89" stop-color="#cdb273"/>
      <stop offset="0.94" stop-color="#e5d3a7"/>
      <stop offset="0.98" stop-color="#eeece3"/>
      <stop offset="1" stop-color="#faf7f3"/>
    </linearGradient>
    <linearGradient id="linear-gradient-6" x1="0.013" y1="0.458" x2="0.997" y2="0.458" xlink:href="#linear-gradient-5"/>
    <linearGradient id="linear-gradient-7" x1="-0.005" y1="0.472" x2="0.991" y2="0.472" xlink:href="#linear-gradient-5"/>
    <linearGradient id="linear-gradient-8" x1="0.01" y1="0.588" x2="1.067" y2="0.588" xlink:href="#linear-gradient-5"/>
    <linearGradient id="linear-gradient-9" x1="0.005" y1="0.498" x2="1.003" y2="0.498" xlink:href="#linear-gradient-5"/>
    <linearGradient id="linear-gradient-10" x1="0.002" y1="0.498" x2="1.006" y2="0.498" xlink:href="#linear-gradient-5"/>
    <linearGradient id="linear-gradient-11" x1="-0.001" y1="0.497" x2="0.999" y2="0.497" xlink:href="#linear-gradient-5"/>
    <linearGradient id="linear-gradient-12" x1="0.007" y1="0.509" x2="1.002" y2="0.509" xlink:href="#linear-gradient-5"/>
    <linearGradient id="linear-gradient-13" x1="0.004" y1="0.497" x2="1.005" y2="0.497" xlink:href="#linear-gradient-5"/>
    <linearGradient id="linear-gradient-14" x1="0.001" y1="0.511" x2="1.01" y2="0.511" xlink:href="#linear-gradient-5"/>
    <linearGradient id="linear-gradient-15" x1="-0.004" y1="0.496" x2="1" y2="0.496" xlink:href="#linear-gradient-5"/>
    <linearGradient id="linear-gradient-16" x1="0.007" y1="0.496" x2="1.004" y2="0.496" xlink:href="#linear-gradient-5"/>
    <linearGradient id="linear-gradient-17" x1="0.003" y1="0.496" x2="1.009" y2="0.496" xlink:href="#linear-gradient-5"/>
    <linearGradient id="linear-gradient-18" x1="-0.002" y1="0.495" x2="0.996" y2="0.495" xlink:href="#linear-gradient-5"/>
    <linearGradient id="linear-gradient-19" x1="0.012" y1="0.517" x2="1.002" y2="0.517" xlink:href="#linear-gradient-5"/>
    <linearGradient id="linear-gradient-20" x1="0.007" y1="0.494" x2="1.009" y2="0.494" xlink:href="#linear-gradient-5"/>
    <linearGradient id="linear-gradient-21" x1="0" y1="0.507" x2="1.018" y2="0.507" xlink:href="#linear-gradient-5"/>
    <linearGradient id="linear-gradient-22" x1="0.023" y1="0.492" x2="0.998" y2="0.492" xlink:href="#linear-gradient-5"/>
    <linearGradient id="linear-gradient-23" x1="0.017" y1="0.49" x2="1.008" y2="0.49" xlink:href="#linear-gradient-5"/>
    <linearGradient id="linear-gradient-24" x1="0.007" y1="0.538" x2="1.025" y2="0.538" xlink:href="#linear-gradient-5"/>
    <linearGradient id="linear-gradient-25" x1="-0.01" y1="0.482" x2="0.986" y2="0.482" xlink:href="#linear-gradient-5"/>
    <linearGradient id="linear-gradient-26" x1="0.005" y1="0.509" x2="1.002" y2="0.509" xlink:href="#linear-gradient-5"/>
  </defs>
  <g id="Group_3455" data-name="Group 3455" transform="translate(2330 733)">
    <path id="Path_22866" data-name="Path 22866" class="cls-1" d="M26.306,38.746a12.91,12.91,0,0,0-3.108.111.54.54,0,0,0-.444.777,9.082,9.082,0,0,1,.814,3.774c0,6.068-5.291,10.619-11.913,10.619H10.138c-1.7.074-2.96,1.591-3.478,3.108-.111.444.148.555.37.518a36.915,36.915,0,0,1,6.253-.629c6.66,0,13.208,2.146,13.208,8.658,0,3.367-2.849,6.882-6.068,8.362-.814.3-1.665.555-2.109-.074l-1.961-2.96c-.444-.555-.185-1.147.629-1.628.888-.518,2.59-1.961,2.59-3.478,0-2.59-3.663-3.219-6.179-3.219a83.963,83.963,0,0,0-10.1,1,1.813,1.813,0,0,1-2.035-.7A7.484,7.484,0,0,1,0,58.207a7.774,7.774,0,0,1,3.478-5.883c.37-.259.555-.555.111-.962A10.081,10.081,0,0,1,.111,43.408C.111,37.451,5.624,32.9,11.617,32.9a13.4,13.4,0,0,1,7.326,2.146.943.943,0,0,0,1.147,0,9.8,9.8,0,0,1,6.068-2.072c.814,0,1.073.37,1.073,1.073v3.848C27.231,38.561,27.12,38.783,26.306,38.746Zm-14.355.3A4.77,4.77,0,0,0,6.882,43.7a4.5,4.5,0,0,0,4.736,4.551c3.293,0,5.069-2.072,5.069-4.551A4.591,4.591,0,0,0,11.95,39.042Z" transform="translate(0 -20.728)"/>
    <path id="Path_22867" data-name="Path 22867" class="cls-2" d="M187.444,61.759c-4.366,0-9.028-1.406-11.173-5.7-.259-.518-.333-1.073.259-1.406l3.552-1.961c.7-.37,1-.333,1.443.259a7.466,7.466,0,0,0,6.142,3.182c1.7,0,3.737-.962,3.737-2.664,0-1.443-1.073-2.146-2.96-2.849-1.184-.444-2.923-.888-4.477-1.406-4.107-1.406-7.03-3.589-7.03-7.77,0-5.624,4.81-8.547,10.175-8.547a14.831,14.831,0,0,1,9.731,3.4c.444.444.259,1-.074,1.517l-2.035,2.96a1.051,1.051,0,0,1-.7.333,7.653,7.653,0,0,1-1.961-.962,12.511,12.511,0,0,0-5.254-1.443c-1.85,0-3.293.888-3.293,2.479,0,1.147.962,1.961,2.96,2.664,4.921,1.591,11.691,3.145,11.691,9.435C198.174,58.688,193.438,61.759,187.444,61.759Z" transform="translate(-110.932 -20.728)"/>
    <path id="Path_22868" data-name="Path 22868" class="cls-2" d="M268.969,41.391h-4.884c-.7,0-1.073-.333-1.073-.962V23.743c0-2.775-1.517-4.884-4.81-4.884a4.728,4.728,0,0,0-4.884,4.995v16.5a.883.883,0,0,1-1,1H247.4c-.7,0-1-.333-1-.962.074-10.36.074-18.943,0-38.293,0-.7.333-1,.962-1h4.921a.932.932,0,0,1,1,1v11.95c0,.555.37.74,1.073.333a10.69,10.69,0,0,1,5.439-1.517c7.03,0,10.175,4.551,10.175,10.878V40.355A.91.91,0,0,1,268.969,41.391Z" transform="translate(-155.236 -0.693)"/>
    <path id="Path_22869" data-name="Path 22869" class="cls-2" d="M327.007,10.918a4.051,4.051,0,0,1-4.107-4A3.973,3.973,0,0,1,326.933,3a4.013,4.013,0,0,1,4.107,3.922A4.059,4.059,0,0,1,327.007,10.918Zm-3.515,4.625a.888.888,0,0,1,.962-1h4.921a.932.932,0,0,1,1,1V41.589c0,.777-.333,1-.962,1h-4.921a.888.888,0,0,1-1-.962Z" transform="translate(-203.432 -1.89)"/>
    <path id="Path_22870" data-name="Path 22870" class="cls-2" d="M381.368,51.8c0,5.7-3.737,10.36-10.508,10.36a9.356,9.356,0,0,1-5.069-1.369c-.777-.518-1.073-.3-1.073.185V72.037a.913.913,0,0,1-1,1h-4.847c-.7,0-1.073-.333-1.073-.962V34.632a.923.923,0,0,1,1-.962h4.736a.9.9,0,0,1,.962.888v.518c0,.259.185.629.7.259a10.254,10.254,0,0,1,6.142-2.035c6.808,0,10.064,4.662,10.064,10.878V51.8Zm-6.882-7.585a4.552,4.552,0,0,0-4.847-4.884,4.727,4.727,0,0,0-4.884,4.81v7.178a4.713,4.713,0,0,0,4.81,4.921c3.478,0,4.921-2.146,4.921-4.921Z" transform="translate(-225.42 -20.98)"/>
    <path id="Path_22871" data-name="Path 22871" class="cls-2" d="M457.3,51.8c0,5.7-3.737,10.36-10.508,10.36a9.461,9.461,0,0,1-5.069-1.369c-.74-.518-1.073-.3-1.073.185V72.037a.913.913,0,0,1-1,1h-4.884c-.7,0-1.073-.333-1.073-.962V34.632a.923.923,0,0,1,1-.962h4.736a.876.876,0,0,1,.962.888v.518c0,.259.185.629.7.259a10.253,10.253,0,0,1,6.142-2.035c6.808,0,10.064,4.662,10.064,10.878Zm-6.882-7.585a4.552,4.552,0,0,0-4.847-4.884,4.727,4.727,0,0,0-4.884,4.81v7.178a4.713,4.713,0,0,0,4.81,4.921c3.478,0,4.921-2.146,4.921-4.921v-7.1Z" transform="translate(-273.238 -20.98)"/>
    <path id="Path_22872" data-name="Path 22872" class="cls-2" d="M513.107,10.918a4.028,4.028,0,0,1-4.107-4A3.949,3.949,0,0,1,513.033,3a4.013,4.013,0,0,1,4.107,3.922A4.084,4.084,0,0,1,513.107,10.918Zm-3.552,4.625a.888.888,0,0,1,.962-1h4.921a.932.932,0,0,1,1,1V41.589c0,.777-.333,1-.962,1h-4.921a.888.888,0,0,1-1-.962Z" transform="translate(-320.678 -1.89)"/>
    <path id="Path_22873" data-name="Path 22873" class="cls-2" d="M566.606,61.615h-4.921a.888.888,0,0,1-1-.962V44.041c0-2.849-1.443-4.884-4.921-4.884a4.6,4.6,0,0,0-4.81,4.81V60.579c0,.7-.444,1-1.073,1H545a.888.888,0,0,1-1-.962V34.569a.883.883,0,0,1,1-1h4.921c.629,0,.888.259.888.962a3.907,3.907,0,0,0,.074.962c.074.444.37.37.7,0a10.382,10.382,0,0,1,6.438-2.294c6.623,0,9.546,4.44,9.546,10.73V60.616A.888.888,0,0,1,566.606,61.615Z" transform="translate(-342.729 -20.917)"/>
    <path id="Path_22874" data-name="Path 22874" class="cls-2" d="M644.006,38.809a12.91,12.91,0,0,0-3.108.111.54.54,0,0,0-.444.777,9.081,9.081,0,0,1,.814,3.774c0,6.068-5.328,10.619-11.95,10.619H627.8c-1.7.074-2.96,1.591-3.478,3.108-.111.444.148.555.407.518a36.917,36.917,0,0,1,6.253-.629c6.623,0,13.208,2.146,13.208,8.658,0,3.367-2.849,6.882-6.068,8.362-.814.3-1.628.555-2.072-.074l-1.961-2.96c-.444-.555-.185-1.147.629-1.628.888-.518,2.59-1.961,2.59-3.478,0-2.59-3.663-3.219-6.216-3.219a85.454,85.454,0,0,0-10.1,1c-1.221.185-1.665-.185-2.035-.7a7.236,7.236,0,0,1-1.258-4.736,7.668,7.668,0,0,1,3.478-5.883c.37-.259.555-.555.111-.962a10.081,10.081,0,0,1-3.478-7.955c0-5.957,5.513-10.508,11.506-10.508a13.4,13.4,0,0,1,7.326,2.146.943.943,0,0,0,1.147,0,9.871,9.871,0,0,1,6.068-2.072c.814,0,1.073.37,1.073,1.073v3.848C644.968,38.624,644.857,38.846,644.006,38.809Zm-14.318.3a4.77,4.77,0,0,0-5.069,4.662,4.5,4.5,0,0,0,4.736,4.551c3.293,0,5.069-2.072,5.069-4.551A4.613,4.613,0,0,0,629.688,39.1Z" transform="translate(-389.161 -20.791)"/>
    <path id="Path_22875" data-name="Path 22875" class="cls-3" d="M111.89,41.928A16.547,16.547,0,1,0,91.837,53.99,16.6,16.6,0,0,0,111.89,41.928Z" transform="translate(-49.955 -13.477)"/>
    <path id="Path_22876" data-name="Path 22876" class="cls-4" d="M96.279,54.759A16.279,16.279,0,1,0,80,38.479,16.327,16.327,0,0,0,96.279,54.759Z" transform="translate(-50.401 -13.986)"/>
    <g id="Group_3419" data-name="Group 3419" transform="translate(31.856 10.582)">
      <path id="Path_22877" data-name="Path 22877" class="cls-5" d="M100.122,56.645A14.022,14.022,0,1,0,86.1,42.622,14.037,14.037,0,0,0,100.122,56.645Z" transform="translate(-86.1 -28.6)"/>
      <path id="Path_22878" data-name="Path 22878" class="cls-5" d="M100.248,56.8A13.948,13.948,0,1,0,86.3,42.848,13.982,13.982,0,0,0,100.248,56.8Z" transform="translate(-86.226 -28.789)"/>
      <path id="Path_22879" data-name="Path 22879" class="cls-5" d="M100.374,56.723A13.911,13.911,0,1,0,86.5,42.811,13.911,13.911,0,0,0,100.374,56.723Z" transform="translate(-86.352 -28.789)"/>
      <path id="Path_22880" data-name="Path 22880" class="cls-5" d="M100.4,56.875A13.837,13.837,0,1,0,86.6,43.037,13.832,13.832,0,0,0,100.4,56.875Z" transform="translate(-86.415 -28.978)"/>
      <path id="Path_22881" data-name="Path 22881" class="cls-5" d="M100.526,56.964A13.782,13.782,0,1,0,86.8,43.163,13.785,13.785,0,0,0,100.526,56.964Z" transform="translate(-86.541 -29.104)"/>
      <path id="Path_22882" data-name="Path 22882" class="cls-5" d="M100.652,56.953A13.727,13.727,0,1,0,87,43.226,13.73,13.73,0,0,0,100.652,56.953Z" transform="translate(-86.667 -29.167)"/>
      <path id="Path_22883" data-name="Path 22883" class="cls-5" d="M100.778,57.1A13.653,13.653,0,1,0,87.2,43.452,13.651,13.651,0,0,0,100.778,57.1Z" transform="translate(-86.793 -29.356)"/>
      <path id="Path_22884" data-name="Path 22884" class="cls-5" d="M100.9,57.131A13.616,13.616,0,1,0,87.4,43.515,13.58,13.58,0,0,0,100.9,57.131Z" transform="translate(-86.919 -29.419)"/>
      <path id="Path_22885" data-name="Path 22885" class="cls-5" d="M100.93,57.283A13.542,13.542,0,1,0,87.5,43.741,13.5,13.5,0,0,0,100.93,57.283Z" transform="translate(-86.982 -29.608)"/>
      <path id="Path_22886" data-name="Path 22886" class="cls-5" d="M100.993,57.272A13.486,13.486,0,1,0,87.6,43.767,13.454,13.454,0,0,0,100.993,57.272Z" transform="translate(-87.045 -29.671)"/>
      <path id="Path_22887" data-name="Path 22887" class="cls-5" d="M101.119,57.361A13.431,13.431,0,1,0,87.8,43.93,13.375,13.375,0,0,0,101.119,57.361Z" transform="translate(-87.171 -29.797)"/>
      <path id="Path_22888" data-name="Path 22888" class="cls-5" d="M101.245,57.513A13.357,13.357,0,1,0,88,44.119,13.327,13.327,0,0,0,101.245,57.513Z" transform="translate(-87.297 -29.986)"/>
      <path id="Path_22889" data-name="Path 22889" class="cls-5" d="M101.371,57.439A13.32,13.32,0,1,0,88.2,44.119,13.28,13.28,0,0,0,101.371,57.439Z" transform="translate(-87.423 -29.986)"/>
      <path id="Path_22890" data-name="Path 22890" class="cls-5" d="M101.5,57.591A13.246,13.246,0,1,0,88.4,44.345,13.2,13.2,0,0,0,101.5,57.591Z" transform="translate(-87.549 -30.175)"/>
      <path id="Path_22891" data-name="Path 22891" class="cls-5" d="M101.523,57.68A13.191,13.191,0,1,0,88.5,44.471,13.13,13.13,0,0,0,101.523,57.68Z" transform="translate(-87.612 -30.301)"/>
      <path id="Path_22892" data-name="Path 22892" class="cls-5" d="M101.649,57.769A13.136,13.136,0,1,0,88.7,44.634,13.051,13.051,0,0,0,101.649,57.769Z" transform="translate(-87.738 -30.427)"/>
      <path id="Path_22893" data-name="Path 22893" class="cls-5" d="M101.775,57.821A13.062,13.062,0,1,0,88.9,44.76,13,13,0,0,0,101.775,57.821Z" transform="translate(-87.864 -30.553)"/>
      <path id="Path_22894" data-name="Path 22894" class="cls-5" d="M101.9,57.847A13.025,13.025,0,1,0,89.1,44.823,12.926,12.926,0,0,0,101.9,57.847Z" transform="translate(-87.99 -30.616)"/>
      <path id="Path_22895" data-name="Path 22895" class="cls-5" d="M102.064,58A12.951,12.951,0,1,0,89.3,45.049,12.847,12.847,0,0,0,102.064,58Z" transform="translate(-88.116 -30.805)"/>
      <path id="Path_22896" data-name="Path 22896" class="cls-5" d="M102.19,58.051A12.877,12.877,0,1,0,89.5,45.175,12.823,12.823,0,0,0,102.19,58.051Z" transform="translate(-88.242 -30.931)"/>
      <path id="Path_22897" data-name="Path 22897" class="cls-5" d="M102.316,58.077A12.84,12.84,0,1,0,89.7,45.238,12.752,12.752,0,0,0,102.316,58.077Z" transform="translate(-88.368 -30.994)"/>
      <path id="Path_22898" data-name="Path 22898" class="cls-5" d="M102.479,58.229A12.766,12.766,0,1,0,89.9,45.464,12.7,12.7,0,0,0,102.479,58.229Z" transform="translate(-88.494 -31.183)"/>
      <path id="Path_22899" data-name="Path 22899" class="cls-5" d="M102.605,58.218A12.711,12.711,0,1,0,90.1,45.49,12.634,12.634,0,0,0,102.605,58.218Z" transform="translate(-88.62 -31.246)"/>
      <path id="Path_22900" data-name="Path 22900" class="cls-5" d="M102.831,58.307A12.655,12.655,0,1,0,90.4,45.653,12.578,12.578,0,0,0,102.831,58.307Z" transform="translate(-88.809 -31.372)"/>
      <path id="Path_22901" data-name="Path 22901" class="cls-5" d="M102.894,58.459A12.581,12.581,0,1,0,90.5,45.879,12.531,12.531,0,0,0,102.894,58.459Z" transform="translate(-88.872 -31.561)"/>
      <path id="Path_22902" data-name="Path 22902" class="cls-5" d="M103.02,58.385A12.544,12.544,0,1,0,90.7,45.842,12.46,12.46,0,0,0,103.02,58.385Z" transform="translate(-88.998 -31.561)"/>
      <path id="Path_22903" data-name="Path 22903" class="cls-5" d="M103.246,58.537A12.47,12.47,0,1,0,91,46.068,12.357,12.357,0,0,0,103.246,58.537Z" transform="translate(-89.187 -31.75)"/>
      <path id="Path_22904" data-name="Path 22904" class="cls-5" d="M103.309,58.689A12.4,12.4,0,1,0,91.1,46.294,12.333,12.333,0,0,0,103.309,58.689Z" transform="translate(-89.25 -31.939)"/>
      <path id="Path_22905" data-name="Path 22905" class="cls-5" d="M103.535,58.678A12.341,12.341,0,1,0,91.4,46.357,12.262,12.262,0,0,0,103.535,58.678Z" transform="translate(-89.439 -32.002)"/>
      <path id="Path_22906" data-name="Path 22906" class="cls-5" d="M103.6,58.767A12.285,12.285,0,1,0,91.5,46.483,12.215,12.215,0,0,0,103.6,58.767Z" transform="translate(-89.502 -32.128)"/>
      <path id="Path_22907" data-name="Path 22907" class="cls-5" d="M103.724,58.919A12.211,12.211,0,1,0,91.7,46.709,12.136,12.136,0,0,0,103.724,58.919Z" transform="translate(-89.628 -32.317)"/>
      <path id="Path_22908" data-name="Path 22908" class="cls-5" d="M103.95,58.845A12.175,12.175,0,1,0,92,46.709,12.089,12.089,0,0,0,103.95,58.845Z" transform="translate(-89.817 -32.317)"/>
      <path id="Path_22909" data-name="Path 22909" class="cls-5" d="M104.013,59A12.1,12.1,0,1,0,92.1,46.9,12.041,12.041,0,0,0,104.013,59Z" transform="translate(-89.88 -32.506)"/>
    </g>
    <path id="Path_22910" data-name="Path 22910" class="cls-6" d="M124.881,42.3c-12.357,6.808-19.017,17.907-21.681,23.383A16.536,16.536,0,0,0,124.881,42.3Z" transform="translate(-65.018 -26.65)"/>
    <path id="Path_22911" data-name="Path 22911" class="cls-7" d="M102.264,57.666A12.783,12.783,0,1,0,89.5,44.864,12.829,12.829,0,0,0,102.264,57.666Z" transform="translate(-56.386 -20.224)"/>
    <g id="Group_3420" data-name="Group 3420" transform="translate(32.929 11.765)">
      <path id="Path_22912" data-name="Path 22912" class="cls-8" d="M101.912,57.625a12.912,12.912,0,1,1,12.912-12.912,12.924,12.924,0,0,1-12.912,12.912Zm0-25.566a12.653,12.653,0,1,0,12.653,12.653,12.672,12.672,0,0,0-12.653-12.653Z" transform="translate(-89 -31.8)"/>
    </g>
    <path id="Path_22913" data-name="Path 22913" class="cls-5" d="M104.028,58.357A11.728,11.728,0,1,0,92.3,46.628,11.756,11.756,0,0,0,104.028,58.357Z" transform="translate(-58.151 -21.988)"/>
    <g id="Group_3421" data-name="Group 3421" transform="translate(39.685 13.924)">
      <path id="Path_22914" data-name="Path 22914" class="cls-2" d="M108.459,42.022a.827.827,0,0,1,.111.37c0,.074,0,.148-.074.185,0,.037-.037.037-.074.074a.236.236,0,0,1-.222,0,.65.65,0,0,1-.185-.148,1.567,1.567,0,0,1-.185-.259l.148-.111c.074.111.111.185.185.222a.136.136,0,0,0,.111.037c.037-.037.037-.074.037-.148a.28.28,0,0,0-.037-.148.981.981,0,0,0-.185-.222c-.074-.037-.148-.111-.3-.185a.968.968,0,0,1-.444-.444.7.7,0,0,1-.074-.444c.037-.074.074-.148.111-.148a.168.168,0,0,1,.185,0,.2.2,0,0,1,.148.111.472.472,0,0,1,.148.222l-.148.148c-.037-.074-.074-.148-.111-.148a.069.069,0,0,0-.111,0c-.037.037-.037.037-.037.111,0,.037.037.111.037.148a.544.544,0,0,0,.185.222.192.192,0,0,0,.148.074c.074.037.111.074.148.074.074.074.148.111.185.185l.074.074A.373.373,0,0,1,108.459,42.022Z" transform="translate(-107.261 -39.518)"/>
      <path id="Path_22915" data-name="Path 22915" class="cls-2" d="M109.033,40.181l-.185.074-.148-.3.555-.259.148.3-.185.074.814,1.628-.185.074Z" transform="translate(-108.168 -38.936)"/>
      <path id="Path_22916" data-name="Path 22916" class="cls-2" d="M111.24,40.891l.185.481-.185.074-.74-2.035.222-.111,1.147,1.85-.185.074-.259-.407Zm-.407-1.11.3.814.148-.074Z" transform="translate(-109.302 -38.684)"/>
      <path id="Path_22917" data-name="Path 22917" class="cls-2" d="M112.022,38.285l.851,1.184-.629-1.295.185-.074.925,1.961-.185.074-.851-1.11.592,1.258-.185.074-.925-1.924Z" transform="translate(-110.121 -37.928)"/>
      <path id="Path_22918" data-name="Path 22918" class="cls-2" d="M115.058,38.991a.732.732,0,0,1,.074.37.25.25,0,0,1-.148.222l-.259.148-.925-1.924.259-.148a.228.228,0,0,1,.259.037.459.459,0,0,1,.222.3Zm-.3.333.111-.037c.037,0,.037-.037.037-.074a.28.28,0,0,0-.037-.148l-.481-1c-.037-.037-.037-.074-.074-.111a.069.069,0,0,0-.111,0l-.111.037Z" transform="translate(-111.381 -37.634)"/>
      <path id="Path_22919" data-name="Path 22919" class="cls-2" d="M113.325,47.588l-.925-1.924.259-.111a.236.236,0,0,1,.222,0,.493.493,0,0,1,.222.185.809.809,0,0,1,.111.185.609.609,0,0,1,.074.333.136.136,0,0,1-.037.111c.074,0,.111.037.185.111.037.037.074.111.148.185,0,.037.037.074.074.148a.6.6,0,0,1,.111.333v.222c-.037.074-.037.111-.111.148Zm-.37-1.221.074-.037a.147.147,0,0,0,.037-.185c0-.037-.037-.074-.037-.111-.037-.074-.074-.148-.111-.148a.069.069,0,0,0-.111,0l-.074.037Zm.407.851.074-.037c.074-.037.074-.111.037-.222,0-.037-.037-.074-.037-.111a2.189,2.189,0,0,0-.148-.222c-.037-.037-.074-.037-.148-.037l-.074.037Z" transform="translate(-110.499 -42.606)"/>
      <path id="Path_22920" data-name="Path 22920" class="cls-2" d="M114.677,45.695l-.777-1,.185-.111.481.629-.222-.74.185-.074.333,1.258.407.814-.185.074Z" transform="translate(-111.444 -41.897)"/>
    </g>
    <g id="Group_3422" data-name="Group 3422" transform="translate(47.728 13.652)">
      <path id="Path_22921" data-name="Path 22921" class="cls-2" d="M130.548,38.232c-.037-.037-.111-.037-.148-.074.111-.407.222-.851.37-1.258a4.341,4.341,0,0,1,.407.185c0,.074-.037.111-.074.185-.111-.037-.185-.074-.3-.111l-.111.333a.625.625,0,0,0,.185.074c-.037.074-.037.111-.074.185a.625.625,0,0,0-.185-.074A1.264,1.264,0,0,1,130.548,38.232Z" transform="translate(-129.882 -36.9)"/>
      <path id="Path_22922" data-name="Path 22922" class="cls-2" d="M131.748,38.795c-.037-.037-.111-.037-.148-.074.148-.407.259-.814.407-1.221.037.037.111.037.148.074C132.007,37.981,131.859,38.388,131.748,38.795Z" transform="translate(-130.638 -37.278)"/>
      <path id="Path_22923" data-name="Path 22923" class="cls-2" d="M132.666,37.811l-.111.888c.111-.259.185-.555.3-.814.037.037.111.037.148.074-.148.407-.333.814-.481,1.184-.037-.037-.111-.037-.148-.074a7.226,7.226,0,0,0,.074-.851c-.111.259-.185.518-.3.777-.037-.037-.074-.037-.148-.074l.444-1.221C132.555,37.774,132.592,37.811,132.666,37.811Z" transform="translate(-130.89 -37.404)"/>
      <path id="Path_22924" data-name="Path 22924" class="cls-2" d="M133.748,39.758c-.037-.037-.111-.037-.148-.074.148-.407.333-.814.481-1.184a.28.28,0,0,1,.148.074A11.3,11.3,0,0,1,133.748,39.758Z" transform="translate(-131.898 -37.908)"/>
      <path id="Path_22925" data-name="Path 22925" class="cls-2" d="M134.918,39.91a.369.369,0,0,1-.148.185c-.037.037-.074.037-.148.037-.037,0-.037,0-.074-.037q-.111-.055-.111-.111c0-.037-.037-.074-.037-.148a.334.334,0,0,1,.037-.185c.037,0,.111.037.148.037a.4.4,0,0,0-.037.185.036.036,0,0,0,.037.037.136.136,0,0,0,.111-.037.129.129,0,0,0,.037-.074.165.165,0,0,0,0-.185,1.454,1.454,0,0,0-.074-.222.4.4,0,0,1-.037-.185.333.333,0,0,1,.037-.185.379.379,0,0,1,.185-.222h.148c.074.037.111.037.111.111,0,.037.037.074.037.111a.222.222,0,0,1-.037.148c-.037,0-.111-.037-.148-.037,0-.037.037-.111,0-.148,0-.037-.037-.037-.037-.074-.037,0-.074,0-.074.037-.037,0-.037.037-.074.074a.168.168,0,0,0,0,.185.136.136,0,0,0,.037.111.136.136,0,0,1,.037.111c0,.074.037.111,0,.148v.074C134.955,39.836,134.918,39.873,134.918,39.91Z" transform="translate(-132.402 -38.097)"/>
      <path id="Path_22926" data-name="Path 22926" class="cls-2" d="M135.97,40.14c-.074.148-.148.333-.222.481-.037,0-.111-.037-.148-.037.185-.407.37-.777.518-1.184.037.037.111.037.148.074-.074.148-.148.333-.222.481.074.037.111.037.185.074.074-.148.148-.333.222-.481.037.037.111.037.148.074-.185.37-.37.777-.555,1.147-.037-.037-.111-.037-.148-.074.074-.148.148-.333.222-.481C136.081,40.214,136.044,40.177,135.97,40.14Z" transform="translate(-133.158 -38.475)"/>
      <path id="Path_22927" data-name="Path 22927" class="cls-2" d="M137,41.247c.185-.37.407-.777.555-1.147.148.074.3.111.444.185-.037.074-.074.111-.074.185-.074-.037-.185-.074-.259-.111a1.315,1.315,0,0,0-.148.333c.074.037.111.074.185.074-.037.074-.074.111-.074.185a.625.625,0,0,0-.185-.074,2.2,2.2,0,0,1-.148.3c.074.037.185.074.259.111-.037.074-.074.111-.111.185A4.94,4.94,0,0,0,137,41.247Z" transform="translate(-134.04 -38.916)"/>
      <path id="Path_22928" data-name="Path 22928" class="cls-2" d="M138.792,41.61a.246.246,0,0,1-.185.148.165.165,0,0,1-.185,0l-.222-.111a11.152,11.152,0,0,0,.592-1.147l.222.111c.074.037.111.074.111.148a.245.245,0,0,1-.037.222A2.484,2.484,0,0,1,138.792,41.61Zm-.37-.037a.129.129,0,0,1,.074.037h.074c.037,0,.037-.037.074-.074.111-.185.222-.407.333-.592V40.87c0-.037-.037-.037-.037-.074a.129.129,0,0,1-.074-.037C138.718,41.055,138.57,41.314,138.422,41.573Z" transform="translate(-134.796 -39.168)"/>
      <path id="Path_22929" data-name="Path 22929" class="cls-2" d="M132.314,41.822c.037.037.111.037.148.074-.222.37-.407.777-.629,1.147-.037,0-.074-.037-.111-.037.074-.222.111-.481.185-.7a4.814,4.814,0,0,0-.3.629c-.037,0-.074-.037-.111-.037.111-.444.185-.851.259-1.295.037.037.111.037.148.074-.037.222-.111.444-.148.666.111-.222.185-.407.3-.629.037.037.111.037.148.074a4.475,4.475,0,0,1-.185.666C132.092,42.266,132.2,42.044,132.314,41.822Z" transform="translate(-130.575 -39.861)"/>
      <path id="Path_22930" data-name="Path 22930" class="cls-2" d="M133.111,43.658c-.037-.037-.074-.037-.111-.074.148-.407.333-.777.481-1.184.037.037.111.037.148.074C133.444,42.881,133.259,43.288,133.111,43.658Z" transform="translate(-131.52 -40.365)"/>
      <path id="Path_22931" data-name="Path 22931" class="cls-2" d="M134.307,42.959c-.037-.037-.111-.037-.148-.074.037-.074.037-.111.074-.185.148.074.3.111.444.185-.037.074-.074.111-.074.185-.037-.037-.111-.037-.148-.074l-.444,1c-.037,0-.074-.037-.111-.037C134.011,43.625,134.159,43.292,134.307,42.959Z" transform="translate(-132.087 -40.554)"/>
      <path id="Path_22932" data-name="Path 22932" class="cls-2" d="M134.97,44a3.056,3.056,0,0,1-.259.481c-.037,0-.074-.037-.111-.037.185-.407.37-.777.555-1.147.037.037.111.037.148.074a3.059,3.059,0,0,1-.259.481c.074.037.111.037.148.074.074-.148.185-.333.259-.481.037.037.074.037.148.074-.185.37-.407.777-.629,1.147-.037-.037-.074-.037-.111-.074a3.059,3.059,0,0,1,.259-.481C135.081,44.077,135.007,44.04,134.97,44Z" transform="translate(-132.528 -40.932)"/>
      <path id="Path_22933" data-name="Path 22933" class="cls-2" d="M129,46.121c.148-.407.259-.814.407-1.221.111.037.222.111.333.148,0,.074-.037.111-.074.185l-.222-.111-.111.333c.037.037.111.037.148.074-.037.074-.037.111-.074.185-.037-.037-.111-.037-.148-.074l-.111.333a.526.526,0,0,0,.222.074c-.037.074-.037.111-.074.185A.42.42,0,0,1,129,46.121Z" transform="translate(-129 -41.94)"/>
      <path id="Path_22934" data-name="Path 22934" class="cls-2" d="M130.492,45.437c-.037.3-.111.592-.148.888a7.2,7.2,0,0,0,.3-.814c.037,0,.074.037.111.074a11.3,11.3,0,0,1-.481,1.184c-.037,0-.074-.037-.111-.037.037-.3.111-.555.148-.851-.111.259-.185.518-.3.777-.037,0-.074-.037-.111-.037l.444-1.221A.28.28,0,0,1,130.492,45.437Z" transform="translate(-129.567 -42.255)"/>
      <path id="Path_22935" data-name="Path 22935" class="cls-2" d="M131.374,47.258c-.037,0-.074-.074-.074-.148a.469.469,0,0,1,.037-.222c.074-.222.185-.444.259-.666a.369.369,0,0,1,.148-.185.277.277,0,0,1,.185-.037c.037,0,.074.074.111.148a.245.245,0,0,1-.037.222c-.037.037-.037.111-.074.148-.037,0-.074-.037-.111-.037.037-.037.037-.111.074-.148v-.074c0-.037,0-.037-.037-.037h-.074c-.037,0-.037.037-.037.074-.074.222-.185.444-.259.666v.074c0,.037,0,.037.037.037h.074c.037,0,.037-.037.037-.074l.111-.222c-.037,0-.037,0-.074-.037.037-.074.037-.111.074-.185.074.037.111.037.185.074-.074.148-.111.259-.185.407a.369.369,0,0,1-.148.185C131.485,47.258,131.448,47.295,131.374,47.258Z" transform="translate(-130.449 -42.633)"/>
      <path id="Path_22936" data-name="Path 22936" class="cls-2" d="M132.311,47.621c-.037,0-.074-.037-.111-.037.185-.407.333-.777.518-1.184.037,0,.074.037.111.037C132.644,46.844,132.459,47.251,132.311,47.621Z" transform="translate(-131.016 -42.885)"/>
      <path id="Path_22937" data-name="Path 22937" class="cls-2" d="M133.366,46.674c-.074.3-.148.555-.222.851a7.831,7.831,0,0,1,.407-.777c.037,0,.074.037.111.037-.185.37-.407.777-.592,1.147-.037,0-.074-.037-.111-.037a6.441,6.441,0,0,0,.185-.814c-.111.259-.222.481-.333.74-.037,0-.074-.037-.111-.037.185-.407.37-.777.555-1.184C133.255,46.637,133.292,46.674,133.366,46.674Z" transform="translate(-131.331 -43.011)"/>
      <path id="Path_22938" data-name="Path 22938" class="cls-2" d="M133.8,48.347c.185-.37.37-.777.592-1.147a3.84,3.84,0,0,0,.37.148c-.037.074-.074.111-.111.185l-.222-.111a2.181,2.181,0,0,0-.148.3c.037.037.111.037.148.074a.283.283,0,0,0-.074.185c-.037-.037-.111-.037-.148-.074a1.314,1.314,0,0,0-.148.333c.074.037.148.037.222.074-.037.074-.074.111-.074.185A2.441,2.441,0,0,1,133.8,48.347Z" transform="translate(-132.024 -43.389)"/>
    </g>
    <g id="Group_3423" data-name="Group 3423" transform="translate(50.355 16.057)">
      <path id="Path_22939" data-name="Path 22939" class="cls-9" d="M137.358,50.2a.312.312,0,0,1,.074.259.375.375,0,0,1-.148.259c-.111.074-.185.185-.3.259-.3-.333-.592-.7-.888-1.036.074-.111.185-.185.259-.3a.6.6,0,0,1,.259-.148.224.224,0,0,1,.222.111A3.96,3.96,0,0,1,137.358,50.2Zm-.3.444.111-.111a.185.185,0,0,0,0-.222c-.148-.185-.333-.37-.481-.555-.037-.037-.037-.037-.074-.037a.136.136,0,0,0-.111.037l-.111.111A7.242,7.242,0,0,0,137.062,50.647Z" transform="translate(-136.1 -47.243)"/>
      <path id="Path_22940" data-name="Path 22940" class="cls-9" d="M138.962,48.865c-.333-.37-.666-.74-.962-1.11.148-.185.333-.37.481-.555.037.074.111.111.148.185l-.333.333a1.853,1.853,0,0,1,.259.3l.259-.259c.037.074.111.111.148.185l-.259.259a2.115,2.115,0,0,0,.259.3l.333-.333a.65.65,0,0,1,.148.185A3.072,3.072,0,0,1,138.962,48.865Z" transform="translate(-137.297 -45.794)"/>
      <path id="Path_22941" data-name="Path 22941" class="cls-9" d="M140.951,46.747a1.5,1.5,0,0,1,.185.333c-.074.074-.148.111-.185.185-.3-.444-.555-.925-.851-1.406.074-.074.148-.185.222-.259.444.333.851.7,1.295,1.036-.074.074-.148.111-.185.185a1.853,1.853,0,0,1-.3-.259Zm-.481-.777c.111.185.259.37.37.555.037-.037.111-.074.148-.148A2.794,2.794,0,0,1,140.47,45.97Z" transform="translate(-138.62 -44.786)"/>
      <path id="Path_22942" data-name="Path 22942" class="cls-9" d="M143.043,44.251a.45.45,0,0,1,0,.592,2.114,2.114,0,0,0-.3.259c-.37-.444-.74-.851-1.147-1.295.074-.111.185-.185.259-.3a.336.336,0,0,1,.259-.111.382.382,0,0,1,.3.148C142.636,43.77,142.858,44.029,143.043,44.251Zm-.3.481.111-.111a.185.185,0,0,0,0-.222c-.222-.222-.407-.481-.629-.7a.185.185,0,0,0-.222,0l-.111.111C142.229,44.14,142.488,44.436,142.747,44.732Z" transform="translate(-139.565 -43.4)"/>
      <path id="Path_22943" data-name="Path 22943" class="cls-9" d="M140.259,53.266a.336.336,0,0,1,.111.259c0,.074-.037.111-.074.185-.037.037-.074.074-.111.074-.074.074-.185.074-.259.111a.277.277,0,0,1-.185-.037c-.074-.037-.111-.074-.185-.111.074-.037.111-.111.185-.148.074.037.111.074.185.074a.136.136,0,0,0,.111-.037c.037-.037.074-.074.074-.111s0-.074-.037-.074a.283.283,0,0,0-.185-.074h-.3a.549.549,0,0,1-.259-.037c-.074-.037-.111-.074-.185-.111a.355.355,0,0,1-.074-.333.369.369,0,0,1,.148-.185.32.32,0,0,1,.222-.111h.185a.192.192,0,0,1,.148.074c-.037.074-.111.111-.148.185a.28.28,0,0,0-.148-.074.136.136,0,0,0-.111.037c-.037.037-.074.074-.037.111a.136.136,0,0,0,.037.111.313.313,0,0,0,.222.074h.3a.469.469,0,0,1,.222.037c.037,0,.037,0,.074.037A.08.08,0,0,1,140.259,53.266Z" transform="translate(-137.965 -49.196)"/>
      <path id="Path_22944" data-name="Path 22944" class="cls-9" d="M142.217,52.451c-.185.148-.37.259-.555.407-.333-.37-.666-.74-.962-1.11.074-.074.148-.111.185-.148.3.333.555.629.851.962a3.2,3.2,0,0,1,.37-.259C142.106,52.34,142.143,52.377,142.217,52.451Z" transform="translate(-138.998 -48.566)"/>
      <path id="Path_22945" data-name="Path 22945" class="cls-9" d="M142.686,49.611a.42.42,0,0,1,.3-.111.336.336,0,0,1,.259.111c.185.222.407.444.592.666a.288.288,0,0,1,.074.3.375.375,0,0,1-.148.259.4.4,0,0,1-.3.074.375.375,0,0,1-.259-.148c-.185-.222-.37-.407-.555-.629a.288.288,0,0,1-.074-.3A.407.407,0,0,1,142.686,49.611Zm.37.222c-.037-.037-.037-.037-.111-.037a.158.158,0,0,0-.111.259l.555.666c.037.037.037.037.111.037a.136.136,0,0,0,.111-.037c.037-.037.037-.074.074-.111a.136.136,0,0,0-.037-.111C143.426,50.277,143.241,50.055,143.056,49.833Z" transform="translate(-140.17 -47.243)"/>
      <path id="Path_22946" data-name="Path 22946" class="cls-9" d="M144.677,46.885c.074-.074.148-.111.185-.185.333.518.666,1.036.962,1.517a.807.807,0,0,0-.185.148c-.259-.222-.518-.444-.74-.629.185.259.333.518.518.814a.369.369,0,0,0-.185.148c-.444-.37-.888-.74-1.332-1.073.074-.074.148-.111.185-.185.222.185.481.407.7.592-.185-.259-.333-.518-.518-.777a.446.446,0,0,0,.185-.185c.222.222.481.407.74.629A6.082,6.082,0,0,0,144.677,46.885Z" transform="translate(-141.014 -45.479)"/>
    </g>
    <g id="Group_3424" data-name="Group 3424" transform="translate(36.48 15.983)">
      <path id="Path_22947" data-name="Path 22947" class="cls-2" d="M102.388,44.754a.744.744,0,0,1-.3.148.42.42,0,0,1-.3-.111,2.116,2.116,0,0,0-.3-.259l1.221-1.332c.074.111.185.185.259.3a.45.45,0,0,1,0,.592C102.795,44.31,102.61,44.532,102.388,44.754Zm-.481-.259.111.111a.136.136,0,0,0,.111.037c.037,0,.074-.037.111-.037.222-.222.407-.444.629-.666a.185.185,0,0,0,0-.222l-.111-.111A6.485,6.485,0,0,0,101.907,44.495Z" transform="translate(-100.427 -43.2)"/>
      <path id="Path_22948" data-name="Path 22948" class="cls-2" d="M103.6,46.458c.407-.407.777-.814,1.184-1.258a6.432,6.432,0,0,0,.481.555l-.185.185a1.448,1.448,0,0,1-.3-.37l-.333.333a1.609,1.609,0,0,1,.222.259.65.65,0,0,0-.148.185,1.61,1.61,0,0,1-.222-.259,2.394,2.394,0,0,0-.3.333l.333.333c-.037.074-.111.111-.185.185A3.454,3.454,0,0,1,103.6,46.458Z" transform="translate(-101.75 -44.46)"/>
      <path id="Path_22949" data-name="Path 22949" class="cls-2" d="M105.881,48.688c-.111.074-.185.148-.3.222l-.185-.185c.444-.333.851-.629,1.258-.925.074.111.148.185.222.3-.3.444-.555.888-.814,1.295l-.185-.185c.074-.111.111-.185.185-.3C105.992,48.8,105.918,48.762,105.881,48.688Zm.629-.518c-.148.111-.333.259-.481.37a.511.511,0,0,1,.111.148A2.627,2.627,0,0,0,106.51,48.17Z" transform="translate(-102.884 -46.098)"/>
      <path id="Path_22950" data-name="Path 22950" class="cls-2" d="M108.377,50.969c-.037.074-.148.074-.222.074a.374.374,0,0,1-.259-.148c-.111-.074-.185-.185-.3-.259.333-.333.629-.666.962-1.036l.222.333a.492.492,0,0,1,.111.3.312.312,0,0,1-.074.259A5.687,5.687,0,0,1,108.377,50.969Zm-.444-.3.111.111c.037.037.074.037.111.074.037,0,.074,0,.074-.037a5.894,5.894,0,0,1,.481-.481.185.185,0,0,0,0-.222c-.037-.037-.074-.074-.074-.111A4.033,4.033,0,0,0,107.933,50.673Z" transform="translate(-104.27 -47.232)"/>
      <path id="Path_22951" data-name="Path 22951" class="cls-2" d="M99.377,48.716a.806.806,0,0,1-.3.185h-.222c-.037,0-.074-.037-.111-.074A.774.774,0,0,1,98.6,48.6v-.222a.774.774,0,0,1,.148-.222.807.807,0,0,1,.185.148.32.32,0,0,0-.111.222c0,.037.037.074.037.111a.113.113,0,0,0,.148,0c.037,0,.074-.037.111-.074a.313.313,0,0,0,.074-.222v-.3a.721.721,0,0,1,.037-.3.774.774,0,0,1,.148-.222.378.378,0,0,1,.37-.148.392.392,0,0,1,.333.333V47.9c0,.074-.037.111-.111.185l-.222-.111c.037-.074.074-.111.074-.148a.131.131,0,0,0-.148-.148c-.037,0-.074.037-.111.074a.336.336,0,0,0-.111.259v.518c0,.037,0,.074-.037.074C99.414,48.642,99.377,48.679,99.377,48.716Z" transform="translate(-98.6 -45.83)"/>
      <path id="Path_22952" data-name="Path 22952" class="cls-2" d="M100.655,50.365c-.185-.148-.37-.259-.555-.407.407-.407.777-.814,1.184-1.258l.185.185c-.333.333-.666.7-1,1.036.111.074.222.185.333.259C100.766,50.217,100.729,50.291,100.655,50.365Z" transform="translate(-99.545 -46.665)"/>
      <path id="Path_22953" data-name="Path 22953" class="cls-2" d="M103.521,50.611a.927.927,0,0,1,.148.259.535.535,0,0,1-.074.259c-.185.185-.37.407-.555.592a.336.336,0,0,1-.259.111,1.08,1.08,0,0,1-.333-.074.279.279,0,0,1-.148-.259.336.336,0,0,1,.111-.259c.185-.222.407-.444.592-.629a.336.336,0,0,1,.259-.111A.4.4,0,0,1,103.521,50.611Zm-.148.37a.115.115,0,0,0,.037-.074.158.158,0,0,0-.259-.111c-.185.222-.407.407-.592.629a.136.136,0,0,0-.037.111.08.08,0,0,0,.074.074.185.185,0,0,0,.222,0C103,51.388,103.188,51.166,103.373,50.981Z" transform="translate(-100.931 -47.799)"/>
      <path id="Path_22954" data-name="Path 22954" class="cls-2" d="M105.954,52.34l.185.185c-.333.222-.7.481-1.073.777a.774.774,0,0,1-.222-.148,6.025,6.025,0,0,1,.407-.629,7.114,7.114,0,0,0-.629.481.774.774,0,0,1-.222-.148c.259-.407.518-.814.777-1.258.074.074.148.111.185.185-.148.222-.3.444-.407.629.222-.148.407-.333.592-.481.074.074.148.111.185.185-.111.222-.259.407-.37.592A1.988,1.988,0,0,0,105.954,52.34Z" transform="translate(-102.254 -48.492)"/>
    </g>
    <path id="Path_22955" data-name="Path 22955" class="cls-2" d="M112.959,59.718a3.814,3.814,0,1,1,7.622,0,4.013,4.013,0,0,1-.851,2.479l.185.185a4.235,4.235,0,0,0,.925-2.664,4.072,4.072,0,1,0-8.14,0,4.517,4.517,0,0,0,.851,2.59l.185-.185A3.977,3.977,0,0,1,112.959,59.718Z" transform="translate(-71.003 -34.966)"/>
    <g id="Group_3425" data-name="Group 3425" transform="translate(34.889 24.197)">
      <path id="Path_22956" data-name="Path 22956" class="cls-2" d="M94.67,66.917a10.4,10.4,0,0,1,.037,1.073c-.111.037-.185.037-.3.074L94.3,65.4c.111,0,.185.037.3.037,0,.37.037.74.037,1.073H95c0-.333-.037-.666-.037-1.036.111,0,.185.037.3.037.037.777.074,1.517.111,2.294-.111.037-.185.037-.3.074a9.353,9.353,0,0,1-.037-1.036A1.628,1.628,0,0,1,94.67,66.917Z" transform="translate(-94.3 -65.4)"/>
      <path id="Path_22957" data-name="Path 22957" class="cls-2" d="M97.933,67.628a2.11,2.11,0,0,0-.037.481c-.111.037-.222.037-.3.074.074-.777.148-1.517.259-2.183.148.037.3.037.407.074.148.666.259,1.295.407,1.887-.111.037-.222.037-.333.074l-.111-.444A.92.92,0,0,0,97.933,67.628Zm.111-1.147c-.037.259-.037.555-.074.814h.222A7.653,7.653,0,0,0,98.044,66.481Z" transform="translate(-96.379 -65.778)"/>
      <path id="Path_22958" data-name="Path 22958" class="cls-2" d="M101.488,67.891c-.259.074-.555.111-.814.185-.037-.592-.037-1.184-.074-1.776a.815.815,0,0,0,.3.037c.037.481.037.962.074,1.406a2.5,2.5,0,0,1,.518-.074Q101.488,67.78,101.488,67.891Z" transform="translate(-98.269 -65.967)"/>
      <path id="Path_22959" data-name="Path 22959" class="cls-2" d="M103.47,68.069c-.111.037-.185.037-.3.074-.037-.481-.037-.962-.074-1.443l.888.111V67a2.8,2.8,0,0,0-.555-.037v.37h.407v.185c-.148,0-.259.037-.407.037A2.621,2.621,0,0,0,103.47,68.069Z" transform="translate(-99.844 -66.219)"/>
    </g>
    <g id="Group_3426" data-name="Group 3426" transform="translate(52.217 20.09)">
      <path id="Path_22960" data-name="Path 22960" class="cls-9" d="M142.343,59.636a.513.513,0,0,1,0,.333.65.65,0,0,1-.148.185c-.037.037-.074.037-.148.074a.405.405,0,0,1-.3,0,.809.809,0,0,1-.185-.111.649.649,0,0,1-.148-.185c.074-.037.185-.074.259-.111a.807.807,0,0,0,.148.185c.037.037.074.037.148,0s.111-.074.111-.111v-.111a.26.26,0,0,0-.185-.148,1.72,1.72,0,0,0-.333-.111c-.111-.037-.222-.074-.259-.148a.369.369,0,0,1-.148-.185.424.424,0,0,1,.037-.37.379.379,0,0,1,.222-.185.722.722,0,0,1,.259-.037c.074,0,.111.037.185.074.037.037.111.111.111.148a1.609,1.609,0,0,1-.259.148.511.511,0,0,0-.111-.148h-.111l-.111.111v.148a.436.436,0,0,0,.185.185c.037,0,.074.037.148.074a.369.369,0,0,0,.148.037l.222.111.074.074C142.269,59.525,142.306,59.562,142.343,59.636Z" transform="translate(-141.134 -57.009)"/>
      <path id="Path_22961" data-name="Path 22961" class="cls-9" d="M144.769,59.154l-.777.222c-.185-.555-.407-1.11-.592-1.665a1.8,1.8,0,0,0,.259-.111c.185.481.333.962.518,1.443.148-.037.333-.111.481-.148A.4.4,0,0,1,144.769,59.154Z" transform="translate(-142.562 -56.379)"/>
      <path id="Path_22962" data-name="Path 22962" class="cls-9" d="M146.318,56.353a.513.513,0,0,1,.333,0,.5.5,0,0,1,.222.259c.111.333.222.7.37,1.036a.63.63,0,0,1,0,.37.5.5,0,0,1-.259.222.667.667,0,0,1-.37-.037.5.5,0,0,1-.222-.259c-.111-.333-.222-.629-.333-.962a.448.448,0,0,1,.037-.37A.277.277,0,0,1,146.318,56.353Zm.3.37c0-.037-.037-.074-.074-.111h-.111c-.037,0-.074.037-.111.074s-.037.074,0,.148c.111.333.222.666.37,1,0,.037.037.074.074.111a.069.069,0,0,0,.111,0c.037,0,.074-.037.111-.074,0-.037.037-.074,0-.111C146.836,57.389,146.725,57.056,146.614,56.723Z" transform="translate(-144.221 -55.576)"/>
      <path id="Path_22963" data-name="Path 22963" class="cls-9" d="M149.21,54.411c.111-.037.185-.074.3-.111.148.74.3,1.48.444,2.183-.074.037-.185.037-.259.074-.185-.37-.37-.7-.555-1.073.074.37.148.777.222,1.147-.074.037-.185.037-.259.074-.333-.629-.666-1.221-1-1.813.074-.037.185-.074.259-.111.185.333.333.666.518,1-.074-.37-.148-.74-.259-1.11.111-.037.185-.074.3-.111.185.333.333.7.518,1.036A6.094,6.094,0,0,0,149.21,54.411Z" transform="translate(-145.523 -54.3)"/>
    </g>
    <g id="Group_3427" data-name="Group 3427" transform="translate(51.539 27.527)">
      <path id="Path_22964" data-name="Path 22964" class="cls-9" d="M139.6,76.213a.744.744,0,0,0-.3-.148l.777-1.665.888.333c-.037.074-.074.185-.111.259l-.555-.222c-.074.148-.148.3-.222.481.148.074.259.111.407.185-.037.074-.074.185-.111.259a1.983,1.983,0,0,0-.407-.185A4.218,4.218,0,0,0,139.6,76.213Z" transform="translate(-139.3 -74.4)"/>
      <path id="Path_22965" data-name="Path 22965" class="cls-9" d="M142.512,77.472a.5.5,0,0,1-.259-.3.627.627,0,0,1,0-.37c.222-.481.444-.925.666-1.406.111.037.185.074.3.111l-.666,1.443V77.1q0,.055.111.111a.113.113,0,0,0,.148,0c.037,0,.074-.037.111-.074.222-.481.444-1,.7-1.48l.333.111c-.222.518-.481,1.036-.7,1.517a.414.414,0,0,1-.3.259A.739.739,0,0,1,142.512,77.472Z" transform="translate(-141.143 -75.03)"/>
      <path id="Path_22966" data-name="Path 22966" class="cls-9" d="M145.377,78.842,144.6,78.4c.3-.666.629-1.332.925-2a2.547,2.547,0,0,1,.3.111c-.259.592-.555,1.147-.814,1.739.185.074.333.185.518.259A1.314,1.314,0,0,0,145.377,78.842Z" transform="translate(-142.639 -75.66)"/>
      <path id="Path_22967" data-name="Path 22967" class="cls-9" d="M147.677,79.89l-.777-.444c.333-.7.666-1.443,1-2.146a2.548,2.548,0,0,1,.3.111l-.888,1.887c.185.074.333.185.481.259A1.176,1.176,0,0,1,147.677,79.89Z" transform="translate(-144.088 -76.227)"/>
    </g>
    <g id="Group_3428" data-name="Group 3428" transform="translate(52.871 24.345)">
      <path id="Path_22968" data-name="Path 22968" class="cls-9" d="M143.233,67.71v.814a1.024,1.024,0,0,1-.333-.037V66.674a1.024,1.024,0,0,0,.333-.037v.814h.407v-.814a1.024,1.024,0,0,0,.333-.037v2a1.024,1.024,0,0,1-.333-.037v-.814A1.387,1.387,0,0,0,143.233,67.71Z" transform="translate(-142.9 -66.304)"/>
      <path id="Path_22969" data-name="Path 22969" class="cls-9" d="M146.607,68.028c-.037.148-.037.333-.074.481a1.024,1.024,0,0,1-.333-.037c.111-.666.259-1.332.37-2.035.148,0,.3-.037.444-.037.111.7.259,1.443.37,2.183a1.024,1.024,0,0,1-.333-.037c-.037-.185-.037-.333-.074-.481A1.388,1.388,0,0,0,146.607,68.028Zm.185-1.147c-.037.3-.074.555-.111.814h.259A5.309,5.309,0,0,1,146.792,66.881Z" transform="translate(-144.979 -66.178)"/>
      <path id="Path_22970" data-name="Path 22970" class="cls-9" d="M150.688,68.431c-.3-.037-.592-.037-.888-.074v-2.22a1.024,1.024,0,0,0,.333-.037v1.924a2.8,2.8,0,0,1,.555.037Z" transform="translate(-147.247 -65.989)"/>
      <path id="Path_22971" data-name="Path 22971" class="cls-9" d="M152.733,68.279a1.024,1.024,0,0,1-.333-.037V65.874c.3-.037.629-.037.925-.074v.37c-.185,0-.407.037-.592.037v.666h.444v.37h-.444Z" transform="translate(-148.885 -65.8)"/>
    </g>
    <g id="Group_3429" data-name="Group 3429" transform="translate(35.518 27.638)">
      <path id="Path_22972" data-name="Path 22972" class="cls-2" d="M97.628,79.916c-.074.074-.185.148-.259.222-.481-.814-.925-1.628-1.369-2.4l.888-.333c.074.111.111.222.185.333a3.734,3.734,0,0,0-.555.259c.111.222.259.407.37.629.111-.074.259-.148.37-.222a1.5,1.5,0,0,1,.185.333c-.111.074-.259.148-.37.222A9,9,0,0,0,97.628,79.916Z" transform="translate(-96 -76.401)"/>
      <path id="Path_22973" data-name="Path 22973" class="cls-2" d="M100.165,78.483a.34.34,0,0,1-.37.074.471.471,0,0,1-.333-.259c-.333-.555-.629-1.11-.962-1.665a2.547,2.547,0,0,0,.3-.111c.3.518.629,1.073.925,1.591l.111.111a.222.222,0,0,0,.148-.037c.037-.037.074-.074.074-.111a.222.222,0,0,0-.037-.148c-.3-.518-.592-1-.888-1.517l.333-.111c.3.481.555.962.851,1.443a.514.514,0,0,1,.074.407A.539.539,0,0,1,100.165,78.483Z" transform="translate(-97.575 -75.708)"/>
      <path id="Path_22974" data-name="Path 22974" class="cls-2" d="M103.276,77.106c-.222.185-.481.37-.7.555-.333-.629-.7-1.221-1.073-1.85a2.548,2.548,0,0,0,.3-.111c.3.481.555,1,.851,1.48a5.414,5.414,0,0,1,.481-.333A2.123,2.123,0,0,1,103.276,77.106Z" transform="translate(-99.465 -75.33)"/>
      <path id="Path_22975" data-name="Path 22975" class="cls-2" d="M105.628,75.847c-.222.185-.481.37-.7.555-.3-.518-.629-1.073-.925-1.591.111-.037.185-.074.3-.111.259.407.481.851.74,1.258a5.41,5.41,0,0,1,.481-.333A.6.6,0,0,0,105.628,75.847Z" transform="translate(-101.04 -74.7)"/>
    </g>
    <g id="Group_3431" data-name="Group 3431" transform="translate(33.816 12.764)">
      <g id="Group_3430" data-name="Group 3430">
        <path id="Path_22976" data-name="Path 22976" class="cls-2" d="M103.424,58.586a12.043,12.043,0,1,1,12.024-12.061,12.056,12.056,0,0,1-12.024,12.061Zm0-23.827A11.765,11.765,0,1,0,115.19,46.524a11.8,11.8,0,0,0-11.765-11.765Z" transform="translate(-91.4 -34.5)"/>
      </g>
    </g>
    <g id="Group_3432" data-name="Group 3432" transform="translate(38.848 15.169)">
      <path id="Path_22977" data-name="Path 22977" class="cls-2" d="M107.96,45.292,105,41.148l.185-.148,3,4.144Z" transform="translate(-105 -41)"/>
    </g>
    <g id="Group_3433" data-name="Group 3433" transform="translate(35.592 18.758)">
      <path id="Path_22978" data-name="Path 22978" class="cls-2" d="M100.751,53.623l-4.551-2.7.148-.222,4.551,2.7Z" transform="translate(-96.2 -50.7)"/>
    </g>
    <g id="Group_3434" data-name="Group 3434" transform="translate(34.112 23.346)">
      <path id="Path_22979" data-name="Path 22979" class="cls-2" d="M97.454,63.877,92.2,63.359l.037-.259,5.254.518Z" transform="translate(-92.2 -63.1)"/>
    </g>
    <g id="Group_3435" data-name="Group 3435" transform="translate(34.556 26.528)">
      <path id="Path_22980" data-name="Path 22980" class="cls-2" d="M93.511,73.55l-.111-.259L98.358,71.7l.074.222Z" transform="translate(-93.4 -71.7)"/>
    </g>
    <g id="Group_3436" data-name="Group 3436" transform="translate(49.578 15.132)">
      <path id="Path_22981" data-name="Path 22981" class="cls-2" d="M134.222,45.229,134,45.081l3.071-4.181.259.148Z" transform="translate(-134 -40.9)"/>
    </g>
    <g id="Group_3437" data-name="Group 3437" transform="translate(51.317 18.721)">
      <path id="Path_22982" data-name="Path 22982" class="cls-2" d="M138.848,53.56l-.148-.222,4.662-2.738.148.222Z" transform="translate(-138.7 -50.6)"/>
    </g>
    <g id="Group_3438" data-name="Group 3438" transform="translate(52.168 23.346)">
      <path id="Path_22983" data-name="Path 22983" class="cls-2" d="M141,63.877v-.259l5.365-.518.037.259Z" transform="translate(-141 -63.1)"/>
    </g>
    <g id="Group_3439" data-name="Group 3439" transform="translate(51.872 26.491)">
      <path id="Path_22984" data-name="Path 22984" class="cls-2" d="M145.38,73.524l-5.18-1.665.111-.259,5.143,1.665Z" transform="translate(-140.2 -71.6)"/>
    </g>
    <path id="Path_22985" data-name="Path 22985" class="cls-2" d="M106.2,56a7,7,0,0,0,1.443,4.218l.185-.185A6.628,6.628,0,0,1,106.459,56a6.4,6.4,0,0,1,4.255-6.1v-.3A6.71,6.71,0,0,0,106.2,56Z" transform="translate(-66.908 -31.249)"/>
    <path id="Path_22986" data-name="Path 22986" class="cls-2" d="M129.2,49.7V50a6.414,6.414,0,0,1,4.181,6.068,6.781,6.781,0,0,1-1.443,4.144l.185.185A6.832,6.832,0,0,0,129.2,49.7Z" transform="translate(-81.398 -31.312)"/>
    <path id="Path_22987" data-name="Path 22987" d="M116.094,8.7V8.185c-.074,0-.111-.148-.111-.3s.037-.259.111-.3V7.26a.4.4,0,0,0,.037-.407c-.111-.3-.333-.222-.148-.518s-.074-.444-.222-1.11a22.345,22.345,0,0,1,.3-2.923c.074-1.147-.518-1.7-1.11-1.7h0c-.592,0-1.221.555-1.11,1.7.111,1.628.444,2.294.3,2.923-.111.629-.37.814-.222,1.11s-.037.222-.148.518a.352.352,0,0,0,0,.333v.407h0c.074,0,.111.111.111.3,0,.148-.037.3-.111.3h0V8.7a15.864,15.864,0,0,0-3.552.629l-.111.259,3.182,14.281h3.441l3.108-14.466A14.094,14.094,0,0,0,116.094,8.7Zm-.111,12.32h-.074l-.814-1.258-.925,1.258h-.037l-1.7-8.177.074-.148a7.029,7.029,0,0,1,1.776-.333l.666,3.219.777-3.219a6.4,6.4,0,0,1,1.961.407Z" transform="translate(-69.365 -0.378)"/>
    <g id="Group_3440" data-name="Group 3440" transform="translate(44.287 14.235)">
      <path id="Path_22988" data-name="Path 22988" class="cls-9" d="M121.143,41.016a.87.87,0,0,1-.222.629.632.632,0,0,1-.962,0,.813.813,0,0,1-.222-.629l-.037-1.665a.87.87,0,0,1,.222-.629.6.6,0,0,1,.481-.222.651.651,0,0,1,.481.222.87.87,0,0,1,.222.629v.222h-.481v-.222c0-.185-.074-.259-.185-.259-.148,0-.222.074-.222.259l.037,1.665c0,.148.074.259.222.259s.185-.074.185-.259v-.481h-.222v-.518h.7Z" transform="translate(-119.7 -38.491)"/>
      <path id="Path_22989" data-name="Path 22989" class="cls-9" d="M125.506,41.037a.728.728,0,0,1-.222.592.51.51,0,0,1-.481.185.651.651,0,0,1-.481-.222.87.87,0,0,1-.222-.629l.037-1.665a.934.934,0,0,1,.222-.629.51.51,0,0,1,.481-.185.651.651,0,0,1,.481.222.723.723,0,0,1,.185.629ZM125.025,41l.037-1.665c0-.185-.074-.259-.185-.259-.148,0-.222.074-.222.259l-.037,1.628c0,.148.074.259.185.259Q125.025,41.277,125.025,41Z" transform="translate(-122.472 -38.475)"/>
    </g>
    <path id="Path_22990" data-name="Path 22990" class="cls-10" d="M116.431,8.066V7.585c-.074,0-.111-.148-.111-.3s.037-.3.111-.3V6.66a.491.491,0,0,0,.037-.407c-.111-.3-.333-.222-.148-.518.148-.3-.074-.481-.222-1.11a22.35,22.35,0,0,1,.3-2.923c.074-1.147-.518-1.7-1.11-1.7h0c-.592,0-1.221.555-1.11,1.7.111,1.628.444,2.294.3,2.923-.111.629-.37.814-.222,1.11s-.037.222-.148.518a.352.352,0,0,0,0,.333v.407h0c.074,0,.111.148.111.3s-.037.3-.111.3h0V8.1a15.864,15.864,0,0,0-3.552.629l-.148.259,3.182,14.281h3.441l3.108-14.466A13.679,13.679,0,0,0,116.431,8.066Zm-.111,12.357h-.074l-.814-1.258-.925,1.258h-.037l-1.7-8.177.074-.148a7.029,7.029,0,0,1,1.776-.333l.666,3.219.777-3.219a6.4,6.4,0,0,1,1.961.407Z" transform="translate(-69.554)"/>
    <g id="Group_3444" data-name="Group 3444" transform="translate(36.85 21.866)">
      <g id="Group_3441" data-name="Group 3441" transform="translate(0 2.516)">
        <path id="Path_22991" data-name="Path 22991" class="cls-2" d="M117.359,74.41l-8.917-8.14-8.658,7.992L99.6,74.04l8.843-8.14.111.074,8.991,8.251Z" transform="translate(-99.6 -65.9)"/>
      </g>
      <g id="Group_3443" data-name="Group 3443" transform="translate(6.956)">
        <path id="Path_22992" data-name="Path 22992" class="cls-11" d="M120.287,65.687a1.85,1.85,0,0,0,1.887-1.776V63.8a1.892,1.892,0,0,1-1.887,1.7,1.864,1.864,0,0,1-1.887-1.7v.111A1.826,1.826,0,0,0,120.287,65.687Z" transform="translate(-118.4 -62.061)"/>
        <path id="Path_22993" data-name="Path 22993" class="cls-12" d="M122.36,62.765c.259-.111.518-.111.592.037.074.111-.111.333-.37.444s-.518.111-.592-.037C121.953,63.061,122.1,62.876,122.36,62.765Z" transform="translate(-120.658 -61.359)"/>
        <path id="Path_22994" data-name="Path 22994" class="cls-13" d="M122.006,61.405c.148-.074.333-.074.37,0s-.074.185-.222.3c-.148.074-.333.074-.37,0C121.747,61.59,121.821,61.479,122.006,61.405Z" transform="translate(-120.526 -60.518)"/>
        <path id="Path_22995" data-name="Path 22995" class="cls-14" d="M121.694,60.353c.074-.037.185-.037.185,0,.037.037-.037.111-.111.148s-.185.037-.185,0C121.546,60.464,121.62,60.39,121.694,60.353Z" transform="translate(-120.399 -59.872)"/>
        <g id="Group_3442" data-name="Group 3442" transform="translate(0 0.037)">
          <path id="Path_22996" data-name="Path 22996" class="cls-15" d="M120.287,62.752a1.85,1.85,0,0,0,1.887-1.776,1.826,1.826,0,0,0-1.887-1.776,1.85,1.85,0,0,0-1.887,1.776A1.826,1.826,0,0,0,120.287,62.752Z" transform="translate(-118.4 -59.2)"/>
          <path id="Path_22997" data-name="Path 22997" class="cls-16" d="M120.476,62.8a1.738,1.738,0,0,0,1.776-1.7,1.778,1.778,0,1,0-1.776,1.7Z" transform="translate(-118.589 -59.326)"/>
          <path id="Path_22998" data-name="Path 22998" class="cls-17" d="M120.665,62.882a1.595,1.595,0,1,0,0-3.182,1.593,1.593,0,1,0,0,3.182Z" transform="translate(-118.778 -59.515)"/>
          <path id="Path_22999" data-name="Path 22999" class="cls-18" d="M120.791,62.834a1.541,1.541,0,0,0,1.591-1.517,1.593,1.593,0,0,0-3.182,0A1.589,1.589,0,0,0,120.791,62.834Z" transform="translate(-118.904 -59.578)"/>
          <path id="Path_23000" data-name="Path 23000" class="cls-19" d="M120.98,63.012a1.408,1.408,0,1,0-1.48-1.406A1.446,1.446,0,0,0,120.98,63.012Z" transform="translate(-119.093 -59.83)"/>
          <path id="Path_23001" data-name="Path 23001" class="cls-20" d="M121.169,62.964a1.335,1.335,0,0,0,1.369-1.332,1.369,1.369,0,1,0-1.369,1.332Z" transform="translate(-119.282 -59.893)"/>
          <path id="Path_23002" data-name="Path 23002" class="cls-21" d="M121.358,63.142a1.223,1.223,0,1,0,0-2.442,1.221,1.221,0,1,0,0,2.442Z" transform="translate(-119.471 -60.145)"/>
          <path id="Path_23003" data-name="Path 23003" class="cls-22" d="M121.484,63.22a1.155,1.155,0,0,0,1.184-1.11A1.131,1.131,0,0,0,121.484,61a1.18,1.18,0,0,0-1.184,1.11A1.154,1.154,0,0,0,121.484,63.22Z" transform="translate(-119.597 -60.334)"/>
          <path id="Path_23004" data-name="Path 23004" class="cls-23" d="M121.673,63.272a1.043,1.043,0,0,0,1.073-1.036,1.067,1.067,0,0,0-1.073-1.036,1.043,1.043,0,0,0-1.073,1.036A1.067,1.067,0,0,0,121.673,63.272Z" transform="translate(-119.786 -60.46)"/>
          <path id="Path_23005" data-name="Path 23005" class="cls-24" d="M121.862,63.35a.928.928,0,1,0,0-1.85.926.926,0,1,0,0,1.85Z" transform="translate(-119.975 -60.649)"/>
          <path id="Path_23006" data-name="Path 23006" class="cls-25" d="M121.988,63.3a.852.852,0,1,0-.888-.851A.869.869,0,0,0,121.988,63.3Z" transform="translate(-120.101 -60.712)"/>
          <path id="Path_23007" data-name="Path 23007" class="cls-26" d="M122.177,63.48a.751.751,0,0,0,.777-.74.775.775,0,0,0-.777-.74.751.751,0,0,0-.777.74A.775.775,0,0,0,122.177,63.48Z" transform="translate(-120.29 -60.964)"/>
          <path id="Path_23008" data-name="Path 23008" class="cls-27" d="M122.366,63.495a.656.656,0,0,0,.666-.629.666.666,0,0,0-1.332,0A.656.656,0,0,0,122.366,63.495Z" transform="translate(-120.479 -61.09)"/>
          <path id="Path_23009" data-name="Path 23009" class="cls-28" d="M122.492,63.61a.556.556,0,1,0-.592-.555A.632.632,0,0,0,122.492,63.61Z" transform="translate(-120.605 -61.279)"/>
          <path id="Path_23010" data-name="Path 23010" class="cls-29" d="M122.681,63.688a.445.445,0,1,0,0-.888.484.484,0,0,0-.481.444A.459.459,0,0,0,122.681,63.688Z" transform="translate(-120.794 -61.468)"/>
          <path id="Path_23011" data-name="Path 23011" class="cls-30" d="M122.87,63.64a.35.35,0,0,0,.37-.37.4.4,0,0,0-.37-.37.35.35,0,0,0-.37.37A.371.371,0,0,0,122.87,63.64Z" transform="translate(-120.983 -61.531)"/>
          <path id="Path_23012" data-name="Path 23012" class="cls-31" d="M123.059,63.818a.286.286,0,0,0,.3-.259.264.264,0,0,0-.3-.259.259.259,0,0,0,0,.518Z" transform="translate(-121.172 -61.783)"/>
        </g>
        <path id="Path_23013" data-name="Path 23013" class="cls-32" d="M120.287,59.1a1.85,1.85,0,0,1,1.887,1.776v.111a1.9,1.9,0,0,0-3.774,0v-.111A1.85,1.85,0,0,1,120.287,59.1Z" transform="translate(-118.4 -59.1)"/>
      </g>
    </g>
    <g id="Group_3445" data-name="Group 3445" transform="translate(34.852 20.288)">
      <path id="Path_23014" data-name="Path 23014" class="cls-2" d="M95.2,56.672a.539.539,0,0,1-.222.333.336.336,0,0,1-.259.111h-.185a.6.6,0,0,1-.259-.148.535.535,0,0,1-.074-.259,1.024,1.024,0,0,1,.037-.333.871.871,0,0,1,.3.074.4.4,0,0,0,0,.3c.037.074.074.074.111.111a.2.2,0,0,0,.185-.074.192.192,0,0,0,.074-.148c.037-.074,0-.185,0-.3-.037-.074-.074-.185-.148-.37a1.993,1.993,0,0,1-.111-.37,1.024,1.024,0,0,1,.037-.333.634.634,0,0,1,.333-.407.29.29,0,0,1,.3.037.379.379,0,0,1,.222.185.526.526,0,0,1,.074.222.63.63,0,0,1-.037.259c-.111,0-.185-.037-.3-.037V55.3q0-.056-.111-.111c-.037-.037-.111,0-.148.037a.192.192,0,0,0-.074.148.754.754,0,0,0,.074.555.625.625,0,0,1,.074.185.871.871,0,0,1,.074.3v.111C95.236,56.524,95.236,56.6,95.2,56.672Z" transform="translate(-94.2 -54.834)"/>
      <path id="Path_23015" data-name="Path 23015" class="cls-2" d="M97.614,57.92c-.259-.037-.518-.111-.814-.148.222-.666.444-1.369.666-2.072a.927.927,0,0,1,.259.148c-.185.555-.37,1.11-.555,1.7.148.037.333.074.518.111A.941.941,0,0,1,97.614,57.92Z" transform="translate(-95.838 -55.38)"/>
      <path id="Path_23016" data-name="Path 23016" class="cls-2" d="M100.484,57.205a.583.583,0,0,1,.259.259.36.36,0,0,1,.037.333c-.111.3-.185.592-.3.888a.5.5,0,0,1-.222.259.424.424,0,0,1-.37.037.416.416,0,0,1-.3-.185.36.36,0,0,1-.037-.333l.333-1a.391.391,0,0,1,.222-.259A.336.336,0,0,1,100.484,57.205Zm0,.444v-.111c-.037-.037-.037-.074-.111-.074-.037-.037-.074-.037-.148,0a.08.08,0,0,0-.074.074c-.111.333-.222.629-.333.962v.111c.037.037.074.074.111.074h.148c.037-.037.074-.037.074-.074A9.884,9.884,0,0,0,100.484,57.649Z" transform="translate(-97.561 -56.293)"/>
      <path id="Path_23017" data-name="Path 23017" class="cls-2" d="M104.232,58.518c.111.037.185.074.3.111-.222.37-.481.74-.7,1.184-.074-.037-.185-.037-.3-.074.037-.259.037-.518.074-.814-.148.222-.259.481-.407.74-.074,0-.185-.037-.3-.037.037-.518.111-1.073.185-1.628a1.108,1.108,0,0,1,.3.148c-.037.3-.074.555-.111.851.148-.259.259-.481.407-.7a2.182,2.182,0,0,1,.3.148,5.519,5.519,0,0,0-.074.777A2.454,2.454,0,0,1,104.232,58.518Z" transform="translate(-99.681 -56.829)"/>
    </g>
    <g id="Group_3446" data-name="Group 3446" transform="translate(33.372 13.319)">
      <path id="Path_23018" data-name="Path 23018" class="cls-2" d="M97.873,43.8l.148,1.221-1.221.148Z" transform="translate(-94.358 -40.914)"/>
      <path id="Path_23019" data-name="Path 23019" class="cls-2" d="M108.754,36l-.37,1.184-1.184-.407Z" transform="translate(-100.91 -36)"/>
      <path id="Path_23020" data-name="Path 23020" class="cls-2" d="M91.833,55l.7,1-1.036.7Z" transform="translate(-91.019 -47.97)"/>
      <path id="Path_23021" data-name="Path 23021" class="cls-2" d="M90.2,67.6l1.036.7-.7,1.036Z" transform="translate(-90.2 -55.909)"/>
      <path id="Path_23022" data-name="Path 23022" class="cls-2" d="M93.3,81l1.221.148-.148,1.221Z" transform="translate(-92.153 -64.351)"/>
    </g>
    <g id="Group_3447" data-name="Group 3447" transform="translate(50.429 13.245)">
      <path id="Path_23023" data-name="Path 23023" class="cls-2" d="M147.848,43.7l-.148,1.221,1.221.148Z" transform="translate(-143.482 -40.777)"/>
      <path id="Path_23024" data-name="Path 23024" class="cls-2" d="M136.3,35.8l.407,1.184,1.184-.37Z" transform="translate(-136.3 -35.8)"/>
      <path id="Path_23025" data-name="Path 23025" class="cls-2" d="M154.166,54.9l-.666,1,1,.7Z" transform="translate(-147.136 -47.833)"/>
      <path id="Path_23026" data-name="Path 23026" class="cls-2" d="M155.836,67.5l-1.036.666.7,1.036Z" transform="translate(-147.955 -55.772)"/>
      <path id="Path_23027" data-name="Path 23027" class="cls-2" d="M152.421,80.9l-1.221.148.148,1.221Z" transform="translate(-145.687 -64.214)"/>
    </g>
    <g id="Group_3451" data-name="Group 3451" transform="translate(45.077 31.782)">
      <g id="Group_3449" data-name="Group 3449" transform="translate(0.172 0.259)">
        <g id="Group_3448" data-name="Group 3448">
          <path id="Path_23028" data-name="Path 23028" class="cls-2" d="M123.114,88.672c-.444,0-.814-.259-.814-.592a.111.111,0,0,1,.222,0c0,.185.222.333.481.37v-.962h-.185a.111.111,0,0,1,0-.222H123v-.555a.111.111,0,0,1,.222,0v.555h.185a.111.111,0,0,1,0,.222h-.185v.962c.259-.037.481-.185.481-.37a.111.111,0,0,1,.222,0c0,.333-.333.592-.814.592Z" transform="translate(-122.3 -86.6)"/>
        </g>
      </g>
      <path id="Path_23029" data-name="Path 23029" class="cls-2" d="M124.059,85.9a.259.259,0,1,0,.259.259A.253.253,0,0,0,124.059,85.9Zm0,.407a.148.148,0,1,1,.148-.148A.159.159,0,0,1,124.059,86.307Z" transform="translate(-123.073 -85.9)"/>
      <g id="Group_3450" data-name="Group 3450" transform="translate(0 1.443)">
        <path id="Path_23030" data-name="Path 23030" class="cls-2" d="M123.709,90.17a.136.136,0,0,1-.111-.037l-.074-.111-.111.074c-.037.037-.111,0-.148-.037s0-.111.037-.148l.185-.111h.074a.08.08,0,0,1,.074.074l.111.185c.037.037,0,.111-.037.148.037-.037.037-.037,0-.037Zm-1.776,0H121.9a.092.092,0,0,1-.037-.148l.111-.185h0a.036.036,0,0,1,.037-.037h.074l.185.111c.037.037.074.111.037.148s-.111.074-.148.037l-.111-.074-.074.111c.037.037,0,.037-.037.037Z" transform="translate(-121.834 -89.8)"/>
      </g>
    </g>
    <g id="Group_3452" data-name="Group 3452" transform="translate(39.847 21.015)">
      <path id="Path_23031" data-name="Path 23031" class="cls-2" d="M109.095,68.192h.37l.037.259-1.628.074-.074-.333,1.517-.592.074.259-.333.148Zm-.851.074.629-.037-.037-.185Z" transform="translate(-107.763 -63.604)"/>
      <path id="Path_23032" data-name="Path 23032" class="cls-2" d="M108.625,65.592h.666v.222l-1.591-.037v-.259h.7v-.3h-.666V65l1.591.037V65.3h-.666Z" transform="translate(-107.7 -61.966)"/>
      <path id="Path_23033" data-name="Path 23033" class="cls-2" d="M109.454,63.236l-1.554-.37.148-.666.222.074-.111.444.407.111.074-.333.222.037-.074.333.407.111.111-.444.222.074Z" transform="translate(-107.826 -60.202)"/>
      <path id="Path_23034" data-name="Path 23034" class="cls-2" d="M110.047,60.477l.3.222-.111.222L108.9,60l.148-.3,1.554.444-.111.222-.37-.111Zm-.74-.481.518.37.074-.148Z" transform="translate(-108.456 -58.627)"/>
      <path id="Path_23035" data-name="Path 23035" class="cls-2" d="M111.706,57.392a.6.6,0,0,1,.148.259.445.445,0,0,1-.074.3l-.222.3-1.258-1,.222-.3a.374.374,0,0,1,.259-.148.445.445,0,0,1,.3.074Zm-.185.518.111-.111a.136.136,0,0,0,.037-.111.129.129,0,0,0-.037-.074l-.666-.518a.136.136,0,0,0-.111-.037c-.037,0-.074.037-.111.037l-.111.111Z" transform="translate(-109.338 -56.8)"/>
    </g>
    <g id="Group_3453" data-name="Group 3453" transform="translate(48.875 20.83)">
      <path id="Path_23036" data-name="Path 23036" class="cls-9" d="M132.581,57.151l-.3.222-.185-.185,1.369-.888.222.259-1,1.295-.185-.185.222-.3Zm.74-.518L132.8,57l.111.148Z" transform="translate(-132.1 -56.3)"/>
      <path id="Path_23037" data-name="Path 23037" class="cls-9" d="M134.766,59.769a.445.445,0,0,1-.3.074.283.283,0,0,1-.185-.074c-.037-.037-.074-.074-.074-.111a.245.245,0,0,1-.037-.222c0-.074.037-.111.074-.185a.369.369,0,0,1,.185-.148l.111.185-.148.148v.111c.037.037.074.074.111.074a.136.136,0,0,0,.111-.037.4.4,0,0,0,.148-.185,1.665,1.665,0,0,1,.074-.3,1.8,1.8,0,0,1,.111-.259c.037-.074.111-.111.148-.148a.448.448,0,0,1,.37-.037.65.65,0,0,1,.185.148.526.526,0,0,1,.074.222c0,.074,0,.111-.037.148s-.074.111-.148.148l-.148-.185.111-.111v-.111c-.037-.037-.037-.074-.111-.074a.136.136,0,0,0-.111.037.369.369,0,0,0-.148.185c0,.037-.037.074-.037.148s-.037.111-.037.148a.526.526,0,0,1-.074.222c0,.037-.037.037-.037.074C134.84,59.732,134.8,59.769,134.766,59.769Z" transform="translate(-133.397 -57.771)"/>
      <path id="Path_23038" data-name="Path 23038" class="cls-9" d="M136.358,61.033l-.074-.259.222-.074.259.7-.222.074-.074-.259-1.295.444-.074-.222Z" transform="translate(-133.99 -59.072)"/>
      <path id="Path_23039" data-name="Path 23039" class="cls-9" d="M135.5,63.822l1.591-.222.111.666-.259.037-.074-.444-.444.074.037.333-.222.037-.037-.333-.444.074.074.444-.259.037Z" transform="translate(-134.242 -60.899)"/>
      <path id="Path_23040" data-name="Path 23040" class="cls-9" d="M137.354,66.681a.364.364,0,0,1-.111.3.535.535,0,0,1-.259.074l-.222-.037a.311.311,0,0,1-.259-.148l-.7.148v-.259l.629-.111v-.185l-.592-.037V66.2l1.591.111Zm-.407.111c.074,0,.148-.037.148-.111v-.148l-.518-.037v.148a.131.131,0,0,0,.148.148Z" transform="translate(-134.431 -62.537)"/>
      <path id="Path_23041" data-name="Path 23041" class="cls-9" d="M136.6,69.34l-1.11-.037,1.036.333-.111.222-1.517-.481.074-.259h1.073l-1-.3.074-.222,1.517.481Z" transform="translate(-133.864 -64.049)"/>
    </g>
    <g id="Group_3454" data-name="Group 3454" transform="translate(31.508 47.21)">
      <path id="Path_23042" data-name="Path 23042" class="cls-2" d="M88.654,139.236a4.375,4.375,0,0,1-3.367-1.332c-.148-.148-.185-.259,0-.481l.666-.7c.185-.148.3-.074.481.074a3.354,3.354,0,0,0,2.183.888c1.295,0,2.035-.592,2.035-1.591,0-1.073-1.073-1.443-2.183-1.85-1.369-.481-3-1.184-3-3.108a3.045,3.045,0,0,1,3.293-3.034,5.016,5.016,0,0,1,3,.851c.222.148.148.3.037.481l-.444.74c-.111.185-.3.148-.481.074a4.282,4.282,0,0,0-2-.629c-.925,0-1.7.37-1.7,1.554,0,.888,1.073,1.295,1.961,1.591,1.554.592,3.219,1.147,3.219,3.256C92.39,138.053,90.8,139.236,88.654,139.236Z" transform="translate(-85.161 -127.915)"/>
      <path id="Path_23043" data-name="Path 23043" class="cls-2" d="M111.241,132.243a1.624,1.624,0,0,0-1.776,1.554v3.885c0,.888.222,1.813,1.776,1.813h.3a1.727,1.727,0,0,0,1.887-1.924v-1.628c0-.037,0-.185-.222-.185h-1.85a.2.2,0,0,1-.222-.222v-1a.239.239,0,0,1,.222-.222h3.663a3.549,3.549,0,0,0,2.072-.629c.074-.037.111-.074.185-.074a.2.2,0,0,1,.185.111l.407.666a.4.4,0,0,1,.037.185.32.32,0,0,1-.111.222,4.136,4.136,0,0,1-2.442.888c-.222.037-.333.074-.333.333v1.517a3.2,3.2,0,0,1-3.515,3.4h-.259c-2.442,0-3.441-1.369-3.441-3.256v-3.848a3.1,3.1,0,0,1,3.4-3.034h2.553a.245.245,0,0,1,.259.222v1a.2.2,0,0,1-.222.222h-2.553Z" transform="translate(-99.424 -129.616)"/>
      <path id="Path_23044" data-name="Path 23044" class="cls-2" d="M138.741,134.938h-1.517c-.148,0-.185.074-.185.185v4a.234.234,0,0,1-.259.259H135.6c-.185,0-.3-.074-.3-.259v-10.4c0-.148.111-.222.3-.222h3.145a3.108,3.108,0,0,1,3.33,3.256A3.172,3.172,0,0,1,138.741,134.938Zm0-4.884h-1.48c-.148,0-.222.074-.222.185v3c0,.148.037.222.185.222h1.48a1.594,1.594,0,0,0,1.628-1.7A1.559,1.559,0,0,0,138.741,130.054Z" transform="translate(-116.75 -128.167)"/>
      <path id="Path_23045" data-name="Path 23045" class="cls-2" d="M159.774,146.232h-3.552a.2.2,0,0,1-.222-.222v-.888a.2.2,0,0,1,.222-.222h3.552c.148,0,.222.074.222.185v.925C159.959,146.158,159.922,146.232,159.774,146.232Z" transform="translate(-129.791 -138.499)"/>
      <path id="Path_23046" data-name="Path 23046" class="cls-2" d="M171,136.266v-4.995a3.054,3.054,0,0,1,3.293-3.071,3.612,3.612,0,0,1,3.108,1.443c.111.148.111.259-.074.407l-.777.666a.271.271,0,0,1-.407-.111,2.208,2.208,0,0,0-1.776-.888,1.516,1.516,0,0,0-1.628,1.554v4.995a1.52,1.52,0,0,0,1.665,1.517,2.46,2.46,0,0,0,1.739-.851c.111-.111.222-.3.407-.148l.888.629a.278.278,0,0,1,.074.37,3.666,3.666,0,0,1-3.145,1.554C172.406,139.3,171,138.153,171,136.266Z" transform="translate(-139.241 -127.978)"/>
      <path id="Path_23047" data-name="Path 23047" class="cls-2" d="M197.342,138.81h-1.221a.2.2,0,0,1-.222-.222v-4.662a1.409,1.409,0,0,0-1.517-1.554,1.466,1.466,0,0,0-1.517,1.554v4.662a.2.2,0,0,1-.222.222h-1.221a.2.2,0,0,1-.222-.222V127.822a.2.2,0,0,1,.222-.222h1.221a.2.2,0,0,1,.222.222v3.515c0,.148.148.222.3.111a2.838,2.838,0,0,1,1.628-.518,2.664,2.664,0,0,1,2.812,2.96v4.662C197.564,138.773,197.49,138.81,197.342,138.81Z" transform="translate(-151.967 -127.6)"/>
      <path id="Path_23048" data-name="Path 23048" class="cls-2" d="M217.794,144.418h-1.147a.175.175,0,0,1-.185-.185v-.259c0-.148-.111-.185-.222-.074a2.953,2.953,0,0,1-1.739.592,2.455,2.455,0,0,1-2.7-2.7,2.6,2.6,0,0,1,2.886-2.7,3.1,3.1,0,0,1,1.443.37c.148.111.259.074.259-.111v-.259c0-.7-.407-1.221-1.443-1.221a5.363,5.363,0,0,0-1.85.407c-.148.074-.259,0-.333-.148l-.333-.777a.233.233,0,0,1,.111-.3,6.48,6.48,0,0,1,2.59-.555c2.109,0,2.886,1.11,2.886,2.886v4.81C217.979,144.381,217.942,144.418,217.794,144.418Zm-3-4.07a1.369,1.369,0,0,0-1.48,1.443,1.322,1.322,0,0,0,1.443,1.443,1.443,1.443,0,0,0,.037-2.886Z" transform="translate(-164.946 -133.207)"/>
      <path id="Path_23049" data-name="Path 23049" class="cls-2" d="M236.818,138.154c-.037.222-.148.222-.3.222a2.856,2.856,0,0,0-.555-.074c-1.258,0-1.665.814-1.665,1.924v4.033a.2.2,0,0,1-.222.222h-1.221c-.148,0-.259-.074-.259-.222v-7.326a.2.2,0,0,1,.222-.222h1.073a.2.2,0,0,1,.222.222v.7c0,.111.111.185.185.037a2.506,2.506,0,0,1,2-1.073,1.438,1.438,0,0,1,.555.074c.222.037.222.148.185.333Z" transform="translate(-178.05 -133.27)"/>
      <path id="Path_23050" data-name="Path 23050" class="cls-2" d="M248.947,140.992a4.875,4.875,0,0,1-1.517.185,1.918,1.918,0,0,1-2.183-2.183v-4.107c0-.111-.037-.185-.222-.185h-.666c-.148,0-.259-.074-.259-.222v-.925a.2.2,0,0,1,.222-.222h.7a.213.213,0,0,0,.222-.222v-1.406a.238.238,0,0,1,.222-.259l1.147-.259c.222-.037.3.074.3.185v1.776a.2.2,0,0,0,.222.222h1.48a.2.2,0,0,1,.222.222v.962a.2.2,0,0,1-.222.222H247.1c-.148,0-.222.037-.222.185v3.774c0,.629.185,1,.814,1a8.944,8.944,0,0,0,.925-.111c.333-.074.407.037.444.222l.148.851C249.243,140.881,249.132,140.918,248.947,140.992Z" transform="translate(-185.295 -129.856)"/>
      <path id="Path_23051" data-name="Path 23051" class="cls-2" d="M265.194,140.966h-3.959a.311.311,0,0,0-.333.333v.3a1.509,1.509,0,0,0,1.517,1.554,1.906,1.906,0,0,0,1.554-.851c.111-.148.222-.185.37-.074l.777.481c.185.111.259.222.185.37a3.122,3.122,0,0,1-2.886,1.517,2.9,2.9,0,0,1-3.219-2.923v-2a3,3,0,0,1,3.182-3.071,2.963,2.963,0,0,1,3.182,3.071v.851A.373.373,0,0,1,265.194,140.966Zm-2.775-2.923a1.4,1.4,0,0,0-1.443,1.517c0,.111,0,.185.222.185h2.516c.148,0,.185-.074.185-.259A1.389,1.389,0,0,0,262.419,138.043Z" transform="translate(-194.809 -133.27)"/>
      <path id="Path_23052" data-name="Path 23052" class="cls-2" d="M284.018,138.154c-.037.222-.148.222-.3.222a2.856,2.856,0,0,0-.555-.074c-1.258,0-1.665.814-1.665,1.924v4.033a.2.2,0,0,1-.222.222h-1.221c-.148,0-.259-.074-.259-.222v-7.326a.2.2,0,0,1,.222-.222h1.073a.2.2,0,0,1,.222.222v.7c0,.111.111.185.185.037a2.506,2.506,0,0,1,2-1.073,1.438,1.438,0,0,1,.555.074c.222.037.222.148.185.333Z" transform="translate(-207.787 -133.27)"/>
      <path id="Path_23053" data-name="Path 23053" class="cls-2" d="M293.936,130.1a1,1,0,1,1-.037-2,1,1,0,1,1,.037,2Zm.592,9.028h-1.221a.2.2,0,0,1-.222-.222v-7.326a.2.2,0,0,1,.222-.222h1.221a.2.2,0,0,1,.222.222V138.9C294.75,138.941,294.787,139.126,294.528,139.126Z" transform="translate(-216.04 -127.915)"/>
      <path id="Path_23054" data-name="Path 23054" class="cls-2" d="M308.279,144.481h-1.221a.2.2,0,0,1-.222-.222V139.6a1.409,1.409,0,0,0-1.517-1.554,1.437,1.437,0,0,0-1.517,1.517v4.662a.2.2,0,0,1-.222.222h-1.221c-.148,0-.259-.074-.259-.222V136.9a.2.2,0,0,1,.222-.222h1.221c.148,0,.185.037.185.222v.37c0,.185.111.148.222.037a2.927,2.927,0,0,1,1.924-.7c1.813,0,2.627,1.184,2.627,2.96v4.7A.2.2,0,0,1,308.279,144.481Z" transform="translate(-221.836 -133.27)"/>
      <path id="Path_23055" data-name="Path 23055" class="cls-2" d="M329.167,137.928a2.458,2.458,0,0,0-.777.037c-.074.037-.259.037-.185.185a2.189,2.189,0,0,1,.259,1.073,3.033,3.033,0,0,1-3.256,2.886H324.8a1.346,1.346,0,0,0-1.073,1.036c0,.074,0,.148.111.111a9.535,9.535,0,0,1,1.813-.222c1.739,0,3.589.629,3.589,2.442a2.593,2.593,0,0,1-1.7,2.257c-.185.074-.37.111-.444-.037l-.444-.74c-.074-.148-.037-.259.148-.37.3-.185.814-.666.814-1.073,0-.777-.814-1.073-1.887-1.073a26.079,26.079,0,0,0-2.738.259c-.3.037-.407-.037-.481-.185a2.2,2.2,0,0,1-.37-1.258,2.008,2.008,0,0,1,1.11-1.591c.111-.037.111-.148,0-.259a2.686,2.686,0,0,1-1.147-2.257,3.032,3.032,0,0,1,3.108-2.849,3.7,3.7,0,0,1,2.072.629c.074.074.148.037.222,0a2.86,2.86,0,0,1,1.665-.592c.222,0,.259.111.259.3v1C329.426,137.891,329.389,137.965,329.167,137.928Zm-3.848-.037a1.451,1.451,0,0,0-1.554,1.443,1.5,1.5,0,0,0,3,0A1.4,1.4,0,0,0,325.319,137.891Z" transform="translate(-234.437 -133.081)"/>
    </g>
  </g>
</svg>
