<svg xmlns="http://www.w3.org/2000/svg" viewBox="3679 -7908 165.263 46.627">
  <defs>
    <style>
      .cls-1 {
        fill: #aca65c;
      }

      .cls-2 {
        fill: #023450;
      }
    </style>
  </defs>
  <g id="Group_12100" data-name="Group 12100" transform="translate(3679 -7908)">
    <path id="Path_6285" data-name="Path 6285" class="cls-1" d="M16.286,18.714c-.3.119-.565.446-.565,1.1l-.03,3.15.089,3.477h-.773c-.03-.624-.3-1.575-.743-1.575-.208,0-.357.059-.921.475A6.643,6.643,0,0,1,9.48,26.827c-.208,0-.416.03-.654.03H8.737A8.294,8.294,0,0,1,3.21,25.014,9.145,9.145,0,0,1,.178,19.279,14.748,14.748,0,0,1,0,17.02C0,11.612,2.259,9,4.458,7.718a8.518,8.518,0,0,1,2.972-1.1l.386-.059a8.079,8.079,0,0,1,6.063,1.724c.178.119.386.327.654.178a.468.468,0,0,0,.208-.208,2.744,2.744,0,0,0,.267-.743l.089-.475V6.916h.654c-.089,1.337-.119,3.091-.119,6.181v.149h-.654v-.03a2.6,2.6,0,0,0-.059-.475,10.161,10.161,0,0,0-.743-2.645A4.959,4.959,0,0,0,13.462,9a3.9,3.9,0,0,0-.892-.8A6.763,6.763,0,0,0,8.856,7.035a5.04,5.04,0,0,0-1.189.119A5.2,5.2,0,0,0,4.755,9.175a11.707,11.707,0,0,0-1.9,6.033,14.914,14.914,0,0,0,.654,5.944c.684,2.11,1.991,4.428,4.428,4.993a6.99,6.99,0,0,0,1.4.119,5.4,5.4,0,0,0,2.794-.8l.089-.059a1.609,1.609,0,0,0,.624-.654,1.75,1.75,0,0,0,.149-.624v-.832l-.059-2.734a1.728,1.728,0,0,0-.921-1.724,6.511,6.511,0,0,0-1.813-.238v-.565l2.021.089h3a12.9,12.9,0,0,0,1.694-.089V18.6A2.315,2.315,0,0,0,16.286,18.714Zm19.376-1.872c0,5.617-3.893,10.223-8.707,10.223s-8.678-4.606-8.678-10.223c0-5.646,3.893-10.223,8.707-10.223S35.662,11.2,35.662,16.842Zm-2.5-.149c0-5.32-2.764-9.658-6.211-9.658-3.418,0-6.181,4.309-6.181,9.658,0,5.32,2.764,9.658,6.181,9.658C30.4,26.352,33.165,22.043,33.165,16.693Z" transform="translate(0 -4.568)"/>
    <path id="Path_6286" data-name="Path 6286" class="cls-2" d="M134.366,0V.475c-1.04,0-1.753,1.07-2.288,2.169l-5.141,10.58v6.449c.3,1.961,2.556,1.872,2.556,1.872v.416h-7.846v-.416s2.11.089,2.526-1.694a2.617,2.617,0,0,0,.059-.505V14.592L117.9,1.9a5.168,5.168,0,0,0-.327-.535A1.681,1.681,0,0,0,116,.505V0h7.043V.475s-2.645.089-2.229,1.278L126.4,12.9l4.547-9.272a3.4,3.4,0,0,0,.267-.892c.446-2.556-2.7-2.259-2.7-2.259V0Zm13.878,21.486a2.063,2.063,0,0,1-.386-.149,3.618,3.618,0,0,1-.951-.951,6.9,6.9,0,0,1-.654-1.218c-.059-.119-6.33-16.523-6.33-16.523V2.585h-.03L138.972,3l-.357.862L138.2,5.022l-3.061,8.054-2.467,6.568c-.921,1.813-2.08,1.872-2.08,1.872v.416h5.32v-.416s-1.961.119-2.407-1.308a2.575,2.575,0,0,1,.089-1.545l1.189-3.18.386-.921h6.716l.386.921,1.248,3.269a3.578,3.578,0,0,1,.149.684,1.7,1.7,0,0,1-1.872,2.051V21.9h6.6v-.416Zm-12.9-7.459.386-.921L138.5,5.8l.03-.089,2.794,7.4.386.921ZM163.1,18.485v-3.15h-.713s-.119,3.507-1.991,5.082a6.014,6.014,0,0,1-1.248.743,9.24,9.24,0,0,1-1.367.475,5.1,5.1,0,0,1-2.675-.03,5.245,5.245,0,0,1-1.9-1.07,6.719,6.719,0,0,1-1.337-1.664,11.384,11.384,0,0,1-.892-1.932c-.03-.119-.089-.178-.119-.3a13.969,13.969,0,0,1-.654-5.944c.565-6.271,3.418-7.667,4.309-7.935a5.3,5.3,0,0,1,1.694-.208A6.124,6.124,0,0,1,159,3.21a4.85,4.85,0,0,1,2.2,1.813c.119.208.267.416.386.654a8.156,8.156,0,0,1,.624,1.872,7.285,7.285,0,0,1,.119,1.129v.089h.654l-.03-2.823.089-3.477h-.594s.03,1.961-1.218,1.545a.956.956,0,0,1-.208-.119,7.637,7.637,0,0,0-4.814-1.813H155.7s-8.351.149-8.351,10.52c0,4.369,2.2,9.807,8.767,9.807h.089a7.618,7.618,0,0,0,4.9-1.843c1.367-1.07,1.426,1.426,1.426,1.426h.594Zm4.071-13.7c.03.535,0,14.859,0,14.889a1.737,1.737,0,0,1-.059.535c-.386,1.456-2.2,1.4-2.2,1.4v.386h6.954v-.386s-2.2.119-2.288-1.9V12.482h9.213v7.132a2.005,2.005,0,0,1-.059.416c-.327,1.634-2.229,1.545-2.229,1.545v.386h6.954v-.386s-1.783.089-2.2-1.4a1.737,1.737,0,0,1-.059-.535V4.785a1.309,1.309,0,0,1,.059-.475c.357-1.545,2.2-1.456,2.2-1.456V2.467h-6.954v.386s1.872-.089,2.229,1.456a2.6,2.6,0,0,1,.059.475v7.162h-9.213V4.785a2.6,2.6,0,0,1,.059-.475c.386-1.545,2.229-1.456,2.229-1.456V2.467h-6.954v.386a4.928,4.928,0,0,1,.862.119,2.013,2.013,0,0,1,.713.357,2.111,2.111,0,0,1,.565.684A1.572,1.572,0,0,1,167.175,4.785ZM200.31,2.467H185.035v5.8h.654c0-2.467.505-5.26,3.715-5.26h2.11V19.644a1.683,1.683,0,0,1-.089.535c-.505,1.486-2.764,1.426-2.764,1.426v.386h8.083v-.386s-2.259.089-2.734-1.426a1.683,1.683,0,0,1-.089-.535V3H196c3.21,0,3.715,2.794,3.715,5.26h.654v-5.8Zm6.271,17.207V4.785a2.6,2.6,0,0,1,.059-.475c.386-1.545,2.2-1.456,2.2-1.456V2.467h-6.924v.386s1.843-.089,2.2,1.456a2.6,2.6,0,0,1,.059.475V19.673a1.83,1.83,0,0,1-.089.535c-.386,1.456-2.2,1.4-2.2,1.4v.386h6.954v-.386C208.869,21.575,206.67,21.694,206.581,19.673Zm3.953-17.207v.416s2.288-.119,2.288,1.753V19.614a2.6,2.6,0,0,1-.059.475c-.386,1.575-2.229,1.486-2.229,1.486v.386h5.082v-.386s-1.872.089-2.2-1.456a1.308,1.308,0,0,1-.059-.475V4.042l11.56,17.92h.624V18.485L215.169,2.467Zm13.343,0v.386s2.377-.089,2.467,1.9V12.3L219.984,2.5h-2.853l9.153,14.146h.624V4.725c.119-1.991,2.259-1.9,2.259-1.9V2.467ZM246.79,14.146v-.565a12.9,12.9,0,0,1-1.694.089h-3l-2.021-.089v.565a6.511,6.511,0,0,1,1.813.238,1.728,1.728,0,0,1,.921,1.724l.059,2.734v.832a3.213,3.213,0,0,1-.149.624,2.081,2.081,0,0,1-.624.654l-.089.059a5.569,5.569,0,0,1-2.794.8,7.187,7.187,0,0,1-1.4-.119c-2.437-.565-3.744-2.883-4.428-4.993a13.969,13.969,0,0,1-.654-5.944,11.812,11.812,0,0,1,1.9-6.033,4.764,4.764,0,0,1,4.1-2.14,6.531,6.531,0,0,1,3.715,1.159,3.9,3.9,0,0,1,.892.8,4.361,4.361,0,0,1,.713,1.1,9.123,9.123,0,0,1,.743,2.645,2.6,2.6,0,0,1,.059.475V8.8h.654V8.648c0-3.091.03-4.844.119-6.181h-.654v.119l-.089.475a2.017,2.017,0,0,1-.267.743.7.7,0,0,1-.208.208c-.268.119-.476-.059-.654-.178a7.74,7.74,0,0,0-4.874-1.783,7.966,7.966,0,0,0-1.189.059l-.386.059a8.518,8.518,0,0,0-2.972,1.1c-2.2,1.278-4.458,3.893-4.458,9.3a14.749,14.749,0,0,0,.178,2.259,8.7,8.7,0,0,0,3.061,5.706,8.294,8.294,0,0,0,5.528,1.843h.089c.208,0,.416-.03.654-.03a7.066,7.066,0,0,0,3.863-1.486c.565-.416.684-.475.921-.475.446,0,.713.951.743,1.575h.773l-.089-3.477.03-3.15a1.091,1.091,0,0,1,.565-1.1A1.369,1.369,0,0,1,246.79,14.146Z" transform="translate(-81.527)"/>
    <path id="Path_6287" data-name="Path 6287" class="cls-2" d="M195.94,113.668a1.171,1.171,0,0,0-1.308-.951,3.893,3.893,0,0,0-2.318,1.783c-.208.238-.386.505-.624.743a17.128,17.128,0,0,0,.386-2.526.217.217,0,0,0-.178-.208.224.224,0,0,0-.208.149c-.357,2.5-1.308,3.447-1.456,3.566a13.713,13.713,0,0,1-3.477.565,11.433,11.433,0,0,1,1.01-2.437,9.4,9.4,0,0,0,1.04-1.486c.535-.921.535-1.01.416-1.1a.181.181,0,0,0-.238,0,12.7,12.7,0,0,0-1.516,2.407,9.916,9.916,0,0,1-5.676,3.418c-.713.059-1.07-.505-1.426-1.04-.3-.475-.624-.981-1.159-.773a7.3,7.3,0,0,0-2.051,1.545c.089-.3.238-.654.357-1.07.089-.089.178-.208.267-.3,1.516-1.932,2.7-4.577,2.7-5.617,0-.357-.178-.416-.267-.446-.594-.089-1.724,2.169-2.229,3.744-.267.892-.565,1.724-.8,2.407-1.337,1.248-4.279,2.051-5.409,1.6a.669.669,0,0,1-.475-.684,1.264,1.264,0,0,1,.059-.327c.267-.208.535-.446.832-.713.8-.8.832-1.07.743-1.218a.286.286,0,0,0-.327-.119,2.945,2.945,0,0,0-1.545,1.813,3.863,3.863,0,0,1-4.131.535c-.624-.446-1.308.446-1.753,1.04a.65.65,0,0,0-.089.149,4.123,4.123,0,0,0,.089-.505,4.79,4.79,0,0,1,.327-1.129,4.154,4.154,0,0,0,.981-.565.316.316,0,0,0,.059-.357.4.4,0,0,0-.446-.208c-.178.03-.535.149-.892.862-.475.238-1.01.475-1.486.713-.565.267-1.129.535-1.575.743a5.17,5.17,0,0,0-.535.327c.832-1.456,1.932-3.418,2.7-4.814a.161.161,0,0,0-.059-.238.18.18,0,0,0-.238.03,8.224,8.224,0,0,1-2.675,2.377.092.092,0,0,1-.059.03,10.539,10.539,0,0,1,.773-3.626.188.188,0,0,0-.357-.119c-.357,1.07-1.159,3.655-.654,4.042a.428.428,0,0,0,.476,0,9.191,9.191,0,0,0,1.634-1.189c-.951,1.664-1.961,3.477-2.526,4.487a2.625,2.625,0,0,0-.535.951.244.244,0,0,0,.119.178h.059a.227.227,0,0,0,.149-.059c.03-.03.208-.357.505-.832a4.288,4.288,0,0,1,1.4-1.189c.416-.208.981-.475,1.575-.743.416-.208.8-.386,1.129-.535a4.845,4.845,0,0,0-.208.832c-.178.832-.178,1.07.03,1.159s.357-.119.654-.505c.327-.446.892-1.189,1.248-.951a4.08,4.08,0,0,0,4.22-.327V117a.984.984,0,0,0,.713,1.04c1.218.475,3.8-.238,5.32-1.308-.267.773-.446,1.248-.446,1.278a.154.154,0,0,0,.089.208.184.184,0,0,0,.238-.03,10.561,10.561,0,0,1,2.5-2.021c.238-.089.416.119.743.624.357.594.8,1.308,1.753,1.218a9.825,9.825,0,0,0,5.141-2.7,12.634,12.634,0,0,0-.565,1.575c-.535.03-.892.03-.921.03a.178.178,0,1,0,0,.357c.059,0,.357,0,.832-.03a2.665,2.665,0,0,0,.059,1.545.18.18,0,0,0,.327-.149,2.43,2.43,0,0,1-.03-1.4,11.727,11.727,0,0,0,4.4-.892c-.178.743-.446,1.545-.743,2.407a.177.177,0,0,0,.119.238h.059a.244.244,0,0,0,.178-.119,24.673,24.673,0,0,0,.892-2.942,12.622,12.622,0,0,0,1.04-1.159c.624-.8,1.189-1.545,2.08-1.664a.835.835,0,0,1,.921.684,2.664,2.664,0,0,1-1.843,2.883,2.818,2.818,0,0,1-1.426.059.188.188,0,0,0-.119.357,2.966,2.966,0,0,0,1.635-.059A3.056,3.056,0,0,0,195.94,113.668Zm-17.593.119a9.26,9.26,0,0,1,1.783-3.447v.03a12.233,12.233,0,0,1-2.259,4.9C177.99,114.8,178.169,114.322,178.347,113.787Zm-5.884,1.308q-.134.178-.535.624l-.267.267A2.673,2.673,0,0,1,172.463,115.095Zm-6.36.713h.059c-.059.03-.149.089-.267.149A.323.323,0,0,1,166.1,115.808Zm25.142-.089a.788.788,0,0,1-.178.149h-.03c.089-.119.149-.267.238-.416C191.274,115.54,191.245,115.63,191.245,115.719Zm45.2.089a.222.222,0,0,0-.268,0,16.286,16.286,0,0,1-3.507,2.318c-.327.178-.683.386-1.01.565a12.145,12.145,0,0,0,.3-2.764.163.163,0,0,0-.089-.149.189.189,0,0,0-.178,0,13.014,13.014,0,0,1-4.517,1.159,5.73,5.73,0,0,1,.089-1.456,8.943,8.943,0,0,0,2.407-3.536.261.261,0,0,0-.03-.208.183.183,0,0,0-.208-.03,4.717,4.717,0,0,0-1.694,1.575,5.436,5.436,0,0,0-.8,1.991,12.066,12.066,0,0,1-4.279,2.229c-.594.208-.981.178-1.218-.03-.446-.446-.089-1.694.059-2.14a.2.2,0,0,0-.089-.238.186.186,0,0,0-.238.059c-.03.03-2.14,2.645-4.785,2.645-.654,0-1.07-.149-1.189-.386-.178-.446.475-1.278.713-1.516a.179.179,0,0,0-.178-.3l-.862.238a14.5,14.5,0,0,0-7.222,4.844,2.6,2.6,0,0,1-.238.3c.981-2.229,2.288-4.487,2.585-5.022a.225.225,0,0,0,.059-.119.187.187,0,0,0-.089-.238.156.156,0,0,0-.238.059l-.059.119a1.2,1.2,0,0,1-.773.446,12.333,12.333,0,0,0-3.566,1.01,3.191,3.191,0,0,1-1.367.386.431.431,0,0,1-.178-.03c-.059-.149.475-.862,1.278-1.575a.18.18,0,0,0,.03-.238.174.174,0,0,0-.208-.089,27.927,27.927,0,0,0-3.655,1.6c-.892.505-1.218.476-1.278.416-.03-.03-.059-.178.149-.565.208-.416.238-.713.119-.921a.6.6,0,0,0-.475-.238,9.3,9.3,0,0,0-4.755.327.188.188,0,0,0,.119.357,9.251,9.251,0,0,1,4.577-.327h.059c.03,0,.149,0,.178.059.03.03.059.149-.119.535-.267.475-.3.8-.089,1.01.267.267.832.149,1.724-.357a26.955,26.955,0,0,1,2.764-1.248c-.446.475-.862,1.01-.713,1.337a.494.494,0,0,0,.505.267,3.631,3.631,0,0,0,1.516-.416,12.784,12.784,0,0,1,3.447-.981,3.043,3.043,0,0,0,.327-.089,35.112,35.112,0,0,0-3.21,7.192h0a.158.158,0,0,0,.149.208h.03a.188.188,0,0,0,.178-.149h0a8.983,8.983,0,0,1,1.545-2.912,14.276,14.276,0,0,1,7.014-4.7l.3-.089a1.6,1.6,0,0,0-.386,1.456q.267.624,1.516.624a7.017,7.017,0,0,0,4.547-2.2,2.048,2.048,0,0,0,.238,1.783c.327.327.862.357,1.575.119a13.373,13.373,0,0,0,4.071-2.021c-.03.357-.03.743-.03,1.159-.624.059-1.01.059-1.04.059a.178.178,0,1,0,0,.357h0c.059,0,.446,0,1.04-.059a8.043,8.043,0,0,0,.267,1.545.169.169,0,1,0,.327-.089,9.841,9.841,0,0,1-.267-1.486,14.355,14.355,0,0,0,4.4-1.07,11.136,11.136,0,0,1-.357,2.7c-.119.059-.238.149-.357.208a3.715,3.715,0,0,0-1.872,2.5.394.394,0,0,0,.238.327c.03,0,.089.03.119.03.238,0,.565-.208,1.01-.654a5.02,5.02,0,0,0,1.189-2.169c.446-.267.892-.505,1.337-.743a16.759,16.759,0,0,0,3.6-2.377C236.535,115.986,236.535,115.867,236.446,115.808Zm-7.37-3.477a8.768,8.768,0,0,1-1.694,2.5A4.946,4.946,0,0,1,229.076,112.331Zm1.01,8.767c-.505.505-.713.535-.713.535a3.22,3.22,0,0,1,1.694-2.169h0A4.533,4.533,0,0,1,230.086,121.1Zm-20.357-8.2a.171.171,0,0,1,.178-.178l3.3-.178a.178.178,0,0,1,0,.357l-3.3.178h0A.171.171,0,0,1,209.729,112.9Z" transform="translate(-112.521 -77.234)"/>
  </g>
</svg>
