<svg xmlns="http://www.w3.org/2000/svg" width="19" height="17" viewBox="0 0 19 17">
  <metadata><?xpacket begin="﻿" id="W5M0MpCehiHzreSzNTczkc9d"?>
<x:xmpmeta xmlns:x="adobe:ns:meta/" x:xmptk="Adobe XMP Core 5.6-c138 79.159824, 2016/09/14-01:09:01        ">
   <rdf:RDF xmlns:rdf="http://www.w3.org/1999/02/22-rdf-syntax-ns#">
      <rdf:Description rdf:about=""/>
   </rdf:RDF>
</x:xmpmeta>
                                                                                                    
                                                                                                    
                                                                                                    
                                                                                                    
                                                                                                    
                                                                                                    
                                                                                                    
                                                                                                    
                                                                                                    
                                                                                                    
                                                                                                    
                                                                                                    
                                                                                                    
                                                                                                    
                                                                                                    
                                                                                                    
                                                                                                    
                                                                                                    
                                                                                                    
                                                                                                    
                           
<?xpacket end="w"?></metadata>
<defs>
    <style>
      .cls-1 {
        fill: #fffcfc;
        fill-rule: evenodd;
      }
    </style>
  </defs>
  <path id="submit-icon" class="cls-1" d="M1140.8,739.065h0.01l-3.07-5.661a1.053,1.053,0,0,0-.96-0.406h-10.54a1.01,1.01,0,0,0-1.03.517h0l-3,5.531h0a1.5,1.5,0,0,0-.21.757v8.654a1.567,1.567,0,0,0,1.59,1.546h15.83a1.565,1.565,0,0,0,1.58-1.546V739.8A1.435,1.435,0,0,0,1140.8,739.065Zm-6.76,7.229h-5.07v-1.855h5.07v1.855Zm0-3.091h-5.07v-1.237h5.07V743.2Zm-0.14-4.362a0.79,0.79,0,0,1-.66.344h-3.48a0.8,0.8,0,0,1-.63-0.31h0a1.366,1.366,0,0,0-1.11-.618h-3.48l2.05-4.018h9.82l2.06,4.018h-3.49A1.316,1.316,0,0,0,1133.9,738.841Zm5.84,1.889h-1.27v-1.236h1.27v1.236Z" transform="translate(-1122 -733)"/>
</svg>
