<svg xmlns="http://www.w3.org/2000/svg" viewBox="9728 871 16.047 13.79">
  <defs>
    <style>
      .cls-1 {
        fill: #9aa6af;
      }
    </style>
  </defs>
  <path id="Path_18279" data-name="Path 18279" class="cls-1" d="M14.542,3.009V1.5H4.764V1a1.006,1.006,0,0,0-1-1H1A1.006,1.006,0,0,0,0,1V12.161a1.627,1.627,0,0,0,1.63,1.63H14.668a1.391,1.391,0,0,0,1.379-1.379v-9.4Zm.5,9.4a.386.386,0,0,1-.376.376H3.134c0-.025.025-.05.025-.075s.025-.05.025-.075.025-.05.025-.1a.092.092,0,0,1,.025-.075.151.151,0,0,1,.025-.1V4.012H15.044Z" transform="translate(9728 871)"/>
</svg>
