<svg xmlns="http://www.w3.org/2000/svg" viewBox="669 5367 32.1 23">
  <defs>
    <style>
      .cls-1 {
        fill: #fff;
      }
    </style>
  </defs>
  <path id="Path_52590" data-name="Path 52590" class="cls-1" d="M29,11.8v-9A2.862,2.862,0,0,0,26.2,0H2.9A2.9,2.9,0,0,0,0,2.9V17.2A2.883,2.883,0,0,0,2.9,20h18a6,6,0,0,0,11.2-3A6.275,6.275,0,0,0,29,11.8ZM25.5,2l-11,9.7L3.5,2ZM2.9,18a.882.882,0,0,1-.9-.8V3.3L13.8,13.7a.844.844,0,0,0,.7.2,1.854,1.854,0,0,0,.7-.2L27,3.3v7.8a3.4,3.4,0,0,0-1-.1,6.018,6.018,0,0,0-6,6,3.4,3.4,0,0,0,.1,1ZM29,18H27v2H25V18H23V16h2V14h2v2h2Z" transform="translate(669 5367)"/>
</svg>
