<svg xmlns="http://www.w3.org/2000/svg" width="17" height="17" viewBox="0 0 17 17">
  <metadata><?xpacket begin="﻿" id="W5M0MpCehiHzreSzNTczkc9d"?>
<x:xmpmeta xmlns:x="adobe:ns:meta/" x:xmptk="Adobe XMP Core 5.6-c138 79.159824, 2016/09/14-01:09:01        ">
   <rdf:RDF xmlns:rdf="http://www.w3.org/1999/02/22-rdf-syntax-ns#">
      <rdf:Description rdf:about=""/>
   </rdf:RDF>
</x:xmpmeta>
                                                                                                    
                                                                                                    
                                                                                                    
                                                                                                    
                                                                                                    
                                                                                                    
                                                                                                    
                                                                                                    
                                                                                                    
                                                                                                    
                                                                                                    
                                                                                                    
                                                                                                    
                                                                                                    
                                                                                                    
                                                                                                    
                                                                                                    
                                                                                                    
                                                                                                    
                                                                                                    
                           
<?xpacket end="w"?></metadata>
<defs>
    <style>
      .cls-1 {
        fill: #64737f;
        fill-rule: evenodd;
      }
    </style>
  </defs>
  <path id="company-icon" class="cls-1" d="M831.611,543.964l-0.362-.324,0,0-0.751-.67-0.911.823-5.606,5.016v5.754A1.429,1.429,0,0,0,825.394,556h10.2a1.429,1.429,0,0,0,1.417-1.439v-5.765l-5.384-4.817Zm7,1.911-7.361-6.587a1.12,1.12,0,0,0-1.5,0l-7.361,6.587a1.163,1.163,0,0,0-.1,1.624,1.12,1.12,0,0,0,1.6.1l6.611-5.916,6.612,5.916a1.119,1.119,0,0,0,1.6-.1A1.163,1.163,0,0,0,838.61,545.875Z" transform="translate(-822 -539)"/>
</svg>
