<svg xmlns="http://www.w3.org/2000/svg" viewBox="-10438.273 9311 29 25.466">
  <defs>
    <style>
      .cls-1 {
        fill: #002766;
        fill-rule: evenodd;
      }
    </style>
  </defs>
  <path id="Path_6589" data-name="Path 6589" class="cls-1" d="M7.133,11.682,18.668.147a.725.725,0,0,1,.812,0L28.9,9.57a.738.738,0,0,1,0,.812L17.368,21.917a.738.738,0,0,1-.812,0L7.133,12.494a.46.46,0,0,1,0-.812Zm19.008,11.86a.975.975,0,1,1-.975.975c.162-.487.487-.975.975-.975Zm-3.249,0a.975.975,0,1,1-.975.975c.162-.487.487-.975.975-.975Zm-3.737-.812a1.3,1.3,0,1,1-1.3,1.3,1.4,1.4,0,0,1,1.3-1.3ZM.147,18.668a.725.725,0,0,0,0,.812l5.686,5.686c.162.162.162.162.325.162h7.473c.162,0,.325,0,.325-.162l1.787-1.787a.738.738,0,0,0,0-.812l-9.26-9.423a.725.725,0,0,0-.812,0Z" transform="translate(-10438.299 9310.975)"/>
</svg>
