<svg xmlns="http://www.w3.org/2000/svg" viewBox="203.833 959.282 32.479 25.081">
  <defs>
    <style>
      .cls-1 {
        fill: #a5a5a4;
      }
    </style>
  </defs>
  <g id="Group_3378" data-name="Group 3378" transform="translate(203.833 959.282)">
    <path id="Path_21995" data-name="Path 21995" class="cls-1" d="M14.242,12.856V7.312h4.014L9.224,0,0,7.6c0,.1,4.206,0,4.206,0v5.257Z"/>
    <path id="Path_21996" data-name="Path 21996" class="cls-1" d="M80.5,149h-4a13.287,13.287,0,0,0,9.195,10.418A14.844,14.844,0,0,1,80.5,149Z" transform="translate(-69.188 -134.758)"/>
    <path id="Path_21997" data-name="Path 21997" class="cls-1" d="M144.046,2.854a11.674,11.674,0,0,0-2.256-.335c-.229-.01-.468-.019-.7-.019-.2,0-.4.01-.593.019a10.72,10.72,0,0,0-1,.6,12.238,12.238,0,0,0-1.558,1.271,13.223,13.223,0,0,0-1.357,1.548c.344.287.746.621,1.1.927a10.613,10.613,0,0,1,2.839-2.715v10.38h-4.062V15.2h4.053v4.4h-4.578a14.132,14.132,0,0,1-.688-3.106H133.8a14.461,14.461,0,0,0,4.12,8.956,10.912,10.912,0,0,0,1.558,1.271,10.723,10.723,0,0,0,1,.6c.2.01.392.019.593.019.239,0,.468-.01.7-.019a12.426,12.426,0,0,0,2.275-24.469ZM140.51,25.688a11.449,11.449,0,0,1-4.33-5.41h4.33Zm11.556-11.145h-3.517a16.024,16.024,0,0,0-.717-4.387v-.01H151A10.947,10.947,0,0,1,152.066,14.543Zm-3.212-7.388a10.869,10.869,0,0,1,1.778,2.323h-3.039A13.646,13.646,0,0,0,144.4,4.45V4.44A10.946,10.946,0,0,1,148.854,7.155Zm-6.911-2.867h0l.019.01a11.513,11.513,0,0,1,4.1,5.181h-4.11V4.287Zm0,5.859h4.368l.01.01a14.228,14.228,0,0,1,.793,4.387h-5.171Zm0,5.066h5.171v.01a14.27,14.27,0,0,1-.765,4.387h-4.406Zm0,10.351h0V20.278h4.186l-.01.029A11.484,11.484,0,0,1,141.944,25.564Zm6.911-2.867a10.929,10.929,0,0,1-4.425,2.7,13.636,13.636,0,0,0,3.212-5.114v-.01h3.049A10.914,10.914,0,0,1,148.854,22.7Zm-.994-3.087a15.958,15.958,0,0,0,.688-4.387v-.01h3.527a10.764,10.764,0,0,1-1.042,4.4Z" transform="translate(-121.011 -2.261)"/>
  </g>
</svg>
