<svg xmlns="http://www.w3.org/2000/svg" viewBox="10289 803.894 10.691 17.106">
  <defs>
    <style>
      .cls-1 {
        fill: #9aa6af;
      }
    </style>
  </defs>
  <g id="Group_2902" data-name="Group 2902" transform="translate(10289 803.894)">
    <g id="Group_2901" data-name="Group 2901">
      <path id="Path_18278" data-name="Path 18278" class="cls-1" d="M5.346,0A5.361,5.361,0,0,0,0,5.346a2.023,2.023,0,0,0,.027.4c.027.294.08.588.134.882.882,4.036,5.185,10.478,5.185,10.478s4.3-6.442,5.185-10.478a5.029,5.029,0,0,0,.134-.882c0-.134.027-.267.027-.4A5.361,5.361,0,0,0,5.346,0ZM1.2,6.388h0A3.365,3.365,0,0,1,1.1,5.666h0a1.534,1.534,0,0,1-.027-.321A4.289,4.289,0,0,1,5.346,1.069v1.6h0a2.673,2.673,0,0,1,0,5.346h0V15.1C4.063,13.017,1.791,9.088,1.2,6.388Z"/>
      <circle id="Ellipse_682" data-name="Ellipse 682" class="cls-1" cx="1.604" cy="1.604" r="1.604" transform="translate(3.742 3.742)"/>
    </g>
  </g>
</svg>
