<svg xmlns="http://www.w3.org/2000/svg" width="62.19" height="14" viewBox="0 0 62.19 14">
  <metadata><?xpacket begin="﻿" id="W5M0MpCehiHzreSzNTczkc9d"?>
<x:xmpmeta xmlns:x="adobe:ns:meta/" x:xmptk="Adobe XMP Core 5.6-c138 79.159824, 2016/09/14-01:09:01        ">
   <rdf:RDF xmlns:rdf="http://www.w3.org/1999/02/22-rdf-syntax-ns#">
      <rdf:Description rdf:about=""/>
   </rdf:RDF>
</x:xmpmeta>
                                                                                                    
                                                                                                    
                                                                                                    
                                                                                                    
                                                                                                    
                                                                                                    
                                                                                                    
                                                                                                    
                                                                                                    
                                                                                                    
                                                                                                    
                                                                                                    
                                                                                                    
                                                                                                    
                                                                                                    
                                                                                                    
                                                                                                    
                                                                                                    
                                                                                                    
                                                                                                    
                           
<?xpacket end="w"?></metadata>
<defs>
    <style>
      .cls-1 {
        fill: #64737f;
        fill-rule: evenodd;
      }
    </style>
  </defs>
  <path id="close-icon" class="cls-1" d="M1260.57,303.691l-3.7-3.7,3.7-3.7a1.447,1.447,0,0,0,0-2.054l-0.82-.822a1.448,1.448,0,0,0-2.05,0l-3.7,3.7-3.7-3.7a1.448,1.448,0,0,0-2.05,0l-0.83.822a1.466,1.466,0,0,0,0,2.054l3.7,3.7-3.7,3.7a1.466,1.466,0,0,0,0,2.054l0.83,0.822a1.448,1.448,0,0,0,2.05,0l3.7-3.7,3.7,3.7a1.448,1.448,0,0,0,2.05,0l0.82-.822A1.447,1.447,0,0,0,1260.57,303.691Zm13.41-2.206a4.354,4.354,0,0,1-.23.9,1.87,1.87,0,0,1-.42.669,1.824,1.824,0,0,1-.69.417,3.123,3.123,0,0,1-1.02.144,2.19,2.19,0,0,1-1.1-.265,2.324,2.324,0,0,1-.77-0.728,3.247,3.247,0,0,1-.44-1.079,5.568,5.568,0,0,1-.15-1.319v-0.97a5.426,5.426,0,0,1,.16-1.381,3.079,3.079,0,0,1,.49-1.069,2.321,2.321,0,0,1,.81-0.689,2.414,2.414,0,0,1,1.12-.246,2.647,2.647,0,0,1,.94.151,1.8,1.8,0,0,1,.66.433,2.145,2.145,0,0,1,.42.682,4.465,4.465,0,0,1,.22.9h1.26a4.1,4.1,0,0,0-.32-1.3,3.015,3.015,0,0,0-.7-1.011,3.065,3.065,0,0,0-1.05-.659,4.077,4.077,0,0,0-1.43-.236,3.873,3.873,0,0,0-1.6.318,3.337,3.337,0,0,0-1.21.9,4.12,4.12,0,0,0-.77,1.4,5.774,5.774,0,0,0-.27,1.82v0.957a5.746,5.746,0,0,0,.27,1.817,4.1,4.1,0,0,0,.75,1.394,3.371,3.371,0,0,0,1.18.9,3.641,3.641,0,0,0,1.53.315,4.31,4.31,0,0,0,1.51-.24,3.125,3.125,0,0,0,1.08-.662,3.023,3.023,0,0,0,.7-1,4.28,4.28,0,0,0,.33-1.256h-1.26Zm4.79-6.52h-1.27v9.55h5.79v-1.03h-4.52v-8.52Zm13.41,4.48a6.386,6.386,0,0,0-.27-1.925,4.255,4.255,0,0,0-.77-1.453,3.374,3.374,0,0,0-1.22-.915,3.812,3.812,0,0,0-1.58-.318,3.737,3.737,0,0,0-1.55.318,3.374,3.374,0,0,0-1.22.915,4.271,4.271,0,0,0-.78,1.453,6.071,6.071,0,0,0-.29,1.925v0.6a6.031,6.031,0,0,0,.29,1.925,4.115,4.115,0,0,0,.79,1.446,3.429,3.429,0,0,0,1.22.912,3.768,3.768,0,0,0,1.55.315,3.81,3.81,0,0,0,1.58-.315,3.228,3.228,0,0,0,1.21-.912,4.248,4.248,0,0,0,.77-1.446,6.345,6.345,0,0,0,.27-1.925v-0.6Zm-1.25.6a6.224,6.224,0,0,1-.17,1.515,3.135,3.135,0,0,1-.5,1.105,2.138,2.138,0,0,1-.81.679,2.531,2.531,0,0,1-1.1.23,2.415,2.415,0,0,1-1.06-.23,2.246,2.246,0,0,1-.82-0.679,3.351,3.351,0,0,1-.53-1.105,5.744,5.744,0,0,1-.18-1.515v-0.616a5.723,5.723,0,0,1,.18-1.509,3.325,3.325,0,0,1,.52-1.1,2.264,2.264,0,0,1,.82-0.675,2.415,2.415,0,0,1,1.06-.23,2.486,2.486,0,0,1,1.09.23,2.184,2.184,0,0,1,.82.675,3.315,3.315,0,0,1,.51,1.1,6.2,6.2,0,0,1,.17,1.509v0.616Zm8.24,3.162a2.5,2.5,0,0,1-1.53.406,3.581,3.581,0,0,1-.89-0.108,2.308,2.308,0,0,1-.75-0.338,1.665,1.665,0,0,1-.51-0.58,1.712,1.712,0,0,1-.2-0.843h-1.26a2.487,2.487,0,0,0,.14.879,2.623,2.623,0,0,0,.4.721,2.825,2.825,0,0,0,.6.564,3.709,3.709,0,0,0,.75.407,4.456,4.456,0,0,0,.84.246,5.063,5.063,0,0,0,2.25-.1,3.158,3.158,0,0,0,1.05-.514,2.339,2.339,0,0,0,.67-0.807,2.3,2.3,0,0,0,.24-1.056,2.609,2.609,0,0,0-.19-1,2.456,2.456,0,0,0-.57-0.793,3.829,3.829,0,0,0-.98-0.633,8.969,8.969,0,0,0-1.4-.509,8.629,8.629,0,0,1-1.01-.341,2.672,2.672,0,0,1-.69-0.387,1.349,1.349,0,0,1-.4-0.459,1.135,1.135,0,0,1-.13-0.551,1.556,1.556,0,0,1,.12-0.616,1.324,1.324,0,0,1,.36-0.489,1.732,1.732,0,0,1,.62-0.324,2.845,2.845,0,0,1,.87-0.119,2.9,2.9,0,0,1,.94.138,1.758,1.758,0,0,1,.65.387,1.446,1.446,0,0,1,.39.59,2,2,0,0,1,.13.742h1.27a2.729,2.729,0,0,0-.23-1.083,2.652,2.652,0,0,0-.65-0.924,3.285,3.285,0,0,0-1.06-.643,3.981,3.981,0,0,0-1.44-.243,4.241,4.241,0,0,0-1.33.2,3.153,3.153,0,0,0-1.02.548,2.587,2.587,0,0,0-.66.826,2.387,2.387,0,0,0-.23,1.033,2.237,2.237,0,0,0,.21.99,2.616,2.616,0,0,0,.62.771,4.33,4.33,0,0,0,.98.6,9.309,9.309,0,0,0,1.28.462,10.024,10.024,0,0,1,1.12.384,3.08,3.08,0,0,1,.7.4,1.217,1.217,0,0,1,.36.469,1.544,1.544,0,0,1,.1.59A1.333,1.333,0,0,1,1299.17,303.21Zm9.34-4.139h-4.13V296h4.74v-1.037h-6v9.55h6.06v-1.03h-4.8V300.1h4.13v-1.03Z" transform="translate(-1247 -293)"/>
</svg>
