<svg xmlns="http://www.w3.org/2000/svg" viewBox="10286 865.629 15.785 15.785">
  <defs>
    <style>
      .cls-1 {
        fill: #9aa6af;
      }
    </style>
  </defs>
  <path id="Path_18280" data-name="Path 18280" class="cls-1" d="M7.892,0a7.892,7.892,0,1,0,7.892,7.892A7.916,7.916,0,0,0,7.892,0Zm5.056,12.579a7.389,7.389,0,0,0-3.157-1.6l-.1-.025-.074-.074a.776.776,0,0,1-.2-.641v-.1a1.776,1.776,0,0,1,.123-.715,5.612,5.612,0,0,0,.271-.839l.025-.1L9.89,8.41a2.434,2.434,0,0,0,.345-.913,1.486,1.486,0,0,0,0-.839l-.025-.074V6.511a6.962,6.962,0,0,1,.1-1.085,2.284,2.284,0,0,0-.444-1.554,2.3,2.3,0,0,0-1.751-.839L7.892,2.96H7.72A2.385,2.385,0,0,0,5.969,3.8a2.046,2.046,0,0,0-.444,1.554,7.215,7.215,0,0,1,.1,1.085v.074L5.6,6.585a1.466,1.466,0,0,0,0,.839,2.276,2.276,0,0,0,.345.913l.049.074.025.1a2.97,2.97,0,0,0,.271.863,1.776,1.776,0,0,1,.123.715v.1a1.013,1.013,0,0,1-.2.641l-.074.074-.1.025a7.678,7.678,0,0,0-3.157,1.6,6.442,6.442,0,0,1-1.9-4.637,6.906,6.906,0,0,1,13.812,0A6.816,6.816,0,0,1,12.949,12.579Z" transform="translate(10286 865.629)"/>
</svg>
