<svg xmlns="http://www.w3.org/2000/svg" viewBox="10287 1008 15.94 8.966">
  <defs>
    <style>
      .cls-1 {
        fill: #9aa6af;
      }
    </style>
  </defs>
  <path id="Path_18327" data-name="Path 18327" class="cls-1" d="M15.069.5a1.35,1.35,0,0,0-.623.149h0L10.959,2.217V1.37A1.382,1.382,0,0,0,9.589,0H1.37A1.382,1.382,0,0,0,0,1.37V7.6a1.382,1.382,0,0,0,1.37,1.37H9.589a1.382,1.382,0,0,0,1.37-1.37V6.75l3.487,1.569h0a1.279,1.279,0,0,0,.623.149h.872V.5ZM9.963,2.989h0v2.64a.362.362,0,0,1-.374.349H1.37A.383.383,0,0,1,1,5.6V1.37A.383.383,0,0,1,1.37,1H9.589a.383.383,0,0,1,.374.374Zm3.985,1.519H10.959v-1.2l2.989-1.345Z" transform="translate(10287 1008)"/>
</svg>
