<svg id="close-icon" xmlns="http://www.w3.org/2000/svg" width="85" height="308" viewBox="0 0 85 308">
  <metadata><?xpacket begin="﻿" id="W5M0MpCehiHzreSzNTczkc9d"?>
<x:xmpmeta xmlns:x="adobe:ns:meta/" x:xmptk="Adobe XMP Core 5.6-c138 79.159824, 2016/09/14-01:09:01        ">
   <rdf:RDF xmlns:rdf="http://www.w3.org/1999/02/22-rdf-syntax-ns#">
      <rdf:Description rdf:about=""/>
   </rdf:RDF>
</x:xmpmeta>
                                                                                                    
                                                                                                    
                                                                                                    
                                                                                                    
                                                                                                    
                                                                                                    
                                                                                                    
                                                                                                    
                                                                                                    
                                                                                                    
                                                                                                    
                                                                                                    
                                                                                                    
                                                                                                    
                                                                                                    
                                                                                                    
                                                                                                    
                                                                                                    
                                                                                                    
                                                                                                    
                           
<?xpacket end="w"?></metadata>
<defs>
    <style>
      .cls-1 {
        fill: #002766;
      }

      .cls-1, .cls-2 {
        fill-rule: evenodd;
      }

      .cls-2 {
        fill: #fff;
      }
    </style>
  </defs>
  <path id="Rectangle_1_copy" data-name="Rectangle 1 copy" class="cls-1" d="M78,308V130H43V0H85V308H78Z"/>
  <path id="CLOSE" class="cls-2" d="M65.275,101.757a3.723,3.723,0,0,1,1.056.222,1.929,1.929,0,0,1,1.2,1.292,3.847,3.847,0,0,1,.148,1.135,2.777,2.777,0,0,1-.264,1.264,2.117,2.117,0,0,1-.792.853,3.878,3.878,0,0,1-1.315.481,9.71,9.71,0,0,1-1.834.153H62.57a5.766,5.766,0,0,1-3.173-.69,2.357,2.357,0,0,1-1.024-2.1,3.684,3.684,0,0,1,.162-1.167,1.94,1.94,0,0,1,.477-0.788,2.1,2.1,0,0,1,.778-0.467,4.214,4.214,0,0,1,1.065-.209V98.959a6.322,6.322,0,0,0-1.9.482,4.5,4.5,0,0,0-1.51,1.056,4.794,4.794,0,0,0-.991,1.644,6.427,6.427,0,0,0-.357,2.228,5.723,5.723,0,0,0,.454,2.316,4.874,4.874,0,0,0,1.3,1.764,5.945,5.945,0,0,0,2.047,1.126,8.542,8.542,0,0,0,2.7.4h0.889a8.8,8.8,0,0,0,2.691-.384,5.874,5.874,0,0,0,2.043-1.1,4.77,4.77,0,0,0,1.292-1.751,5.788,5.788,0,0,0,.449-2.33,6.631,6.631,0,0,0-.347-2.228,4.924,4.924,0,0,0-.963-1.663,4.392,4.392,0,0,0-1.478-1.074,5.52,5.52,0,0,0-1.89-.463v2.779ZM56.28,94.374v2.779H69.767v-8.68H67.535v5.9H56.28Zm6.457-17.98a8.528,8.528,0,0,0-2.77.421A6.119,6.119,0,0,0,57.873,78a5.1,5.1,0,0,0-1.32,1.816,6.125,6.125,0,0,0,0,4.65,5.1,5.1,0,0,0,1.32,1.816,6.112,6.112,0,0,0,2.094,1.181,8.523,8.523,0,0,0,2.77.421h0.593a8.428,8.428,0,0,0,2.774-.426,6.034,6.034,0,0,0,2.08-1.19,5.194,5.194,0,0,0,1.311-1.82,6.125,6.125,0,0,0,0-4.65,5.105,5.105,0,0,0-1.311-1.811A6,6,0,0,0,66.1,76.81a8.6,8.6,0,0,0-2.774-.417H62.737Zm0.593,2.816a5.779,5.779,0,0,1,3.233.75,2.446,2.446,0,0,1,1.112,2.158,2.682,2.682,0,0,1-.282,1.251,2.494,2.494,0,0,1-.834.922,4.169,4.169,0,0,1-1.362.574,7.856,7.856,0,0,1-1.867.2H62.718a5.675,5.675,0,0,1-3.224-.76,2.682,2.682,0,0,1,0-4.335,5.677,5.677,0,0,1,3.224-.76h0.611Zm3.506-11.7a1.263,1.263,0,0,1,.486.385,1.92,1.92,0,0,1,.32.658,3.366,3.366,0,0,1,.116.936,4.59,4.59,0,0,1-.12,1.093,2.253,2.253,0,0,1-.384.838,1.773,1.773,0,0,1-.69.542,2.488,2.488,0,0,1-1.038.195v2.788a4.187,4.187,0,0,0,1.385-.218,3.842,3.842,0,0,0,1.116-.6,4.153,4.153,0,0,0,.852-0.9,5.529,5.529,0,0,0,.6-1.126,6.408,6.408,0,0,0,.357-1.274,7.794,7.794,0,0,0,.116-1.334,7.417,7.417,0,0,0-.255-2.015,4.67,4.67,0,0,0-.732-1.542,3.273,3.273,0,0,0-1.172-.986,3.5,3.5,0,0,0-1.584-.347,3.694,3.694,0,0,0-1.491.287,3.6,3.6,0,0,0-1.186.848,5.772,5.772,0,0,0-.945,1.4,13.148,13.148,0,0,0-.76,1.941,7.684,7.684,0,0,1-.838,2,1.313,1.313,0,0,1-1.116.681,1.425,1.425,0,0,1-.611-0.134,1.4,1.4,0,0,1-.5-0.4,1.93,1.93,0,0,1-.334-0.667,3.335,3.335,0,0,1-.12-0.95,3.023,3.023,0,0,1,.144-0.982,1.92,1.92,0,0,1,.4-0.695,1.6,1.6,0,0,1,.621-0.412,2.246,2.246,0,0,1,.787-0.134V64.592a3.949,3.949,0,0,0-1.672.352,3.836,3.836,0,0,0-1.32,1A4.683,4.683,0,0,0,56.4,67.51a6.332,6.332,0,0,0-.31,2.038,6.97,6.97,0,0,0,.273,2.005,5.051,5.051,0,0,0,.764,1.575,3.476,3.476,0,0,0,1.19,1.028,3.276,3.276,0,0,0,1.542.366,3.176,3.176,0,0,0,1.538-.357,3.9,3.9,0,0,0,1.163-.973,6.424,6.424,0,0,0,.875-1.436,16.269,16.269,0,0,0,.667-1.746,12.746,12.746,0,0,1,.491-1.329,3.6,3.6,0,0,1,.472-0.806,1.232,1.232,0,0,1,.523-0.394,1.863,1.863,0,0,1,.635-0.1A1.483,1.483,0,0,1,66.836,67.505ZM61.745,54.6v5.336H58.531V53.689H56.28v9.023H69.767V53.67H67.535v6.262H63.922V54.6H61.745Z"/>
  <path class="cls-2" d="M59.7,27L58,25.367,63.594,20,58,14.633,59.7,13,67,20Z"/>
  <path id="Rectangle_1_copy-2" data-name="Rectangle 1 copy" class="cls-1" d="M35,308V130H0V0H42V308H35Z"/>
  <path id="SEARCH" class="cls-2" d="M23.836,102.7a1.267,1.267,0,0,1,.486.384,1.927,1.927,0,0,1,.32.658,3.371,3.371,0,0,1,.116.936,4.6,4.6,0,0,1-.12,1.093,2.257,2.257,0,0,1-.384.838,1.773,1.773,0,0,1-.69.542,2.484,2.484,0,0,1-1.038.194v2.789a4.192,4.192,0,0,0,1.385-.218,3.849,3.849,0,0,0,1.116-.6,4.145,4.145,0,0,0,.852-0.9,5.528,5.528,0,0,0,.6-1.126,6.4,6.4,0,0,0,.357-1.273,7.8,7.8,0,0,0,.116-1.334,7.418,7.418,0,0,0-.255-2.015,4.683,4.683,0,0,0-.732-1.543,3.277,3.277,0,0,0-1.172-.986,3.5,3.5,0,0,0-1.584-.347,3.69,3.69,0,0,0-1.491.287,3.6,3.6,0,0,0-1.186.847,5.776,5.776,0,0,0-.945,1.4,13.144,13.144,0,0,0-.76,1.941,7.682,7.682,0,0,1-.838,2,1.313,1.313,0,0,1-1.116.681,1.434,1.434,0,0,1-.611-0.134,1.411,1.411,0,0,1-.5-0.4,1.928,1.928,0,0,1-.333-0.667,3.331,3.331,0,0,1-.12-0.949,3.023,3.023,0,0,1,.144-0.982,1.918,1.918,0,0,1,.4-0.7,1.6,1.6,0,0,1,.621-0.412,2.233,2.233,0,0,1,.787-0.134V99.784a3.942,3.942,0,0,0-1.672.352,3.828,3.828,0,0,0-1.32,1A4.676,4.676,0,0,0,13.4,102.7a6.325,6.325,0,0,0-.31,2.037,6.972,6.972,0,0,0,.273,2.006,5.063,5.063,0,0,0,.764,1.575,3.483,3.483,0,0,0,1.19,1.028,3.276,3.276,0,0,0,1.542.366,3.174,3.174,0,0,0,1.538-.357,3.9,3.9,0,0,0,1.163-.972,6.445,6.445,0,0,0,.875-1.436,16.357,16.357,0,0,0,.667-1.746,12.74,12.74,0,0,1,.491-1.33,3.634,3.634,0,0,1,.472-0.806,1.235,1.235,0,0,1,.523-0.393,1.86,1.86,0,0,1,.635-0.1A1.488,1.488,0,0,1,23.836,102.7Zm-5.09-12.909v5.336H15.531V88.881H13.28V97.9H26.767V88.862H24.535v6.262H20.922V89.788H18.745Zm8.022-11.107V75.727L13.28,80.775V83.35l13.487,5.021V85.416l-2.779-.926V79.617ZM16.689,82.063l5.049-1.7v3.372ZM26.767,66.945V63.962h-0.13L21.126,66.88a4.972,4.972,0,0,0-.593-1,3.462,3.462,0,0,0-1.848-1.241,4.874,4.874,0,0,0-1.329-.167,4.244,4.244,0,0,0-1.76.343,3.412,3.412,0,0,0-1.274.982,4.381,4.381,0,0,0-.778,1.566,7.642,7.642,0,0,0-.264,2.094v5.011H26.767V71.688H21.83V69.474ZM15.531,71.688V69.455a2.252,2.252,0,0,1,.547-1.663,2.038,2.038,0,0,1,1.5-.542,2.3,2.3,0,0,1,.82.139,1.707,1.707,0,0,1,.63.412,1.842,1.842,0,0,1,.408.685,2.912,2.912,0,0,1,.144.959v2.242H15.531ZM22.275,54.55a3.709,3.709,0,0,1,1.056.222,1.926,1.926,0,0,1,1.2,1.292,3.845,3.845,0,0,1,.148,1.135,2.781,2.781,0,0,1-.264,1.264,2.117,2.117,0,0,1-.792.852,3.869,3.869,0,0,1-1.315.482,9.72,9.72,0,0,1-1.834.153H19.57a5.765,5.765,0,0,1-3.173-.69,2.358,2.358,0,0,1-1.024-2.1A3.687,3.687,0,0,1,15.536,56a1.936,1.936,0,0,1,.477-0.787,2.091,2.091,0,0,1,.778-0.468,4.214,4.214,0,0,1,1.065-.209V51.753a6.322,6.322,0,0,0-1.9.482,4.507,4.507,0,0,0-1.51,1.056,4.791,4.791,0,0,0-.991,1.644,6.428,6.428,0,0,0-.357,2.228,5.72,5.72,0,0,0,.454,2.316,4.886,4.886,0,0,0,1.3,1.765,5.955,5.955,0,0,0,2.047,1.125,8.554,8.554,0,0,0,2.7.4h0.889a8.794,8.794,0,0,0,2.691-.384,5.866,5.866,0,0,0,2.043-1.1A4.759,4.759,0,0,0,26.5,59.529a5.786,5.786,0,0,0,.449-2.33,6.631,6.631,0,0,0-.347-2.228,4.92,4.92,0,0,0-.963-1.663,4.393,4.393,0,0,0-1.477-1.075,5.52,5.52,0,0,0-1.89-.463V54.55ZM13.28,38.969v2.779h5.465v5.419H13.28v2.779H26.767V47.167h-5.78V41.748h5.78V38.969H13.28Z"/>
  <path class="cls-2" d="M22.3,27L24,25.367,18.406,20,24,14.633,22.3,13,15,20Z"/>
</svg>
