<svg xmlns="http://www.w3.org/2000/svg" width="20" height="20" viewBox="0 0 20 20">
  <metadata><?xpacket begin="﻿" id="W5M0MpCehiHzreSzNTczkc9d"?>
<x:xmpmeta xmlns:x="adobe:ns:meta/" x:xmptk="Adobe XMP Core 5.6-c138 79.159824, 2016/09/14-01:09:01        ">
   <rdf:RDF xmlns:rdf="http://www.w3.org/1999/02/22-rdf-syntax-ns#">
      <rdf:Description rdf:about=""/>
   </rdf:RDF>
</x:xmpmeta>
                                                                                                    
                                                                                                    
                                                                                                    
                                                                                                    
                                                                                                    
                                                                                                    
                                                                                                    
                                                                                                    
                                                                                                    
                                                                                                    
                                                                                                    
                                                                                                    
                                                                                                    
                                                                                                    
                                                                                                    
                                                                                                    
                                                                                                    
                                                                                                    
                                                                                                    
                                                                                                    
                           
<?xpacket end="w"?></metadata>
<defs>
    <style>
      .cls-1 {
        fill: #64737f;
        fill-rule: evenodd;
      }
    </style>
  </defs>
  <path id="email-icon" class="cls-1" d="M357.326,655h0.008l-1.775-1.438-6.96-5.354a1,1,0,0,0-1.221,0l-6.944,5.355c-0.016.012-.029,0.027-0.044,0.04v0l-1.729,1.4h0.018a1.661,1.661,0,0,0-.679,1.337v10a1.67,1.67,0,0,0,1.669,1.67h16.662a1.67,1.67,0,0,0,1.669-1.67v-10A1.663,1.663,0,0,0,357.326,655Zm-0.205,12.461a0.169,0.169,0,0,1-.227,0l-1.966-1.822c-0.012-.012-0.023-0.026-0.036-0.039l-6.217-5.78a1,1,0,0,0-1.363,0L341.1,665.6c-0.019.018-.035,0.038-0.053,0.058l-1.933,1.79a0.166,0.166,0,0,1-.235-0.235l5.6-6.043-5.428-5.218a0.166,0.166,0,0,1,0-.236,0.163,0.163,0,0,1,.1-0.048l0,0h17.711a0.162,0.162,0,0,1,.129.059,0.169,0.169,0,0,1-.013.226l-5.5,5.282,0.057-.046,5.595,6.038A0.167,0.167,0,0,1,357.121,667.461Z" transform="translate(-338 -648)"/>
</svg>
