<svg xmlns="http://www.w3.org/2000/svg" viewBox="-10088.187 9312.201 34.131 25.598">
  <defs>
    <style>
      .cls-1 {
        fill: #fff;
      }
    </style>
  </defs>
  <path id="envelope-square" class="cls-1" d="M47.163,39.7V25.165A9.39,9.39,0,0,1,45.03,27q-1.133.733-4.416,2.833t-5.05,3.3q-3.266,2.3-5.466,2.3t-5.466-2.3q-1.533-1.067-4.716-3.083t-4.75-3.083a10.491,10.491,0,0,1-1.1-.9q-.7-.633-1.033-.9V39.7a3.186,3.186,0,0,0,3.2,3.2H43.963a3.186,3.186,0,0,0,3.2-3.2Zm0-19.1a3.269,3.269,0,0,0-.917-2.333,3.018,3.018,0,0,0-2.283-.967H16.232a3.186,3.186,0,0,0-3.2,3.2,4.212,4.212,0,0,0,1.017,2.55A9.756,9.756,0,0,0,16.3,25.2q1.567,1.067,4.583,2.966T25.2,30.931l.567.383q.467.317.7.467t.7.433q.467.283.783.433t.717.317a4.938,4.938,0,0,0,.75.25,2.843,2.843,0,0,0,1.367,0,4.938,4.938,0,0,0,.75-.25q.4-.167.717-.317t.783-.433q.467-.283.7-.433t.7-.467L35,30.931l8.9-5.8a9.663,9.663,0,0,0,2.216-2.083A4.045,4.045,0,0,0,47.163,20.6Z" transform="translate(-10101.219 9294.902)"/>
</svg>
