<svg xmlns="http://www.w3.org/2000/svg" viewBox="-66.97 840.336 66.857 27.909">
  <defs>
    <style>
      .cls-1 {
        fill: #fff;
      }
    </style>
  </defs>
  <g id="Group_3338" data-name="Group 3338" transform="translate(-66.97 840.336)">
    <path id="Subtraction_69" data-name="Subtraction 69" class="cls-1" d="M19.928,27.909h0c-.1,0-10.366-.094-13.547-.4-.145-.026-.32-.046-.518-.069a5.934,5.934,0,0,1-3.874-1.622C.807,24.631.405,21.9.4,21.876A59.919,59.919,0,0,1,0,15.455V12.439A59.879,59.879,0,0,1,.4,6.02c0-.028.4-2.754,1.587-3.939A5.536,5.536,0,0,1,5.725.428L5.98.4C11.494,0,19.844,0,19.928,0s8.446,0,13.96.4l.252.026a5.448,5.448,0,0,1,3.74,1.653c1.182,1.186,1.583,3.912,1.587,3.939a57.95,57.95,0,0,1,.389,6.419v3.016a59.619,59.619,0,0,1-.4,6.421c0,.028-.405,2.755-1.59,3.939a5.515,5.515,0,0,1-3.735,1.653l-.254.027C28.375,27.891,20.01,27.909,19.928,27.909Zm12.96-18.86a3.447,3.447,0,0,0-2.9,1.4,5.4,5.4,0,0,0-.817,3.2v4.672a5.021,5.021,0,0,0,.845,3.084,3.433,3.433,0,0,0,2.921,1.361,3.343,3.343,0,0,0,2.924-1.444,3.416,3.416,0,0,0,.561-1.439,14.607,14.607,0,0,0,.08-1.574V17.94H33.969v.134c0,.885,0,1.419-.016,1.545a1.039,1.039,0,0,1-1.081.976c-.811,0-1.173-.572-1.173-1.855v-2.4h4.831V13.588a5.2,5.2,0,0,0-.787-3.137A3.393,3.393,0,0,0,32.888,9.049Zm-21.583.189V19.78a5.446,5.446,0,0,0,.278,1.964,1.594,1.594,0,0,0,1.59,1.028c.867,0,1.666-.5,2.67-1.658v1.472h2.535V9.237H15.844V19.381c-.6.834-1.017,1.174-1.454,1.174-.342,0-.5-.142-.547-.507V9.237Zm11.478,12,0,0a3.413,3.413,0,0,0,2.548,1.52,2,2,0,0,0,1.988-1.508,10.456,10.456,0,0,0,.266-2.67V13.242a9.806,9.806,0,0,0-.318-2.671,1.966,1.966,0,0,0-1.936-1.549,3.412,3.412,0,0,0-2.55,1.51V4.7h-2.4V22.586h2.4V21.234ZM6.1,7.234V22.586H8.77V7.234H11.7V4.7H3.3V7.234ZM24.037,20.556a1.792,1.792,0,0,1-1.254-.615V11.855a1.863,1.863,0,0,1,1.254-.615c.74,0,1.016.467,1.016,1.72v5.752C25.053,20,24.749,20.556,24.037,20.556Zm9.956-6.248H31.727V12.84c0-1.171.3-1.586,1.146-1.586.828,0,1.121.419,1.121,1.6v1.452Z" transform="translate(27.001)"/>
    <g id="You_copy" transform="translate(0 4.565)">
      <path id="u_4_" class="cls-1" d="M141.074,81.681h-2.536V80.212c-.961,1.108-1.775,1.655-2.669,1.655a1.6,1.6,0,0,1-1.588-1.028,5.491,5.491,0,0,1-.28-1.962V68.2h2.536V79.145c.053.374.214.507.547.507.48,0,.921-.427,1.455-1.175V68.2h2.536Z" transform="translate(-116.115 -63.662)"/>
      <path id="o_1_" class="cls-1" d="M73.207,72a5.4,5.4,0,0,0-.8-3.2A3.37,3.37,0,0,0,69.6,67.5a3.2,3.2,0,0,0-2.8,1.295,5.349,5.349,0,0,0-.8,3.217V76.8a4.984,4.984,0,0,0,.774,3.1,3.52,3.52,0,0,0,2.83,1.4,3.57,3.57,0,0,0,2.856-1.4,5.087,5.087,0,0,0,.747-3.1ZM70.672,77.07c.133,1.335-.28,2-1.068,2s-1.2-.667-1.068-2V71.731c-.133-1.335.28-1.962,1.068-1.962s1.2.627,1.068,1.962Z" transform="translate(-57.191 -63.055)"/>
      <path id="y_1_" class="cls-1" d="M6.006,44.878v7.341H3.337V44.878S.574,35.882,0,34.2H2.8l1.869,7.034L6.54,34.2h2.8Z" transform="translate(0 -34.2)"/>
    </g>
  </g>
</svg>
