<svg xmlns="http://www.w3.org/2000/svg" viewBox="10286 930 17.208 15.057">
  <defs>
    <style>
      .cls-1 {
        fill: #9aa6af;
      }
    </style>
  </defs>
  <path id="Path_20007" data-name="Path 20007" class="cls-1" d="M15.675,3.227H13.982V1.533A1.549,1.549,0,0,0,12.449,0H1.533A1.549,1.549,0,0,0,0,1.533v7.69a1.549,1.549,0,0,0,1.533,1.533H2.689v3.227l3.227-3.227h.538v.081a1.549,1.549,0,0,0,1.533,1.533h3.845l2.689,2.689V12.368h1.156a1.549,1.549,0,0,0,1.533-1.533V4.759A1.532,1.532,0,0,0,15.675,3.227ZM5.485,9.68,5.162,10l-1.4,1.371V9.68H1.533a.471.471,0,0,1-.457-.457V1.533a.471.471,0,0,1,.457-.457H12.449a.471.471,0,0,1,.457.457v7.69a.471.471,0,0,1-.457.457H5.485Z" transform="translate(10286 930)"/>
</svg>
