<svg xmlns="http://www.w3.org/2000/svg" width="24" height="16" viewBox="0 0 24 16">
  <metadata><?xpacket begin="﻿" id="W5M0MpCehiHzreSzNTczkc9d"?>
<x:xmpmeta xmlns:x="adobe:ns:meta/" x:xmptk="Adobe XMP Core 5.6-c138 79.159824, 2016/09/14-01:09:01        ">
   <rdf:RDF xmlns:rdf="http://www.w3.org/1999/02/22-rdf-syntax-ns#">
      <rdf:Description rdf:about=""/>
   </rdf:RDF>
</x:xmpmeta>
                                                                                                    
                                                                                                    
                                                                                                    
                                                                                                    
                                                                                                    
                                                                                                    
                                                                                                    
                                                                                                    
                                                                                                    
                                                                                                    
                                                                                                    
                                                                                                    
                                                                                                    
                                                                                                    
                                                                                                    
                                                                                                    
                                                                                                    
                                                                                                    
                                                                                                    
                                                                                                    
                           
<?xpacket end="w"?></metadata>
<defs>
    <style>
      .cls-1 {
        fill: #64737f;
        fill-rule: evenodd;
      }
    </style>
  </defs>
  <path id="phone-icon" class="cls-1" d="M831.036,651.005h-0.067c-3.191,0-11.271.025-11.964,3.765v1.787c0,0.016,0,.032,0,0.048s0,0.032,0,.049a0.8,0.8,0,0,0,.795.751H823a1.127,1.127,0,0,0,.815-0.5c0.272-.349,1.582-2.7,1.582-2.7h11.22s1.3,2.347,1.568,2.7a1.129,1.129,0,0,0,.816.5H842.2a0.8,0.8,0,0,0,.8-0.8h0V654.77C842.306,651.03,834.227,651.005,831.036,651.005ZM831,657.4a2.034,2.034,0,1,0,2.4,2A2.287,2.287,0,0,0,831,657.4Zm8.7,4.325-3.579-6.256h0a0.8,0.8,0,0,0-.725-0.468h-8.8a0.8,0.8,0,0,0-.689.4h0l-0.025.052c-0.008.017-.017,0.034-0.024,0.051l-3.543,6.185h0a1.19,1.19,0,0,0-.118.51v3.6a1.2,1.2,0,0,0,1.2,1.2h15.2a1.2,1.2,0,0,0,1.2-1.2v-3.6a1.207,1.207,0,0,0-.1-0.474h0Zm-8.7,1.276c-2.209,0-4-1.432-4-3.2s1.791-3.2,4-3.2,4,1.433,4,3.2S833.206,663.005,831,663.005Z" transform="translate(-819 -651)"/>
</svg>
