<svg xmlns="http://www.w3.org/2000/svg" viewBox="-78.421 5367.83 58.488 24.415">
  <defs>
    <style>
      .cls-1 {
        fill: #002766;
      }
    </style>
  </defs>
  <g id="Group_5143" data-name="Group 5143" transform="translate(-78.421 5367.83)">
    <path id="Subtraction_94" data-name="Subtraction 94" class="cls-1" d="M17.433,24.415h0c-.088,0-9.068-.082-11.851-.352-.127-.022-.28-.04-.453-.061A5.191,5.191,0,0,1,1.74,22.584,7.52,7.52,0,0,1,.351,19.138,52.419,52.419,0,0,1,0,13.521V10.882A52.383,52.383,0,0,1,.351,5.267,7.521,7.521,0,0,1,1.74,1.82,4.843,4.843,0,0,1,5.008.374L5.231.352C10.055,0,17.36,0,17.433,0s7.389,0,12.213.352l.22.022A4.766,4.766,0,0,1,33.138,1.82a7.521,7.521,0,0,1,1.388,3.446,50.7,50.7,0,0,1,.34,5.615v2.639a52.156,52.156,0,0,1-.351,5.617,7.509,7.509,0,0,1-1.391,3.446,4.825,4.825,0,0,1-3.268,1.446l-.222.023C24.823,24.4,17.505,24.415,17.433,24.415Zm11.338-16.5a3.015,3.015,0,0,0-2.533,1.227,4.726,4.726,0,0,0-.715,2.8v4.087a4.392,4.392,0,0,0,.739,2.7,3,3,0,0,0,2.555,1.19,2.924,2.924,0,0,0,2.558-1.264,2.989,2.989,0,0,0,.491-1.259,12.78,12.78,0,0,0,.07-1.377v-.327h-2.22v.117c0,.774,0,1.241-.014,1.352a.909.909,0,0,1-.946.854c-.71,0-1.026-.5-1.026-1.623v-2.1h4.227V11.887a4.547,4.547,0,0,0-.688-2.744A2.968,2.968,0,0,0,28.771,7.916ZM9.89,8.081V17.3a4.764,4.764,0,0,0,.243,1.718,1.4,1.4,0,0,0,1.391.9c.759,0,1.457-.434,2.336-1.45v1.288h2.218V8.081H13.86v8.874c-.521.729-.89,1.027-1.272,1.027-.3,0-.433-.124-.478-.443V8.081Zm10.042,10.5,0,0a2.986,2.986,0,0,0,2.229,1.33A1.746,1.746,0,0,0,23.9,18.59a9.147,9.147,0,0,0,.233-2.336v-4.67a8.579,8.579,0,0,0-.279-2.337,1.72,1.72,0,0,0-1.693-1.355,2.985,2.985,0,0,0-2.231,1.321V4.11h-2.1V19.759h2.1V18.576ZM5.337,6.328V19.759H7.673V6.328h2.566V4.11H2.885V6.328ZM21.028,17.982a1.568,1.568,0,0,1-1.1-.538V10.371a1.63,1.63,0,0,1,1.1-.538c.648,0,.888.408.888,1.5V16.37C21.917,17.5,21.651,17.982,21.028,17.982Zm8.71-5.466H27.756V11.232c0-1.024.262-1.388,1-1.388.724,0,.98.366.98,1.4v1.271Z" transform="translate(23.621)"/>
    <g id="You_copy" transform="translate(0 3.993)">
      <path id="u_4_" class="cls-1" d="M140.188,79.993H137.97V78.709a3.255,3.255,0,0,1-2.335,1.448,1.4,1.4,0,0,1-1.39-.9A4.8,4.8,0,0,1,134,77.541V68.2h2.218v9.575c.047.327.187.444.479.444.42,0,.806-.374,1.273-1.028V68.2h2.219Z" transform="translate(-118.354 -64.23)"/>
      <path id="o_1_" class="cls-1" d="M72.305,71.435a4.723,4.723,0,0,0-.7-2.8A2.948,2.948,0,0,0,69.153,67.5,2.8,2.8,0,0,0,66.7,68.633a4.679,4.679,0,0,0-.7,2.814v4.192a4.36,4.36,0,0,0,.677,2.709,3.079,3.079,0,0,0,2.475,1.226,3.123,3.123,0,0,0,2.5-1.226,4.45,4.45,0,0,0,.654-2.709Zm-2.219,4.437c.117,1.168-.245,1.751-.934,1.751s-1.051-.584-.934-1.751V71.2c-.117-1.168.245-1.716.934-1.716s1.051.549.934,1.716Z" transform="translate(-58.294 -63.612)"/>
      <path id="y_1_" class="cls-1" d="M5.254,43.541v6.422H2.919V43.541S.5,35.671,0,34.2H2.452l1.635,6.153L5.721,34.2H8.173Z" transform="translate(0 -34.2)"/>
    </g>
  </g>
</svg>
