<svg xmlns="http://www.w3.org/2000/svg" width="20" height="17" viewBox="0 0 20 17">
  <metadata><?xpacket begin="﻿" id="W5M0MpCehiHzreSzNTczkc9d"?>
<x:xmpmeta xmlns:x="adobe:ns:meta/" x:xmptk="Adobe XMP Core 5.6-c138 79.159824, 2016/09/14-01:09:01        ">
   <rdf:RDF xmlns:rdf="http://www.w3.org/1999/02/22-rdf-syntax-ns#">
      <rdf:Description rdf:about=""/>
   </rdf:RDF>
</x:xmpmeta>
                                                                                                    
                                                                                                    
                                                                                                    
                                                                                                    
                                                                                                    
                                                                                                    
                                                                                                    
                                                                                                    
                                                                                                    
                                                                                                    
                                                                                                    
                                                                                                    
                                                                                                    
                                                                                                    
                                                                                                    
                                                                                                    
                                                                                                    
                                                                                                    
                                                                                                    
                                                                                                    
                           
<?xpacket end="w"?></metadata>
<defs>
    <style>
      .cls-1 {
        fill: #64737f;
        fill-rule: evenodd;
      }
    </style>
  </defs>
  <path id="name" class="cls-1" d="M358,554.365a1.631,1.631,0,0,0-1.011-1.619v0l-5.986-2.629h-0.021a0.988,0.988,0,0,0-.974-0.978V548.8a5.469,5.469,0,0,0,1.423-2.608,1.491,1.491,0,0,0,.565-1.216,1.666,1.666,0,0,0-.192-0.787,3.937,3.937,0,0,0,.192-1.215,4,4,0,0,0-8,0,3.937,3.937,0,0,0,.192,1.215,1.666,1.666,0,0,0-.192.787,1.493,1.493,0,0,0,.565,1.216A5.464,5.464,0,0,0,346,548.812v0.322a0.991,0.991,0,0,0-1,.981l-5.986,2.629A1.633,1.633,0,0,0,338,554.365c0,0.008,0,.015,0,0.024s0,0.015,0,.023v0.607a0.991,0.991,0,0,0,1,.981h18a0.991,0.991,0,0,0,1-.981v-0.607a0.251,0.251,0,0,0,0-.027A0.142,0.142,0,0,0,358,554.365Z" transform="translate(-338 -539)"/>
</svg>
