<svg xmlns="http://www.w3.org/2000/svg" viewBox="876.619 959.618 25.308 25.309">
  <defs>
    <style>
      .cls-1 {
        fill: #a5a5a4;
      }
    </style>
  </defs>
  <g id="Group_3396" data-name="Group 3396" transform="translate(876.618 959.618)">
    <g id="Group_3395" data-name="Group 3395">
      <path id="Union_178" data-name="Union 178" class="cls-1" d="M-963.466-934.31h-.119a4.052,4.052,0,0,1-4.033-4.153v-17.2h3.164v-1.581h3.559v-2.373h18.586v21.156a4.152,4.152,0,0,1-4.153,4.153Zm4.153-21.354V-938.5c0,.119-.04.277-.04.4v.119c0,.118-.04.2-.04.276s-.04.119-.04.158c-.04.079-.04.158-.079.238,0,.04-.04.078-.04.118a.563.563,0,0,1-.079.238c0,.04-.04.079-.04.119a1.864,1.864,0,0,1-.119.276c0,.04-.04.04-.04.079-.078.119-.118.2-.2.317,0,.04-.04.04-.04.079a.691.691,0,0,0-.158.2h13.761a2.565,2.565,0,0,0,2.57-2.57v-19.574h-15.421Zm-6.723,17.2a2.444,2.444,0,0,0,2.452,2.57h.119a2.614,2.614,0,0,0,2.57-2.372,2,2,0,0,1-1.581.791,1.958,1.958,0,0,1-1.977-1.977v-14.631h-1.582Zm8.305-2.174v-1.582h12.257v1.582Zm0-3.163v-1.582h12.257v1.582Zm6.722-3.164v-6.327h5.535v6.327Zm-6.722-.791v-1.582h5.141v1.582Zm0-3.163V-952.5h5.141v1.582Zm0-3.955v-1.582h12.257v1.582Z" transform="translate(967.618 959.618)"/>
    </g>
  </g>
</svg>
