<svg xmlns="http://www.w3.org/2000/svg" viewBox="544 957 32 30.91">
  <defs>
    <style>
      .cls-1 {
        fill: #a5a5a4;
      }
    </style>
  </defs>
  <path id="Subtraction_68" data-name="Subtraction 68" class="cls-1" d="M922-1079.333H904a4,4,0,0,1-4-4,4,4,0,0,1,4-4h18a4,4,0,0,1,4,4A4,4,0,0,1,922-1079.333Zm-18-6a2,2,0,0,0-2,2,2,2,0,0,0,2,2h18a2,2,0,0,0,2-2,2,2,0,0,0-2-2Zm15-4H902v-13a2.062,2.062,0,0,1,2-2c1.013-.01,1.9-.016,2.6-.016.631,0,1.112.005,1.4.016a2.071,2.071,0,0,1,2,1c.571.867,2.426,4.022,2.981,4.968l3.02.032c.006,0,.1-.01.247-.014l11.9-11.9,1.768,1.768-.91.91v11.268a3.515,3.515,0,0,1,3,3.465,3.5,3.5,0,0,1-3.5,3.5,3.5,3.5,0,0,1-3.5-3.5,3.514,3.514,0,0,1,3-3.465v-10.268l-9.24,9.24a1.963,1.963,0,0,1,.24.992v7Zm-10-6v2h8v-2Zm-5-7v4h6.742l-2.46-4Z" transform="translate(-356 2067.243)"/>
</svg>
