<svg xmlns="http://www.w3.org/2000/svg" width="81" height="81" viewBox="0 0 81 81">
  <metadata><?xpacket begin="﻿" id="W5M0MpCehiHzreSzNTczkc9d"?>
<x:xmpmeta xmlns:x="adobe:ns:meta/" x:xmptk="Adobe XMP Core 5.6-c138 79.159824, 2016/09/14-01:09:01        ">
   <rdf:RDF xmlns:rdf="http://www.w3.org/1999/02/22-rdf-syntax-ns#">
      <rdf:Description rdf:about=""/>
   </rdf:RDF>
</x:xmpmeta>
                                                                                                    
                                                                                                    
                                                                                                    
                                                                                                    
                                                                                                    
                                                                                                    
                                                                                                    
                                                                                                    
                                                                                                    
                                                                                                    
                                                                                                    
                                                                                                    
                                                                                                    
                                                                                                    
                                                                                                    
                                                                                                    
                                                                                                    
                                                                                                    
                                                                                                    
                                                                                                    
                           
<?xpacket end="w"?></metadata>
<defs>
    <style>
      .cls-1 {
        fill: #64737f;
        fill-rule: evenodd;
      }
    </style>
  </defs>
  <path id="download" class="cls-1" d="M361.062,411.041a2.771,2.771,0,0,0,4.8,0l24.3-26.912a2.776,2.776,0,0,0-2.4-4.163H372.95V357.628a4.618,4.618,0,0,0-4.616-4.619h-9.67a4.617,4.617,0,0,0-4.614,4.619v22.338H339.237a2.778,2.778,0,0,0-2.4,4.163Zm42.084,6.271,0.037,0-13.089-19.35c-0.694-1.014-1.83-1.774-4.108-1.774H383.75l-5.415,5.419h6.09l8.772,12.17H378.318c-2.593,0-3.422,1.339-4.59,2.553a3.372,3.372,0,0,1-2.806,1.5h-14.85a3.361,3.361,0,0,1-2.687-1.351h0c-1.248-1.248-2.033-2.7-4.733-2.7H333.8l8.771-12.17h6.083l-5.415-5.419h-2.182c-2.631,0-3.742,1.011-4.4,2.259l-12.791,18.785,0.035,0a6.716,6.716,0,0,0-.9,3.307v6.7a6.753,6.753,0,0,0,6.75,6.757h67.5a6.754,6.754,0,0,0,6.75-6.757v-6.7A6.688,6.688,0,0,0,403.146,417.312Z" transform="translate(-323 -353)"/>
</svg>
