<svg xmlns="http://www.w3.org/2000/svg" viewBox="2297 232 46 46">
  <defs>
    <style>
      .cls-1 {
        fill: #fff;
      }
    </style>
  </defs>
  <g id="Group_1336" data-name="Group 1336" transform="translate(2297 232)">
    <g id="Group_1335" data-name="Group 1335">
      <path id="Path_9406" data-name="Path 9406" class="cls-1" d="M38.438,25.5H28.375V15.438a1.438,1.438,0,0,0-2.875,0V25.5H15.438a1.438,1.438,0,0,0,0,2.875H25.5V38.438a1.437,1.437,0,0,0,2.875,0V28.375H38.438a1.438,1.438,0,0,0,0-2.875Z" transform="translate(-3.938 -3.938)"/>
      <path id="Path_9407" data-name="Path 9407" class="cls-1" d="M23,0A23,23,0,1,0,46,23,22.975,22.975,0,0,0,23,0Zm0,43.125A20.125,20.125,0,1,1,43.125,23,20.184,20.184,0,0,1,23,43.125Z"/>
    </g>
  </g>
</svg>
