<svg xmlns="http://www.w3.org/2000/svg" viewBox="2021 234 46.009 46">
  <defs>
    <style>
      .cls-1 {
        fill: #fff;
      }
    </style>
  </defs>
  <path id="Path_9408" data-name="Path 9408" class="cls-1" d="M44.778,38.669l-9.2-9.2A4.156,4.156,0,0,0,32.7,28.247a4.1,4.1,0,0,0-1.581.288l-1.653-1.653a16.563,16.563,0,1,0-12.937,6.181A16.219,16.219,0,0,0,26.881,29.4l1.653,1.653a4.256,4.256,0,0,0,.862,4.456l9.272,9.272a3.993,3.993,0,0,0,5.75,0l.287-.287A3.978,3.978,0,0,0,44.778,38.669ZM2.875,16.531A13.656,13.656,0,1,1,16.531,30.188,13.65,13.65,0,0,1,2.875,16.531ZM42.766,42.478l-.288.288a1.215,1.215,0,0,1-1.725,0l-7.978-7.978,2.012-2.012,7.978,7.978A1.174,1.174,0,0,1,42.766,42.478Z" transform="translate(2021 234)"/>
</svg>
