<svg xmlns="http://www.w3.org/2000/svg" viewBox="2842.833 450.282 52.52 40.557">
  <defs>
    <style>
      .cls-1 {
        fill: #fff;
      }
    </style>
  </defs>
  <g id="Group_1919" data-name="Group 1919" transform="translate(2842.833 450.282)">
    <path id="Path_14228" data-name="Path 14228" class="cls-1" d="M23.03,20.789V11.824h6.492L14.915,0,0,12.288c0,.155,6.8,0,6.8,0v8.5Z"/>
    <path id="Path_14229" data-name="Path 14229" class="cls-1" d="M82.976,149H76.5a21.486,21.486,0,0,0,14.869,16.847A24,24,0,0,1,82.976,149Z" transform="translate(-64.676 -125.97)"/>
    <path id="Path_14230" data-name="Path 14230" class="cls-1" d="M150.369,3.072a18.877,18.877,0,0,0-3.648-.541c-.371-.015-.757-.031-1.128-.031-.325,0-.649.015-.958.031a17.338,17.338,0,0,0-1.623.974,19.789,19.789,0,0,0-2.519,2.056,21.383,21.383,0,0,0-2.195,2.5c.556.464,1.206,1,1.777,1.5a17.162,17.162,0,0,1,4.59-4.39V21.959H138.1v1.082h6.553v7.11h-7.4a22.853,22.853,0,0,1-1.113-5.023H133.8a23.385,23.385,0,0,0,6.662,14.482,17.644,17.644,0,0,0,2.519,2.056,17.342,17.342,0,0,0,1.623.974c.325.015.634.031.958.031.386,0,.757-.015,1.128-.031a20.094,20.094,0,0,0,3.679-39.568ZM144.65,40a18.514,18.514,0,0,1-7-8.748h7Zm18.686-18.022h-5.688a25.913,25.913,0,0,0-1.159-7.094v-.015h5.116A17.7,17.7,0,0,1,163.337,21.975Zm-5.193-11.948a17.576,17.576,0,0,1,2.875,3.756H156.1a22.067,22.067,0,0,0-5.162-8.13V5.638A17.7,17.7,0,0,1,158.143,10.027ZM146.969,5.39h0l.031.015a18.617,18.617,0,0,1,6.631,8.377h-6.646V5.39Zm0,9.475h7.063l.015.015a23.008,23.008,0,0,1,1.283,7.094h-8.362Zm0,8.192h8.362v.015a23.076,23.076,0,0,1-1.236,7.094h-7.125Zm0,16.739h0V31.248h6.77l-.015.046A18.57,18.57,0,0,1,146.969,39.8Zm11.175-4.637a17.672,17.672,0,0,1-7.156,4.374,22.05,22.05,0,0,0,5.193-8.269v-.015h4.931A17.649,17.649,0,0,1,158.143,35.159Zm-1.607-4.992a25.8,25.8,0,0,0,1.113-7.094v-.015h5.7a17.407,17.407,0,0,1-1.685,7.11Z" transform="translate(-113.12 -2.114)"/>
  </g>
</svg>
