<svg xmlns="http://www.w3.org/2000/svg" viewBox="2297 450 46 46">
  <defs>
    <style>
      .cls-1 {
        fill: #fff;
      }
    </style>
  </defs>
  <path id="Path_9405" data-name="Path 9405" class="cls-1" d="M23,0A23,23,0,1,0,46,23,23.068,23.068,0,0,0,23,0ZM37.734,36.656c-1.725-1.725-4.6-3.306-9.2-4.672l-.287-.072-.216-.216a2.262,2.262,0,0,1-.575-1.869v-.288a5.175,5.175,0,0,1,.359-2.084,16.353,16.353,0,0,0,.791-2.444l.072-.287.144-.216a7.093,7.093,0,0,0,1.006-2.659,4.331,4.331,0,0,0,0-2.444l-.072-.216v-.216a20.29,20.29,0,0,1,.287-3.162,6.656,6.656,0,0,0-1.294-4.528,6.706,6.706,0,0,0-5.1-2.444L23,8.625h-.5a6.95,6.95,0,0,0-5.1,2.444A5.963,5.963,0,0,0,16.1,15.6a21.025,21.025,0,0,1,.288,3.162v.216l-.072.216a4.273,4.273,0,0,0,0,2.444,6.631,6.631,0,0,0,1.006,2.659l.144.216.072.288a8.655,8.655,0,0,0,.791,2.516,5.175,5.175,0,0,1,.359,2.084v.287a2.952,2.952,0,0,1-.575,1.869l-.216.216-.288.072c-4.6,1.437-7.475,2.947-9.2,4.672A18.772,18.772,0,0,1,2.875,23a20.125,20.125,0,0,1,40.25,0A19.863,19.863,0,0,1,37.734,36.656Z" transform="translate(2297 450)"/>
</svg>
