<svg xmlns="http://www.w3.org/2000/svg" viewBox="2019 452 46 46">
  <defs>
    <style>
      .cls-1 {
        fill: #fff;
      }
    </style>
  </defs>
  <path id="Path_15214" data-name="Path 15214" class="cls-1" d="M46,24V22H39.9a16.785,16.785,0,0,0-4.3-10.3L40,7.4,38.6,6l-4.3,4.3A17.123,17.123,0,0,0,24,6V0H22V6.1a16.785,16.785,0,0,0-10.3,4.3L7.4,6,6,7.4l4.3,4.3A17.123,17.123,0,0,0,6,22H0v2H6.1a16.785,16.785,0,0,0,4.3,10.3L6,38.6,7.4,40l4.3-4.3A17.123,17.123,0,0,0,22,40v6h2V39.9a16.785,16.785,0,0,0,10.3-4.3l4.3,4.3L40,38.5l-4.3-4.3A17.123,17.123,0,0,0,40,23.9h6Zm-8.1-2h-8a7.008,7.008,0,0,0-1.3-3.2l5.7-5.7A14.778,14.778,0,0,1,37.9,22ZM23,28a4.951,4.951,0,0,1-5-5h0a4.951,4.951,0,0,1,5-5h0a5,5,0,0,1,0,10Zm9.9-16.3-5.7,5.7A6.071,6.071,0,0,0,24,16.1v-8A14.778,14.778,0,0,1,32.9,11.7ZM22,8.1v8a7.008,7.008,0,0,0-3.2,1.3l-5.7-5.7A14.778,14.778,0,0,1,22,8.1Zm-10.3,5,5.7,5.7A6.071,6.071,0,0,0,16.1,22h-8A14.778,14.778,0,0,1,11.7,13.1ZM8.1,24h8a7.008,7.008,0,0,0,1.3,3.2l-5.7,5.7A14.778,14.778,0,0,1,8.1,24Zm5,10.3,5.7-5.7A6.071,6.071,0,0,0,22,29.9v8A14.778,14.778,0,0,1,13.1,34.3ZM24,37.9v-8a7.008,7.008,0,0,0,3.2-1.3l5.7,5.7A14.778,14.778,0,0,1,24,37.9Zm10.3-5-5.7-5.7A6.071,6.071,0,0,0,29.9,24h8A14.778,14.778,0,0,1,34.3,32.9Z" transform="translate(2019 452)"/>
</svg>
