<svg xmlns="http://www.w3.org/2000/svg" viewBox="2572 231 46 43.125">
  <defs>
    <style>
      .cls-1 {
        fill: #fff;
      }
    </style>
  </defs>
  <path id="Path_9409" data-name="Path 9409" class="cls-1" d="M41.9,8.625H34.5V4.1A4.142,4.142,0,0,0,30.4,0H15.6a4.142,4.142,0,0,0-4.1,4.1V8.625H4.1a4.142,4.142,0,0,0-4.1,4.1V39.028a4.142,4.142,0,0,0,4.1,4.1H41.9a4.142,4.142,0,0,0,4.1-4.1V12.722A4.142,4.142,0,0,0,41.9,8.625ZM14.375,4.313h17.25V8.625H14.375Zm28.75,34.716A1.26,1.26,0,0,1,41.9,40.25H4.1a1.26,1.26,0,0,1-1.222-1.222V29.972a3.357,3.357,0,0,0,1.222.216H18.688a4.313,4.313,0,0,0,8.625,0H41.9a3.357,3.357,0,0,0,1.222-.216ZM21.563,30.188V28.822h2.875v1.366a1.438,1.438,0,0,1-2.875,0Zm21.563-4.1A1.26,1.26,0,0,1,41.9,27.313H27.313V23H18.688v4.313H4.1a1.26,1.26,0,0,1-1.222-1.222V12.722A1.26,1.26,0,0,1,4.1,11.5H41.9a1.3,1.3,0,0,1,1.222,1.006V26.091Z" transform="translate(2572 231)"/>
</svg>
