<svg xmlns="http://www.w3.org/2000/svg" viewBox="2849 234 45 45">
  <defs>
    <style>
      .cls-1 {
        fill: #fff;
      }
    </style>
  </defs>
  <path id="Path_8356" data-name="Path 8356" class="cls-1" d="M22.5,0h0a22.5,22.5,0,0,0,0,45h0a22.5,22.5,0,0,0,0-45Zm.9,13.5a31.272,31.272,0,0,0,7.02-.9,35.247,35.247,0,0,1,1.08,9H23.4Zm0-1.8V1.98c2.34.72,4.86,3.96,6.48,8.82A40.076,40.076,0,0,1,23.4,11.7ZM21.6,1.98V11.7a26.772,26.772,0,0,1-6.48-.9C16.74,5.76,19.08,2.52,21.6,1.98Zm0,11.52v8.1H13.5a42.491,42.491,0,0,1,1.08-9A46.825,46.825,0,0,0,21.6,13.5Zm-9.9,8.1H1.8A20.936,20.936,0,0,1,6.48,9.36a39.05,39.05,0,0,0,6.3,2.7A39.682,39.682,0,0,0,11.7,21.6Zm0,1.8a39.446,39.446,0,0,0,1.26,9.54,39.05,39.05,0,0,0-6.3,2.7A19.993,19.993,0,0,1,1.8,23.4Zm1.8,0h8.1v8.1a31.272,31.272,0,0,0-7.02.9A33.322,33.322,0,0,1,13.5,23.4Zm8.1,9.9v9.72c-2.52-.72-4.86-3.96-6.48-8.82A25.6,25.6,0,0,1,21.6,33.3Zm1.8,9.72V33.3a26.772,26.772,0,0,1,6.48.9C28.26,39.06,25.74,42.3,23.4,43.02Zm0-11.52V23.4h8.1a42.491,42.491,0,0,1-1.08,9A46.826,46.826,0,0,0,23.4,31.5Zm9.9-8.1h9.9a20.936,20.936,0,0,1-4.68,12.24,34.966,34.966,0,0,0-6.48-2.7A39.446,39.446,0,0,0,33.3,23.4Zm0-1.8a39.446,39.446,0,0,0-1.26-9.54,49.484,49.484,0,0,0,6.48-2.7A20.936,20.936,0,0,1,43.2,21.6ZM37.26,7.92a30.463,30.463,0,0,1-5.58,2.34,19.384,19.384,0,0,0-4.32-7.92A20.909,20.909,0,0,1,37.26,7.92ZM17.64,2.34a19.384,19.384,0,0,0-4.32,7.92A21.607,21.607,0,0,1,7.74,7.92,20.909,20.909,0,0,1,17.64,2.34ZM7.74,37.08a30.463,30.463,0,0,1,5.58-2.34,19.384,19.384,0,0,0,4.32,7.92A20.909,20.909,0,0,1,7.74,37.08Zm19.62,5.58a19.384,19.384,0,0,0,4.32-7.92,30.463,30.463,0,0,1,5.58,2.34A20.909,20.909,0,0,1,27.36,42.66Z" transform="translate(2849 234)"/>
</svg>
