<svg xmlns="http://www.w3.org/2000/svg" xmlns:xlink="http://www.w3.org/1999/xlink" viewBox="934 5284 125.204 72.5">
  <defs>
    <style>
      .cls-1 {
        fill: url(#linear-gradient);
      }

      .cls-2, .cls-3 {
        fill: none;
      }

      .cls-2 {
        stroke: #fff;
        stroke-miterlimit: 10;
        stroke-width: 0.943px;
      }

      .cls-10, .cls-11, .cls-4 {
        fill: #fff;
      }

      .cls-5 {
        fill: #153b93;
      }

      .cls-6, .cls-9 {
        fill: #b8def5;
      }

      .cls-10, .cls-11, .cls-6, .cls-9 {
        stroke: #0098df;
      }

      .cls-10, .cls-12, .cls-6, .cls-8 {
        stroke-linecap: round;
        stroke-linejoin: round;
        stroke-width: 0.5px;
      }

      .cls-10, .cls-11, .cls-12, .cls-6, .cls-8, .cls-9 {
        stroke-miterlimit: 1;
      }

      .cls-7 {
        opacity: 0.35;
      }

      .cls-8 {
        fill: #20276e;
        stroke: #20276e;
      }

      .cls-9 {
        stroke-width: 0.272px;
      }

      .cls-11 {
        stroke-width: 0.544px;
      }

      .cls-12 {
        fill: #004da0;
        stroke: #004da0;
      }
    </style>
    <linearGradient id="linear-gradient" x1="0.5" y1="0.407" x2="0.5" y2="1" gradientUnits="objectBoundingBox">
      <stop offset="0" stop-color="#004da0"/>
      <stop offset="1" stop-color="#71c0e2"/>
    </linearGradient>
  </defs>
  <g id="Group_5153" data-name="Group 5153" transform="translate(933.952 5284)">
    <ellipse id="Ellipse_916" data-name="Ellipse 916" class="cls-1" cx="56.093" cy="29.922" rx="56.093" ry="29.922" transform="translate(7.032 6.87)"/>
    <path id="Path_52591" data-name="Path 52591" class="cls-2" d="M35.776,67.207C27.188,62.236,21.9,55.591,21.9,48.269,21.945,32.765,45.72,20.2,75.1,20.2s53.155,12.565,53.155,28.114c0,9.04-8.046,17.04-20.566,22.193" transform="translate(-11.975 -11.07)"/>
    <path id="Path_52592" data-name="Path 52592" class="cls-3" d="M30.264,65.293A69.7,69.7,0,0,1,47.8,60.457a54.71,54.71,0,0,1,17.176.407,103.094,103.094,0,0,1,14.147,4.068,59.044,59.044,0,0,0,15.006,3.3,40.619,40.619,0,0,0,14.69-2.26,80.035,80.035,0,0,0,8.5-3.209,33.314,33.314,0,0,0,5.65-5.334c4.927-6.057,6.328-13.876,2.26-20.7-4.294-7.142-12.113-11.933-19.978-15.006A92.532,92.532,0,0,0,71.8,15.8a95.687,95.687,0,0,0-28.2,4.068c-7.232,2.215-14.509,5.514-20.023,10.622-4.023,3.706-7.051,8.452-7.548,13.56a16.8,16.8,0,0,0,.633,6.147c.09.226.136.452.226.678C19.145,57.112,24.433,61.858,30.264,65.293Z" transform="translate(-8.723 -8.658)"/>
    <path id="Path_52593" data-name="Path 52593" class="cls-3" d="M74.673,128.025A63.961,63.961,0,0,0,65,130.285a86.348,86.348,0,0,0,27.029,5.831,103.328,103.328,0,0,0,23.911-1.22,72.638,72.638,0,0,1-9.175-2.531C96.278,128.794,85.882,126.308,74.673,128.025Z" transform="translate(-35.594 -69.853)"/>
    <path id="Path_52594" data-name="Path 52594" class="cls-3" d="M119.9,128.319a61.568,61.568,0,0,1-14.193-3.254c-10.531-3.571-20.927-6.057-32.092-4.339A72.1,72.1,0,0,0,58.2,124.974l.271.136A62.631,62.631,0,0,1,70,122.488a54.711,54.711,0,0,1,17.176.407,103.1,103.1,0,0,1,14.147,4.068,59.538,59.538,0,0,0,14.554,3.254c2.26-.5,4.475-1.085,6.69-1.763C121.705,128.409,120.8,128.409,119.9,128.319Z" transform="translate(-31.868 -65.853)"/>
    <path id="Path_52595" data-name="Path 52595" class="cls-3" d="M186.516,135.44a40.619,40.619,0,0,0,14.69-2.26,85.345,85.345,0,0,0,9.085-3.48c-1.763.678-3.571,1.311-5.424,1.853a46.264,46.264,0,0,1-11.887,2.124q-3.322,1.017-6.78,1.763C186.29,135.4,186.381,135.44,186.516,135.44Z" transform="translate(-102.012 -71.076)"/>
    <path id="Path_52596" data-name="Path 52596" class="cls-3" d="M49.3,132.427c1.4-.542,2.757-1.04,4.158-1.492l-.271-.136C51.922,131.342,50.611,131.84,49.3,132.427Z" transform="translate(-26.99 -71.679)"/>
    <path id="Path_52597" data-name="Path 52597" class="cls-4" d="M58,130.745l.271.136c.045,0,.09,0,.09-.045l-.271-.136A.14.14,0,0,1,58,130.745Z" transform="translate(-31.758 -71.624)"/>
    <path id="Path_52598" data-name="Path 52598" class="cls-4" d="M139.6,15.59v0Z" transform="translate(-76.475 -8.494)"/>
    <path id="Path_52599" data-name="Path 52599" class="cls-4" d="M192.59,138.4c-2.215.678-4.43,1.266-6.69,1.763h.181q3.458-.746,6.78-1.763Z" transform="translate(-101.848 -75.844)"/>
    <path id="Path_52600" data-name="Path 52600" class="cls-4" d="M23.594,30.325c5.514-5.108,12.791-8.407,20.069-10.667a95.687,95.687,0,0,1,28.2-4.068V15.5a92.532,92.532,0,0,0-33.448,5.921c-7.82,3.074-15.684,7.82-19.978,15.006A17.509,17.509,0,0,0,16,43.885C16.542,38.733,19.571,33.987,23.594,30.325Z" transform="translate(-8.742 -8.494)"/>
    <path id="Path_52601" data-name="Path 52601" class="cls-4" d="M139.545,15.63a92.532,92.532,0,0,1,33.448,5.921c7.82,3.074,15.684,7.82,19.978,15.006,4.113,6.87,2.712,14.69-2.26,20.7a33.315,33.315,0,0,1-5.65,5.334h0c6.69-4.972,11.526-11.661,10.125-20.069-1.446-8.95-10.034-15.232-17.944-19.119-11.526-5.7-24.9-7.774-37.742-7.82C139.545,15.539,139.545,15.63,139.545,15.63Z" transform="translate(-76.42 -8.534)"/>
    <path id="Path_52602" data-name="Path 52602" class="cls-4" d="M15.912,78.3a15.215,15.215,0,0,0,.633,6.147A17.828,17.828,0,0,1,15.912,78.3Z" transform="translate(-8.653 -42.909)"/>
    <path id="Path_52603" data-name="Path 52603" class="cls-4" d="M91.865,139.531A85.1,85.1,0,0,1,64.836,133.7c-.045,0-.09.045-.136.045a86.632,86.632,0,0,0,27.933,5.876,100.822,100.822,0,0,0,23.323-1.311.166.166,0,0,1-.136-.045A103.871,103.871,0,0,1,91.865,139.531Z" transform="translate(-35.43 -73.268)"/>
    <path id="Path_52604" data-name="Path 52604" class="cls-4" d="M17.626,92.578c-.09-.226-.136-.452-.226-.678.09.362.226.723.362,1.13,2.215,6.057,7.5,10.622,13.2,13.967a.044.044,0,0,0,.045-.045C25.22,103.561,19.931,98.816,17.626,92.578Z" transform="translate(-9.509 -50.362)"/>
    <path id="Path_52605" data-name="Path 52605" class="cls-4" d="M87.6,125.018a54.775,54.775,0,0,0-17.176-.407A66.549,66.549,0,0,0,58.9,127.233c.9.407,1.853.814,2.8,1.175a77.109,77.109,0,0,1,9.673-2.26c11.164-1.718,21.605.768,32.092,4.339a72.638,72.638,0,0,0,9.176,2.531c1.22-.226,2.441-.452,3.661-.723a59.538,59.538,0,0,1-14.554-3.254A109.7,109.7,0,0,0,87.6,125.018Z" transform="translate(-32.251 -68.022)"/>
    <path id="Path_52606" data-name="Path 52606" class="cls-4" d="M126.257,119.426a40.619,40.619,0,0,1-14.69,2.26,59.044,59.044,0,0,1-15.006-3.3,109.879,109.879,0,0,0-14.147-4.068,54.775,54.775,0,0,0-17.176-.407A69.7,69.7,0,0,0,47.7,118.748c1.085.633,2.17,1.22,3.3,1.763.5.226.994.5,1.492.723A72.831,72.831,0,0,1,67.9,116.985c11.164-1.718,21.605.768,32.092,4.339a61.569,61.569,0,0,0,14.193,3.254c.9.09,1.808.136,2.667.136.181-.045.407-.136.588-.181a67.625,67.625,0,0,0,12.43-5.2c.09-.045.226-.136.316-.181.226-.136.5-.271.723-.407a38.508,38.508,0,0,0,3.616-2.4c.045-.045.136-.09.181-.136A83.159,83.159,0,0,1,126.257,119.426Z" transform="translate(-26.113 -62.158)"/>
    <path id="Path_52607" data-name="Path 52607" class="cls-4" d="M229.816,126.1c-.09.045-.226.136-.316.181C229.59,126.236,229.726,126.145,229.816,126.1Z" transform="translate(-125.741 -69.103)"/>
    <path id="Path_52608" data-name="Path 52608" class="cls-4" d="M235.416,119.9c-1.175.859-2.4,1.627-3.616,2.4A41.763,41.763,0,0,0,235.416,119.9Z" transform="translate(-127.001 -65.706)"/>
    <path id="Path_52609" data-name="Path 52609" class="cls-4" d="M230.923,125.2c-.226.136-.5.271-.723.407C230.471,125.471,230.7,125.336,230.923,125.2Z" transform="translate(-126.124 -68.61)"/>
    <path id="Path_52610" data-name="Path 52610" class="cls-4" d="M200.7,131.879h.226l.949-.271a60.464,60.464,0,0,0,11.842-5.108,64.638,64.638,0,0,1-12.43,5.2A4.2,4.2,0,0,1,200.7,131.879Z" transform="translate(-109.958 -69.323)"/>
    <path id="Path_52611" data-name="Path 52611" class="cls-4" d="M52.246,127.731c.045,0,.045-.045.09-.045-.5-.226-.994-.452-1.492-.723-1.085-.542-2.215-1.13-3.3-1.763a.044.044,0,0,0-.045.045c1.266.768,2.576,1.446,3.842,2.079C51.658,127.46,51.93,127.6,52.246,127.731Z" transform="translate(-26.004 -68.61)"/>
    <path id="Path_52612" data-name="Path 52612" class="cls-4" d="M239.8,119.736c.045-.045.136-.09.181-.136h0A.624.624,0,0,1,239.8,119.736Z" transform="translate(-131.385 -65.541)"/>
    <path id="Path_52613" data-name="Path 52613" class="cls-4" d="M58.69,131c-.045,0-.09,0-.09.045.9.407,1.808.814,2.757,1.22.045,0,.09-.045.136-.045C60.544,131.814,59.594,131.452,58.69,131Z" transform="translate(-32.087 -71.789)"/>
    <path id="Path_52614" data-name="Path 52614" class="cls-4" d="M181.361,142.3c-1.22.271-2.441.5-3.661.723a.166.166,0,0,1,.136.045c1.22-.226,2.486-.452,3.706-.723C181.5,142.3,181.452,142.3,181.361,142.3Z" transform="translate(-97.354 -77.981)"/>
    <path id="Path_52615" data-name="Path 52615" class="cls-5" d="M44.029,132.008l.814.452.09-.181c.452-.768.316-1.04-.768-1.627l-.768-.407c-.994-.542-1.22-.5-1.537.136-.226.407-.271.5-.045.859h0c-.542-.271-.814-.181-1.085.362l-.136.271c-.407.768-.045,1.175.678,1.582l1.311.723c.407.226.859.452,1.22.226l.407.588.588-.452-.407-.633a1.251,1.251,0,0,0,.226-.362l.271-.452-.768-.452-.226.452-1.085-1.718c-.136-.226-.136-.271-.045-.407.09-.181.181-.181.452,0l.678.362c.316.181.407.316.271.5Zm-.768,1.537c-.045,0-.045.045,0,0l-1.4-.768c-.271-.136-.407-.316-.316-.542,0-.045.045-.09.045-.136.181-.316.271-.362.407-.316h.09a.347.347,0,0,1,.136.09Z" transform="translate(-22.126 -71.169)"/>
    <path id="Path_52616" data-name="Path 52616" class="cls-5" d="M60.075,141.943l.994-2.531h-.045L58.719,141.4l-.768-.271-.362-3.074h0l-.994,2.531-.994-.407,1.356-3.48,1.582.588L58.809,140l2.034-1.808,1.582.633-1.356,3.526Z" transform="translate(-30.443 -74.912)"/>
    <path id="Path_52617" data-name="Path 52617" class="cls-5" d="M73.294,143.207l-1.356-.407L69,145.828l1.175.362.5-.542,2.124.633.136.723,1.175.362Zm-1.989,1.808,1.085-1.13.271,1.537Z" transform="translate(-37.786 -78.255)"/>
    <path id="Path_52618" data-name="Path 52618" class="cls-5" d="M85.287,145.823l-3.028-.723-.859,3.661,1.085.271.226-1.04.588.136,1.175,1.356,1.627.362-1.13-1.356a1,1,0,0,0,1.311-.859l.045-.271A1.17,1.17,0,0,0,85.287,145.823Zm-.09,1.311h0l-.045.226c-.045.136-.09.271-.452.181l-1.808-.407.181-.814,1.763.407C85.242,146.772,85.242,146.953,85.2,147.134Z" transform="translate(-44.581 -79.516)"/>
    <rect id="Rectangle_2613" data-name="Rectangle 2613" class="cls-5" width="3.752" height="1.085" transform="translate(41.728 70.383) rotate(-78.849)"/>
    <path id="Path_52619" data-name="Path 52619" class="cls-5" d="M99.519,152.5l-1.627-2.983v-.045l-.407,2.712-1.085-.181.588-3.706,1.672.271,1.627,3.028h0l.452-2.712,1.085.181-.588,3.706Z" transform="translate(-52.801 -81.269)"/>
    <path id="Path_52620" data-name="Path 52620" class="cls-5" d="M108.6,153.852l.407-3.752,3.932.452-.09.859L110,151.094l-.045.588,2.667.316-.09.768-2.667-.271-.045.588,2.848.316-.09.859Z" transform="translate(-59.487 -82.256)"/>
    <path id="Path_52621" data-name="Path 52621" class="cls-5" d="M126.926,151.745l-1.446-.045-2.079,3.706,1.22.045.362-.633,2.215.09.316.678,1.22.045Zm-1.492,2.215.768-1.4.678,1.446Z" transform="translate(-67.597 -83.132)"/>
    <path id="Path_52622" data-name="Path 52622" class="cls-5" d="M138.648,155.642h-1.356c-.994,0-1.4-.181-1.4-.994v-.271h1.085v.136c.045.271.181.271.452.271h1.356c.226,0,.452-.045.452-.316,0-.316-.136-.362-1.537-.316h-.678c-1.04-.045-1.175-.316-1.22-1.085,0-.678.045-1.22,1.446-1.22l1.537-.045c1.266,0,1.4.407,1.4,1.085v.136H139.1c0-.271-.045-.407-.542-.362h-1.22c-.271,0-.407.09-.407.316,0,.316.136.316,1.311.316h1.175c.678.09.9.316.949.949v.181C140.456,155.416,140.094,155.6,138.648,155.642Z" transform="translate(-74.393 -83.187)"/>
    <path id="Path_52623" data-name="Path 52623" class="cls-5" d="M149.826,155.073l-1.356.09c-.994.045-1.4-.136-1.446-.949v-.271l1.085-.045v.136c.045.271.226.271.5.271l1.356-.09c.226,0,.452-.045.452-.362s-.136-.362-1.582-.271h-.678c-1.04,0-1.22-.271-1.266-1.04-.045-.678,0-1.22,1.4-1.266l1.537-.09c1.266-.09,1.4.362,1.446,1.04v.136l-1.085.045c0-.271-.045-.407-.542-.362l-1.22.09c-.271,0-.407.09-.407.316,0,.316.136.316,1.356.271.5-.045.859-.045,1.175-.045.678.045.9.271.994.9v.181C151.633,154.8,151.317,155.028,149.826,155.073Z" transform="translate(-80.463 -82.844)"/>
    <path id="Path_52624" data-name="Path 52624" class="cls-5" d="M163.051,152.562l-.136-1.13c-.136-1.085-.723-1.311-1.718-1.175l-1.763.181c-.994.09-1.537.407-1.446,1.537l.136,1.13c.136,1.085.723,1.311,1.718,1.175l1.763-.181C162.6,153.963,163.141,153.647,163.051,152.562Zm-1.718.542-1.4.136c-.5.045-.633-.136-.723-.678l-.045-.407c-.045-.452.045-.768.588-.814l1.266-.136c.588-.045.723.226.768.678l.045.407C161.921,152.833,161.83,153.059,161.333,153.1Z" transform="translate(-86.547 -82.322)"/>
    <path id="Path_52625" data-name="Path 52625" class="cls-5" d="M173.565,152.4l-1.763.271c-.994.136-1.627,0-1.763-1.085l-.181-1.085c-.181-1.085.362-1.446,1.356-1.582l1.266-.226c1.311-.226,1.718,0,1.9.678.045.136.045.271.09.452l-1.085.181v-.09c-.045-.271-.226-.316-.588-.271l-1.175.181c-.588.09-.633.407-.542.859l.045.407c.09.542.226.723.723.633l1.175-.181c.452-.09.588-.136.588-.452v-.181l1.085-.181.045.362C174.785,151.726,174.649,152.223,173.565,152.4Z" transform="translate(-93.038 -81.44)"/>
    <rect id="Rectangle_2614" data-name="Rectangle 2614" class="cls-5" width="1.085" height="3.752" transform="matrix(0.981, -0.194, 0.194, 0.981, 81.754, 66.857)"/>
    <path id="Path_52626" data-name="Path 52626" class="cls-5" d="M188.141,145.7l-1.4.316-1.04,4.113,1.22-.271.181-.723,2.17-.5.5.588,1.175-.271Zm-.859,2.531.362-1.537,1.04,1.22Z" transform="translate(-101.738 -79.844)"/>
    <path id="Path_52627" data-name="Path 52627" class="cls-5" d="M197.3,143.611l.814,2.712-1.04.316-.814-2.712-1.492.452-.271-.9,4.068-1.175.226.9Z" transform="translate(-106.561 -77.981)"/>
    <rect id="Rectangle_2615" data-name="Rectangle 2615" class="cls-5" width="1.085" height="3.752" transform="matrix(0.948, -0.318, 0.318, 0.948, 92.44, 64.145)"/>
    <path id="Path_52628" data-name="Path 52628" class="cls-5" d="M214.043,139.453l-.407-1.04c-.407-1.04-1.04-1.04-1.989-.678l-1.627.633c-.9.362-1.4.814-.994,1.853l.407,1.04c.407,1.04,1.04,1.04,1.989.678l1.627-.633C214,140.9,214.45,140.447,214.043,139.453Zm-1.492.994-1.311.5c-.5.181-.678.045-.859-.452l-.136-.362c-.181-.452-.181-.723.362-.949l1.22-.452c.542-.226.768,0,.9.452l.136.362C213.049,140.04,213.049,140.266,212.551,140.447Z" transform="translate(-114.442 -75.36)"/>
    <path id="Path_52629" data-name="Path 52629" class="cls-5" d="M224.02,135.613l-3.074-1.537h0l1.175,2.486-.994.452L219.5,133.67l1.537-.768,3.074,1.537h0L222.89,132l.994-.5,1.672,3.39Z" transform="translate(-120.261 -72.063)"/>
    <path id="Path_52630" data-name="Path 52630" class="cls-5" d="M48.709,19.887l-1.175.542-1.808-1.853h0L46,21.153l-1.13.542L42.2,18.8l.994-.452,1.853,2.17h0l-.362-2.893.949-.452L47.624,19.3h.045l-.542-2.848L48.121,16Z" transform="translate(-23.099 -8.768)"/>
    <path id="Path_52631" data-name="Path 52631" class="cls-5" d="M62.336,14.414l-.407-1.04c-.407-1.04-1.04-1.085-1.944-.723l-1.672.633c-.949.362-1.4.814-.994,1.853l.407,1.04c.407,1.04,1.04,1.085,1.944.723l1.672-.633C62.29,15.861,62.742,15.409,62.336,14.414Zm-1.492.994-1.311.5c-.5.181-.678.045-.859-.5l-.136-.362c-.181-.452-.181-.768.362-.949l1.22-.452c.542-.226.768.045.9.452l.136.362C61.341,14.957,61.341,15.183,60.844,15.409Z" transform="translate(-31.302 -6.821)"/>
    <path id="Path_52632" data-name="Path 52632" class="cls-5" d="M72.523,11.471a1.045,1.045,0,0,0,.723-1.4l-.09-.226a1.164,1.164,0,0,0-1.672-.859l-2.983.9L69.585,13.5l1.04-.316-.316-.994.542-.181,1.672.588,1.582-.5Zm-.633-.723-1.808.542-.271-.814,1.718-.542c.362-.09.452.045.5.226h0l.045.226C72.206,10.521,72.206,10.657,71.89,10.747Z" transform="translate(-37.512 -4.872)"/>
    <path id="Path_52633" data-name="Path 52633" class="cls-5" d="M80.4,11.187l-.9-3.616L80.585,7.3l.678,2.667,2.4-.588.226.949Z" transform="translate(-43.54 -4)"/>
    <path id="Path_52634" data-name="Path 52634" class="cls-5" d="M93.8,6.139l-.226-1.13c-.181-.9-.633-1.22-1.718-.994L88.6,4.648l.723,3.706,3.254-.633C93.662,7.5,93.979,7.088,93.8,6.139Zm-1.672.678-1.944.362L89.82,5.371l1.944-.362c.452-.09.678,0,.768.542l.09.5C92.758,6.546,92.623,6.727,92.126,6.817Z" transform="translate(-48.527 -2.162)"/>
    <path id="Path_52635" data-name="Path 52635" class="cls-5" d="M105.976,5.187l-1.266.181-1.175-2.35h0l-.5,2.576-1.266.181L100.1,2.2l1.085-.136,1.13,2.622h0l.542-2.848,1.04-.181,1.266,2.622h0l.407-2.848,1.04-.136Z" transform="translate(-54.829 -0.712)"/>
    <rect id="Rectangle_2616" data-name="Rectangle 2616" class="cls-5" width="1.085" height="3.752" transform="translate(52.378 0.604) rotate(-5.405)"/>
    <path id="Path_52636" data-name="Path 52636" class="cls-5" d="M125.217,2.745l-.09-1.13c-.045-.949-.452-1.266-1.582-1.22L120.2.576l.226,3.752,3.345-.181C124.9,4.056,125.262,3.695,125.217,2.745ZM123.5,3.2l-1.944.136-.09-1.853,1.944-.136c.452-.045.678.09.678.633l.045.5C124.132,3.017,123.952,3.152,123.5,3.2Z" transform="translate(-65.844 -0.214)"/>
    <path id="Path_52637" data-name="Path 52637" class="cls-5" d="M132.845,3.842,132.8.045,136.732,0V.859L133.885.9v.633l2.712-.045V2.26l-2.667.045v.588l2.893-.045v.9Z" transform="translate(-72.749)"/>
    <rect id="Rectangle_2617" data-name="Rectangle 2617" class="cls-5" width="3.752" height="1.085" transform="translate(67.245 3.843) rotate(-87.875)"/>
    <path id="Path_52638" data-name="Path 52638" class="cls-5" d="M156.009,4.278l-1.9-2.848V1.385l-.181,2.757-1.13-.09L153.071.3l1.718.136,1.853,2.848h.045l.181-2.712,1.085.09-.271,3.752Z" transform="translate(-83.709 -0.164)"/>
    <path id="Path_52639" data-name="Path 52639" class="cls-5" d="M169.052,1.707l-3.3-.407L165.3,5.052l3.3.407c1.085.136,1.537-.181,1.627-1.13l.136-1.13C170.5,2.294,170.136,1.842,169.052,1.707Zm.181,1.672-.045.5c-.045.542-.271.633-.723.588l-1.944-.271.226-1.853,1.944.226C169.142,2.656,169.323,2.837,169.232,3.379Z" transform="translate(-90.559 -0.712)"/>
    <path id="Path_52640" data-name="Path 52640" class="cls-5" d="M180.424,7.194l-1.537-.271c-.994-.181-1.356-.678-1.22-1.627l.407-2.4,1.085.181-.407,2.124c-.09.452.045.678.5.768l1.085.181c.452.09.633-.09.723-.542l.407-2.124,1.085.181-.452,2.4C181.961,7.013,181.464,7.375,180.424,7.194Z" transform="translate(-97.321 -1.589)"/>
    <path id="Path_52641" data-name="Path 52641" class="cls-5" d="M191.282,9.73l-1.311-.316c-.994-.226-1.311-.542-1.13-1.311l.045-.271,1.085.271a.166.166,0,0,1-.045.136c0,.271.136.316.407.407l1.311.316c.226.045.452.09.542-.181.09-.316-.045-.362-1.446-.678-.226-.045-.452-.136-.633-.181-.994-.316-1.085-.588-.9-1.356.136-.678.316-1.175,1.672-.814l1.492.362c1.22.316,1.266.768,1.085,1.4l-.045.136-1.085-.271c.045-.271.045-.407-.452-.5l-1.175-.271c-.226-.045-.407,0-.452.181-.09.316.045.362,1.22.633a7.4,7.4,0,0,1,1.13.316.869.869,0,0,1,.678,1.175v.09l-.045.09C193.09,9.956,192.729,10.047,191.282,9.73Z" transform="translate(-103.433 -3.086)"/>
    <path id="Path_52642" data-name="Path 52642" class="cls-5" d="M203.331,9.372l-.814,2.712-1.04-.316.814-2.712L200.8,8.6l.271-.9,4.023,1.22-.271.859Z" transform="translate(-110.013 -4.22)"/>
    <path id="Path_52643" data-name="Path 52643" class="cls-5" d="M213,11.84l-2.938-1.04L208.8,14.326l1.04.362.362-.994.542.181.994,1.492,1.537.542-.949-1.492a1.01,1.01,0,0,0,1.4-.678l.09-.226A1.134,1.134,0,0,0,213,11.84Zm-.226,1.311h0l-.09.226c-.045.136-.136.226-.452.136l-1.763-.633.271-.814,1.718.633C212.868,12.789,212.868,12.97,212.778,13.15Z" transform="translate(-114.397 -5.918)"/>
    <rect id="Rectangle_2618" data-name="Rectangle 2618" class="cls-5" width="3.752" height="1.085" transform="matrix(0.382, -0.924, 0.924, 0.382, 99.151, 10.157)"/>
    <path id="Path_52644" data-name="Path 52644" class="cls-5" d="M227.1,18.633,225.79,18l-3.39,2.576,1.13.542.588-.452,2.034.949.045.768,1.13.542Zm-2.26,1.446,1.22-.994.045,1.582Z" transform="translate(-121.85 -9.864)"/>
    <path id="Path_52645" data-name="Path 52645" class="cls-5" d="M233.7,25.254,235.6,22l.949.542-1.4,2.441,2.17,1.22-.5.859Z" transform="translate(-128.042 -12.056)"/>
    <path id="Path_52646" data-name="Path 52646" class="cls-5" d="M16.615,73.846C8.614,68.919.885,61.19,1.428,51.11c.542-9.944,9.266-17.221,17.311-21.7.407-.226-.859-.407-1.175-.271C9.383,33.709.976,40.9.117,50.839-.787,61.1,7.394,69.19,15.439,74.117c.316.226,1.582-.045,1.175-.271Z" transform="translate(0 -15.945)"/>
    <path id="Path_52647" data-name="Path 52647" class="cls-5" d="M240.4,35.606c7.458,5.2,13.967,13.153,12.475,22.781-1.4,9.13-9.4,15.729-16.995,19.978-.452.271.768.678,1.085.5,7.865-4.384,15.865-11.074,17.266-20.475,1.492-9.673-5.424-17.763-12.837-22.916-.271-.271-1.582-.271-.994.136Z" transform="translate(-129.182 -19.335)"/>
    <rect id="Rectangle_2619" data-name="Rectangle 2619" class="cls-3" width="90.58" height="26.469" transform="translate(18.401 22.332)"/>
    <g id="Group_5149" data-name="Group 5149" transform="translate(21.858 25.809)">
      <g id="Group_5147" data-name="Group 5147">
        <path id="Path_52648" data-name="Path 52648" class="cls-6" d="M70.131,57.745H65.7a.405.405,0,0,0-.407.407V69.587a2.335,2.335,0,0,1-.452,1.627,1.5,1.5,0,0,1-1.175.5,1.435,1.435,0,0,1-1.175-.5,2.684,2.684,0,0,1-.452-1.627V58.107a.405.405,0,0,0-.407-.407H57.2a.405.405,0,0,0-.407.407V69.587a2.7,2.7,0,0,1-.407,1.627,1.421,1.421,0,0,1-1.175.5,1.669,1.669,0,0,1-1.22-.5,2.891,2.891,0,0,1-.452-1.627V58.107a.405.405,0,0,0-.407-.407h-4.43a.405.405,0,0,0-.407.407V69.271a7.745,7.745,0,0,0,1.9,5.469,6.418,6.418,0,0,0,5.017,2.079,5.967,5.967,0,0,0,2.441-.542A6.535,6.535,0,0,0,59.464,75.1a8.145,8.145,0,0,0,1.853,1.22,6.315,6.315,0,0,0,2.4.5A6.505,6.505,0,0,0,68.73,74.74a7.973,7.973,0,0,0,1.853-5.514V58.107A.487.487,0,0,0,70.131,57.745Z" transform="translate(-48.3 -57.429)"/>
        <path id="Path_52649" data-name="Path 52649" class="cls-6" d="M152.613,57.8a6.687,6.687,0,0,0-2.4.5,9.264,9.264,0,0,0-1.853,1.22,6.535,6.535,0,0,0-1.808-1.175,5.663,5.663,0,0,0-2.441-.542,6.573,6.573,0,0,0-5.017,2.079,7.745,7.745,0,0,0-1.9,5.469V76.513a.405.405,0,0,0,.407.407h4.43a.405.405,0,0,0,.407-.407V65.077a2.575,2.575,0,0,1,.452-1.627,1.669,1.669,0,0,1,1.22-.5,1.567,1.567,0,0,1,1.175.5,2.785,2.785,0,0,1,.452,1.627V76.558a.405.405,0,0,0,.407.407h4.384a.405.405,0,0,0,.407-.407V65.077a2.412,2.412,0,0,1,.452-1.627,1.435,1.435,0,0,1,1.175-.5,1.5,1.5,0,0,1,1.175.5,2.412,2.412,0,0,1,.452,1.627V76.558a.405.405,0,0,0,.407.407h4.43a.405.405,0,0,0,.407-.407V65.348a8.133,8.133,0,0,0-1.853-5.514A6.375,6.375,0,0,0,152.613,57.8Z" transform="translate(-97.018 -57.484)"/>
        <path id="Path_52650" data-name="Path 52650" class="cls-6" d="M207.868,57.1a6.959,6.959,0,0,0-5.379,2.26,8.561,8.561,0,0,0-1.989,5.876V75.948a.405.405,0,0,0,.407.407h4.52a.405.405,0,0,0,.407-.407v-6.69a.434.434,0,0,0,.407.316h3.616V75.9a.405.405,0,0,0,.407.407h4.52a.405.405,0,0,0,.407-.407V65.191a8.489,8.489,0,0,0-2.034-5.921A6.72,6.72,0,0,0,207.868,57.1Z" transform="translate(-131.706 -57.1)"/>
        <path id="Path_52651" data-name="Path 52651" class="cls-6" d="M212.4,71.176a2.78,2.78,0,0,1,.588-1.944,1.693,1.693,0,0,1,1.446-.633,1.719,1.719,0,0,1,1.446.678,2.844,2.844,0,0,1,.588,1.627h-3.616A.376.376,0,0,0,212.4,71.176Z" transform="translate(-138.228 -63.402)"/>
        <path id="Path_52652" data-name="Path 52652" class="cls-6" d="M115.627,58.2h-4.52a.405.405,0,0,0-.407.407V76.732a.405.405,0,0,0,.407.407h4.52a.405.405,0,0,0,.407-.407V58.607A.405.405,0,0,0,115.627,58.2Z" transform="translate(-82.496 -57.703)"/>
      </g>
      <g id="Group_5148" data-name="Group 5148" class="cls-7">
        <path id="Path_52653" data-name="Path 52653" class="cls-8" d="M70.131,57.745H65.7a.405.405,0,0,0-.407.407V69.587a2.335,2.335,0,0,1-.452,1.627,1.5,1.5,0,0,1-1.175.5,1.435,1.435,0,0,1-1.175-.5,2.684,2.684,0,0,1-.452-1.627V58.107a.405.405,0,0,0-.407-.407H57.2a.405.405,0,0,0-.407.407V69.587a2.7,2.7,0,0,1-.407,1.627,1.421,1.421,0,0,1-1.175.5,1.669,1.669,0,0,1-1.22-.5,2.891,2.891,0,0,1-.452-1.627V58.107a.405.405,0,0,0-.407-.407h-4.43a.405.405,0,0,0-.407.407V69.271a7.745,7.745,0,0,0,1.9,5.469,6.418,6.418,0,0,0,5.017,2.079,5.967,5.967,0,0,0,2.441-.542A6.535,6.535,0,0,0,59.464,75.1a8.145,8.145,0,0,0,1.853,1.22,6.315,6.315,0,0,0,2.4.5A6.505,6.505,0,0,0,68.73,74.74a7.973,7.973,0,0,0,1.853-5.514V58.107A.487.487,0,0,0,70.131,57.745Z" transform="translate(-48.3 -57.429)"/>
        <path id="Path_52654" data-name="Path 52654" class="cls-8" d="M152.613,57.8a6.687,6.687,0,0,0-2.4.5,9.264,9.264,0,0,0-1.853,1.22,6.535,6.535,0,0,0-1.808-1.175,5.663,5.663,0,0,0-2.441-.542,6.573,6.573,0,0,0-5.017,2.079,7.745,7.745,0,0,0-1.9,5.469V76.513a.405.405,0,0,0,.407.407h4.43a.405.405,0,0,0,.407-.407V65.077a2.575,2.575,0,0,1,.452-1.627,1.669,1.669,0,0,1,1.22-.5,1.567,1.567,0,0,1,1.175.5,2.785,2.785,0,0,1,.452,1.627V76.558a.405.405,0,0,0,.407.407h4.384a.405.405,0,0,0,.407-.407V65.077a2.412,2.412,0,0,1,.452-1.627,1.435,1.435,0,0,1,1.175-.5,1.5,1.5,0,0,1,1.175.5,2.412,2.412,0,0,1,.452,1.627V76.558a.405.405,0,0,0,.407.407h4.43a.405.405,0,0,0,.407-.407V65.348a8.133,8.133,0,0,0-1.853-5.514A6.375,6.375,0,0,0,152.613,57.8Z" transform="translate(-97.018 -57.484)"/>
        <path id="Path_52655" data-name="Path 52655" class="cls-8" d="M207.868,57.1a6.959,6.959,0,0,0-5.379,2.26,8.561,8.561,0,0,0-1.989,5.876V75.948a.405.405,0,0,0,.407.407h4.52a.405.405,0,0,0,.407-.407v-6.69a.434.434,0,0,0,.407.316h3.616V75.9a.405.405,0,0,0,.407.407h4.52a.405.405,0,0,0,.407-.407V65.191a8.489,8.489,0,0,0-2.034-5.921A6.72,6.72,0,0,0,207.868,57.1Z" transform="translate(-131.706 -57.1)"/>
        <path id="Path_52656" data-name="Path 52656" class="cls-8" d="M212.4,71.176a2.78,2.78,0,0,1,.588-1.944,1.693,1.693,0,0,1,1.446-.633,1.719,1.719,0,0,1,1.446.678,2.844,2.844,0,0,1,.588,1.627h-3.616A.376.376,0,0,0,212.4,71.176Z" transform="translate(-138.228 -63.402)"/>
        <path id="Path_52657" data-name="Path 52657" class="cls-8" d="M115.627,58.2h-4.52a.405.405,0,0,0-.407.407V76.732a.405.405,0,0,0,.407.407h4.52a.405.405,0,0,0,.407-.407V58.607A.405.405,0,0,0,115.627,58.2Z" transform="translate(-82.496 -57.703)"/>
      </g>
    </g>
    <path id="Path_52658" data-name="Path 52658" class="cls-9" d="M101.137,93.6A1.545,1.545,0,0,0,99.6,95.092a1.309,1.309,0,0,0,.452,1.04,1.62,1.62,0,0,0,1.085.407,1.309,1.309,0,0,0,1.04-.452,1.373,1.373,0,0,0,.452-1.04,1.309,1.309,0,0,0-.452-1.04A1.432,1.432,0,0,0,101.137,93.6Z" transform="translate(-54.555 -51.293)"/>
    <path id="Path_52659" data-name="Path 52659" class="cls-9" d="M128.037,93.6a1.545,1.545,0,0,0-1.537,1.492,1.309,1.309,0,0,0,.452,1.04,1.62,1.62,0,0,0,1.085.407,1.309,1.309,0,0,0,1.04-.452,1.373,1.373,0,0,0,.452-1.04,1.309,1.309,0,0,0-.452-1.04A1.432,1.432,0,0,0,128.037,93.6Z" transform="translate(-69.296 -51.293)"/>
    <path id="Path_52660" data-name="Path 52660" class="cls-9" d="M238.537,93.6A1.545,1.545,0,0,0,237,95.092a1.309,1.309,0,0,0,.452,1.04,1.62,1.62,0,0,0,1.085.407,1.309,1.309,0,0,0,1.04-.452,1.373,1.373,0,0,0,.452-1.04,1.309,1.309,0,0,0-.452-1.04A1.432,1.432,0,0,0,238.537,93.6Z" transform="translate(-129.851 -51.293)"/>
    <path id="Path_52661" data-name="Path 52661" class="cls-9" d="M191.737,93.6a1.545,1.545,0,0,0-1.537,1.492,1.309,1.309,0,0,0,.452,1.04,1.54,1.54,0,0,0,1.085.407,1.309,1.309,0,0,0,1.04-.452,1.373,1.373,0,0,0,.452-1.04,1.309,1.309,0,0,0-.452-1.04A1.432,1.432,0,0,0,191.737,93.6Z" transform="translate(-104.204 -51.293)"/>
    <path id="Path_52662" data-name="Path 52662" class="cls-10" d="M137.4,87.4v5.288a.405.405,0,0,0,.407.407h4.43a.405.405,0,0,0,.407-.407V89.163C140.88,88.666,139.163,88.033,137.4,87.4Z" transform="translate(-75.27 -47.896)"/>
    <path id="Path_52663" data-name="Path 52663" class="cls-10" d="M174.8,95.9v1.446a.405.405,0,0,0,.407.407h4.43a.405.405,0,0,0,.407-.407V95.99A50.954,50.954,0,0,1,174.8,95.9Z" transform="translate(-95.765 -52.554)"/>
    <path id="Path_52664" data-name="Path 52664" class="cls-10" d="M157.692,93.616c-.5-.09-.994-.226-1.492-.316v2.667a.405.405,0,0,0,.407.407h4.384a.405.405,0,0,0,.407-.407V94.249C160.178,94.068,158.912,93.842,157.692,93.616Z" transform="translate(-85.572 -51.129)"/>
    <g id="Group_5152" data-name="Group 5152" transform="translate(21.858 25.764)">
      <g id="Group_5150" data-name="Group 5150" transform="translate(0 0.362)">
        <path id="Path_52665" data-name="Path 52665" class="cls-10" d="M91.043,60.557v-2.35a.405.405,0,0,0-.407-.407h-4.43a.405.405,0,0,0-.407.407V60.06A40.373,40.373,0,0,1,91.043,60.557Z" transform="translate(-68.85 -57.8)"/>
        <path id="Path_52666" data-name="Path 52666" class="cls-11" d="M70.716,60.2c.542-.045,1.085-.09,1.582-.09v-1.9a.405.405,0,0,0-.407-.407H67.507a.405.405,0,0,0-.407.407v2.486A33.084,33.084,0,0,1,70.716,60.2Z" transform="translate(-58.602 -57.8)"/>
        <path id="Path_52667" data-name="Path 52667" class="cls-10" d="M65.25,70.833v5.831a2.335,2.335,0,0,1-.452,1.627,1.5,1.5,0,0,1-1.175.5,1.435,1.435,0,0,1-1.175-.5A2.684,2.684,0,0,1,62,76.664V71.285a40.971,40.971,0,0,0-5.2,1.13v4.294a2.7,2.7,0,0,1-.407,1.627,1.421,1.421,0,0,1-1.175.5,1.669,1.669,0,0,1-1.22-.5,2.891,2.891,0,0,1-.452-1.627V73.365q-1.763.61-3.526,1.356c-.542.226-1.13.452-1.718.678v.994a7.821,7.821,0,0,0,1.9,5.469,6.418,6.418,0,0,0,5.017,2.079,5.613,5.613,0,0,0,2.4-.542,6.535,6.535,0,0,0,1.808-1.175,8.145,8.145,0,0,0,1.853,1.22,6.271,6.271,0,0,0,2.35.5,6.418,6.418,0,0,0,5.017-2.079,7.932,7.932,0,0,0,1.853-5.469v-5.65A40.743,40.743,0,0,0,65.25,70.833Z" transform="translate(-48.3 -64.867)"/>
        <path id="Path_52668" data-name="Path 52668" class="cls-11" d="M53.643,61.371V58.207a.405.405,0,0,0-.407-.407h-4.43a.405.405,0,0,0-.407.407v4.746A41.277,41.277,0,0,1,53.643,61.371Z" transform="translate(-48.355 -57.8)"/>
      </g>
      <path id="Path_52669" data-name="Path 52669" class="cls-10" d="M101.137,93.6A1.545,1.545,0,0,0,99.6,95.092a1.309,1.309,0,0,0,.452,1.04,1.54,1.54,0,0,0,1.085.407,1.309,1.309,0,0,0,1.04-.452,1.373,1.373,0,0,0,.452-1.04,1.309,1.309,0,0,0-.452-1.04A1.432,1.432,0,0,0,101.137,93.6Z" transform="translate(-76.413 -77.057)"/>
      <path id="Path_52670" data-name="Path 52670" class="cls-10" d="M128.037,93.6a1.545,1.545,0,0,0-1.537,1.492,1.309,1.309,0,0,0,.452,1.04,1.54,1.54,0,0,0,1.085.407,1.309,1.309,0,0,0,1.04-.452,1.373,1.373,0,0,0,.452-1.04,1.309,1.309,0,0,0-.452-1.04A1.432,1.432,0,0,0,128.037,93.6Z" transform="translate(-91.154 -77.057)"/>
      <path id="Path_52671" data-name="Path 52671" class="cls-10" d="M238.537,93.6A1.545,1.545,0,0,0,237,95.092a1.309,1.309,0,0,0,.452,1.04,1.54,1.54,0,0,0,1.085.407,1.309,1.309,0,0,0,1.04-.452,1.373,1.373,0,0,0,.452-1.04,1.309,1.309,0,0,0-.452-1.04A1.432,1.432,0,0,0,238.537,93.6Z" transform="translate(-151.709 -77.057)"/>
      <path id="Path_52672" data-name="Path 52672" class="cls-10" d="M191.737,93.6a1.545,1.545,0,0,0-1.537,1.492,1.309,1.309,0,0,0,.452,1.04,1.54,1.54,0,0,0,1.085.407,1.309,1.309,0,0,0,1.04-.452,1.373,1.373,0,0,0,.452-1.04,1.309,1.309,0,0,0-.452-1.04A1.432,1.432,0,0,0,191.737,93.6Z" transform="translate(-126.062 -77.057)"/>
      <path id="Path_52673" data-name="Path 52673" class="cls-10" d="M116.034,65.839V58.607a.405.405,0,0,0-.407-.407h-4.52a.405.405,0,0,0-.407.407V63.85C112.508,64.483,114.271,65.161,116.034,65.839Z" transform="translate(-82.496 -57.658)"/>
      <path id="Path_52674" data-name="Path 52674" class="cls-10" d="M110.7,75.6V86.222a.405.405,0,0,0,.407.407h4.52a.405.405,0,0,0,.407-.407V77.363C114.271,76.685,112.508,76.1,110.7,75.6Z" transform="translate(-82.496 -67.193)"/>
      <path id="Path_52675" data-name="Path 52675" class="cls-10" d="M142.753,70.365V65.077a2.575,2.575,0,0,1,.452-1.627,1.6,1.6,0,0,1,1.22-.5,1.567,1.567,0,0,1,1.175.5,2.684,2.684,0,0,1,.452,1.627v5.876a50.662,50.662,0,0,0,5.2.542V65.077a2.412,2.412,0,0,1,.452-1.627,1.435,1.435,0,0,1,1.175-.5,1.366,1.366,0,0,1,1.175.5,2.412,2.412,0,0,1,.452,1.627v6.464a38.227,38.227,0,0,0,3.932-.226l1.356-.136V65.348a7.932,7.932,0,0,0-1.853-5.469,6.418,6.418,0,0,0-5.017-2.079,6.687,6.687,0,0,0-2.4.5,7.954,7.954,0,0,0-1.808,1.22,6.535,6.535,0,0,0-1.808-1.175,5.613,5.613,0,0,0-2.4-.542,6.573,6.573,0,0,0-5.017,2.079,7.745,7.745,0,0,0-1.9,5.469v3.706C139.272,69.552,140.99,70,142.753,70.365Z" transform="translate(-97.237 -57.438)"/>
      <g id="Group_5151" data-name="Group 5151" transform="translate(68.839)">
        <path id="Path_52676" data-name="Path 52676" class="cls-10" d="M221.3,86.508v4.43a.405.405,0,0,0,.407.407h4.52a.405.405,0,0,0,.407-.407V84.7C224.871,85.333,223.108,85.966,221.3,86.508Z" transform="translate(-211.944 -72.18)"/>
        <path id="Path_52677" data-name="Path 52677" class="cls-10" d="M200.6,92.475v2.079a.405.405,0,0,0,.407.407h4.52a.405.405,0,0,0,.407-.407V91.3C204.171,91.752,202.408,92.159,200.6,92.475Z" transform="translate(-200.6 -75.797)"/>
        <path id="Path_52678" data-name="Path 52678" class="cls-10" d="M215.245,64.1a7.969,7.969,0,0,0-1.989-4.882A7.052,7.052,0,0,0,207.922,57a6.8,6.8,0,0,0-5.334,2.26,8.521,8.521,0,0,0-1.989,5.831v3.932A97.825,97.825,0,0,0,215.245,64.1Z" transform="translate(-200.6 -57)"/>
        <path id="Path_52679" data-name="Path 52679" class="cls-12" d="M213.034,69.133a1.693,1.693,0,0,1,1.446-.633,1.719,1.719,0,0,1,1.446.678,2.706,2.706,0,0,1,.588,1.582H212.9a.434.434,0,0,0-.407.316A2.571,2.571,0,0,1,213.034,69.133Z" transform="translate(-207.113 -63.302)"/>
      </g>
    </g>
  </g>
</svg>
